<?xml version="1.0" encoding="utf-8"?>
<!-- Generator: Adobe Illustrator 25.2.1, SVG Export Plug-In . SVG Version: 6.00 Build 0)  -->
<svg version="1.1" id="Слой_1" xmlns="http://www.w3.org/2000/svg" xmlns:xlink="http://www.w3.org/1999/xlink" x="0px" y="0px"
	 viewBox="0 0 1080 1080" style="enable-background:new 0 0 1080 1080;" xml:space="preserve">
<style type="text/css">
	.st0{fill:#FFFFFF;stroke:#FFFFFF;stroke-width:9;}
</style>
<path class="st0" d="M420.6,540.3C517.1,638.1,612,734.4,707,830.7c19.7,20,39.7,39.9,59.1,60.2c24.4,25.5,25.1,60.7,2.3,83.2
	c-23.1,22.7-57.4,21.4-82.8-4.3C558.7,841.5,432.1,713.1,305.6,584.5c-27.9-28.4-27.4-61.2,0.8-89.8
	c125.3-127.3,250.7-254.5,376.2-381.6c28.3-28.7,60.5-31.5,85.1-7.7c24.9,24.1,22.6,59.4-5.9,88.3
	C653.3,303.8,544.7,413.8,436.2,523.9C431.3,528.9,426.6,534,420.6,540.3z"/>
</svg>
