<?xml version="1.0" encoding="utf-8"?>
<!-- Generator: Adobe Illustrator 25.2.1, SVG Export Plug-In . SVG Version: 6.00 Build 0)  -->
<svg version="1.1" id="Слой_1" xmlns="http://www.w3.org/2000/svg" xmlns:xlink="http://www.w3.org/1999/xlink" x="0px" y="0px"
	 viewBox="0 0 1080 1080" style="enable-background:new 0 0 1080 1080;" xml:space="preserve">
<style type="text/css">
	.st0{fill:#FFFFFF;}
</style>
<path class="st0" d="M1042,912.9c-1.1,4-2.2,8-3.2,12c-13.2,54.8-57.9,89.8-115.5,90c-103.3,0.2-206.5,0.1-309.8,0.1
	c-126.5,0-252.9,0.1-379.4-0.1c-53.2-0.1-96-29.9-112.2-78.6c-3.5-10.4-5.4-21.7-5.7-32.6c-0.8-26.7-0.3-53.4-0.3-80.5
	c25.6,0,50.3,0,76.4,0c0,3.8,0,7.3,0,10.8c0,21.9-0.3,43.8,0.2,65.7c0.5,22.7,16.6,38.3,39.4,38.9c2.3,0.1,4.6,0,6.9,0
	c226.5,0,452.9,0,679.4,0c32.5,0,47.2-14.8,47.2-47.3c0-173.5-0.1-347,0.3-520.6c0-10.3-3.1-12.3-12.7-12.3
	c-249.3,0.2-498.7,0.2-748,0.2c-3.8,0-7.7,0-12.5,0c0,39.1,0,76.8,0,116.1c-11.6,0-22.3,0-33,0c-11.4,0-22.9-0.5-34.3,0.2
	c-8.1,0.5-9.8-2.7-9.8-10.1c0.3-44.4,0.1-88.9,0.2-133.3c0-30.4-1.1-60.8,0.6-91.1c3.7-65,47-108.2,112-112.1
	c24.7-1.5,49.6-0.4,74.5-0.5c1.6,0,3.1,0.6,5.6,1.1c0,24.3,0.1,48.4,0,72.5c-0.2,21.2,5.8,40.2,20.5,55.5c23,23.9,51,31.4,82.4,20.5
	c29.2-10.2,47.5-31.5,50.6-62.6c2.4-24.6,1.3-49.6,1.8-74.4c0.1-3.8,0-7.7,0-12.1c77.3,0,153.6,0,231,0c0,24.1,0.2,47.6-0.1,71
	c-0.1,15.7,2.8,30.4,10.6,44.2c15.8,28,50.2,43.7,82,37c33.6-7.1,59.2-34.4,61.2-67.6c1.5-24.1,1-48.3,1.3-72.5
	c0.1-3.8,0-7.7,0-12.8c10.2,0,19.2-0.2,28.3,0c23.2,0.6,46.7-1.1,69.4,2.6c49.7,8.2,84.4,45.5,93,95.9c0.3,1.5,1.2,2.9,1.8,4.4
	C1042,457.9,1042,685.4,1042,912.9z"/>
<path class="st0" d="M38,583.4c8.4-24.5,26.3-31.9,51.1-31.4c56.2,1,112.4,0.3,168.6,0.3c3.6,0,7.1,0,12.2,0c0-4.3-0.1-8.1,0-11.9
	c0.5-25.1,0.5-50.3,1.8-75.4c0.9-17.7,13.6-27.3,30.6-24.7c3.3,0.5,7,2.1,9.4,4.3c74.2,67,148.2,134.2,222.3,201.4
	c0.7,0.6,1.1,1.5,2.2,2.9c-2.8,2.7-5.6,5.3-8.4,7.9c-69.9,63.4-140,126.7-209.7,190.4c-9,8.3-17.9,11.6-29.1,7.3
	c-11.3-4.3-16.7-13.8-17.3-25.1c-1.2-23.8-1.2-47.6-1.7-71.4c-0.1-3.9,0-7.8,0-12.9c-4.4-0.2-8.2-0.5-11.9-0.5
	c-56.8,0-113.7-0.7-170.5,0.3c-24.8,0.4-41.7-7.8-49.4-32.1C38,669.7,38,626.6,38,583.4z"/>
<path class="st0" d="M392.9,50.1c24.3,8.6,32.1,26.4,31.3,51.1c-1.1,33.9-0.1,67.9-0.4,101.9c-0.1,16.4-7.4,29.2-22.6,36
	c-13.9,6.2-27.5,4.6-39.6-5c-8.3-6.6-13.7-15.3-13.8-26c-0.3-41.2-0.7-82.3,0.2-123.5c0.4-19.3,14.4-28.8,31.1-34.7
	C383.8,50.1,388.4,50.1,392.9,50.1z"/>
<path class="st0" d="M779.2,50.1c24.3,8.6,31.9,26.6,31.2,51.2c-1,33.6,0.1,67.2-0.4,100.8c-0.4,29.1-25.3,47.6-51,38.2
	c-14.8-5.4-24.5-16.1-24.8-31.9c-0.7-41.1-0.6-82.2-0.1-123.3c0.2-14.7,8.9-24.7,21.8-31.1c2.5-1.3,5-2.6,7.5-3.9
	C768.8,50.1,774,50.1,779.2,50.1z"/>
</svg>
