<?xml version="1.0" encoding="utf-8"?>
<!-- Generator: Adobe Illustrator 25.2.1, SVG Export Plug-In . SVG Version: 6.00 Build 0)  -->
<svg version="1.1" id="Слой_1" xmlns="http://www.w3.org/2000/svg" xmlns:xlink="http://www.w3.org/1999/xlink" x="0px" y="0px"
	 viewBox="0 0 660.1 647.5" style="enable-background:new 0 0 660.1 647.5;" xml:space="preserve">
<style type="text/css">
	.st0{fill:#FFFFFF;stroke:#FFFFFF;stroke-width:17;stroke-miterlimit:10;}
</style>
<g>
	<path class="st0" d="M607.6,124.2c-1.4,4.7-1.9,9.9-4.3,14.1c-4.1,7.3-8.3,15-14.1,20.9C516.7,232,444,304.6,371.4,377.3
		c-3.9,3.9-8.4,5.6-13.6,6.6c-23.6,4.6-47.2,9.4-70.8,14.1c-12,2.4-21.5-7.1-19.1-19.1c4.8-24.4,9.5-48.9,14.7-73.2
		c0.9-4.4,3.9-8.9,7.1-12.1c60.8-61,121.7-121.9,182.6-182.8c10.9-10.9,22-21.7,32.8-32.8c9.8-10.1,21.3-16.8,35.3-18.9
		c0.4-0.1,0.8-0.5,1.3-0.7c5,0,10,0,15,0c0.7,0.3,1.4,0.8,2.2,0.9c15.8,2.8,28.3,10.8,37.8,23.6c5.9,7.9,8.4,17.1,10.9,26.4
		C607.6,114.2,607.6,119.2,607.6,124.2z M488,139.4c-1.3,1.5-2.4,3.2-3.8,4.6C432.5,195.7,381,247.8,328.8,299
		c-11,10.8-19.2,22-20,37.7c0,0.5-0.3,1-0.4,1.4c-1.5,7.7-3,15.5-4.6,23.7c2.1-0.3,3.4-0.3,4.6-0.6c12.4-2.5,24.8-4.8,37.1-7.6
		c3-0.7,6.3-2.2,8.5-4.4c56.2-56,112.3-112.1,168.4-168.2c1.3-1.3,2.4-2.6,3.5-3.7C513.4,164.7,501.2,152.5,488,139.4z M512.1,116.5
		c12.5,12.5,24.8,24.9,36.8,36.8c6.8-6.5,14.4-12.8,20.8-20.2c9.1-10.4,7.6-26.2-2.3-35.6c-10-9.5-25.6-10-35.8-0.7
		C524.8,103.1,518.5,110,512.1,116.5z"/>
	<path class="st0" d="M309.2,569.3c-50.7,0-101.5,0-152.2,0c-34.9,0-60.4-25.5-60.4-60.5c0-101.8,0-203.6,0-305.4
		c0-34,25.4-59.9,59.4-60c59.4-0.2,118.8-0.1,178.1,0c8.8,0,14.6,3.9,17.1,11.1c2.2,6.5,0.3,13.9-5.7,17.6c-3.3,2-7.7,3.1-11.7,3.1
		c-51.4,0.2-102.8,0.1-154.2,0.1c-7.7,0-15.3-0.1-23,0c-17,0.2-28.1,11.4-28.1,28.3c0,101.8,0,203.6,0,305.4
		c0,17.2,11.2,28.4,28.4,28.4c101.6,0,203.2,0,304.9,0c17.5,0,28.7-11.1,28.7-28.7c0.1-58.4,0-116.8,0-175.1c0-2.8,0-5.7,0.7-8.4
		c1.8-6.9,8.6-11.5,15.8-11.3c7,0.2,13.1,5.2,14.7,12c0.5,2.2,0.7,4.6,0.7,6.9c0,58.5,0.1,117.1,0,175.6c0,35.6-25.5,60.9-61.1,60.9
		C410.6,569.3,359.9,569.3,309.2,569.3z"/>
</g>
</svg>
