<?xml version="1.0" encoding="utf-8"?>
<!-- Generator: Adobe Illustrator 25.2.1, SVG Export Plug-In . SVG Version: 6.00 Build 0)  -->
<svg version="1.1" id="Слой_1" xmlns="http://www.w3.org/2000/svg" xmlns:xlink="http://www.w3.org/1999/xlink" x="0px" y="0px"
	 viewBox="0 0 607.4 710.4" style="enable-background:new 0 0 607.4 710.4;" xml:space="preserve">
<style type="text/css">
	.st0{fill:#FFFFFF;stroke:#FFFFFF;stroke-width:10;}
</style>
<path class="st0" d="M54,357.7c0-75.3,0-150.7,0-226c0-35.7,28.3-68.2,63.7-72.9c4.4-0.6,8.9-1,13.4-1c84.3-0.1,168.6,0,253-0.1
	c4,0,6.7,1.2,9.5,4c52.2,52.4,104.6,104.7,157,156.9c2.6,2.6,3.6,5.1,3.6,8.7C554,346.5,554,465.7,554,584.8
	c0,32.8-26.4,64.8-58.8,70.9c-6.3,1.2-12.8,1.9-19.2,2c-116,0.1-232,0.1-348,0.1c-36,0-68.5-28.5-73.1-64.2
	c-0.6-4.3-0.9-8.6-0.9-12.9C54,506.4,54,432.1,54,357.7z M353.9,257.8c0-50.3,0-100,0-150c-2.3,0-4.2,0-6,0c-72.5,0-145,0-217.5,0
	c-16.1,0-26.5,10.4-26.5,26.5c0,149.1,0,298.3,0,447.4c0,15.7,10.5,26.1,26.3,26.1c115.8,0,231.6,0,347.4,0
	c15.8,0,26.3-10.4,26.3-26.1c0-106.1,0-212.3,0-318.4c0-1.7,0-3.5,0-5.4C453.8,257.8,404.3,257.8,353.9,257.8z M404.1,207.4
	c21.4,0,42.4,0,61.7,0c-20.3-20.3-41.2-41.2-61.7-61.7C404.1,165.5,404.1,186.2,404.1,207.4z"/>
</svg>
