<?xml version="1.0" encoding="utf-8"?>
<!-- Generator: Adobe Illustrator 25.2.1, SVG Export Plug-In . SVG Version: 6.00 Build 0)  -->
<svg version="1.1" id="Слой_1" xmlns="http://www.w3.org/2000/svg" xmlns:xlink="http://www.w3.org/1999/xlink" x="0px" y="0px"
	 viewBox="0 0 1080 1080" style="enable-background:new 0 0 1080 1080;" xml:space="preserve">
<style type="text/css">
	.st0{fill:#FFFFFF;}
</style>
<path class="st0" d="M553.6,539.7c97.3,7.6,174,51.2,228.1,132.6c30.9,46.6,45.6,98.6,45.8,154.9c-19.3,0-38.2,0-57.2,0
	c-1.6-67.7-26.1-125.1-76.2-170.6c-42.3-38.4-92.7-58.1-149.9-58.9c-63.9-0.9-119.4,20.8-165.2,65.5
	c-45.8,44.8-67.8,100.1-69.3,164.1c-19,0-37.8,0-57.4,0c1.2-76.5,27.2-142.9,80-198.1c52.7-55.1,117.8-84.2,193.9-89.4
	c-48-4.9-88-25.3-118.8-62.3c-30.8-37.1-43.8-80.2-38.9-128.2c9.4-91.9,90.4-159.2,180.7-154.1c89.4,5,156.3,76.1,162.8,158.6
	C719.5,448.3,648.5,532,553.6,539.7z M540.2,252.6c-63.6-0.3-114.9,50.8-115.2,114.6c-0.3,62.9,50.8,114.9,113.1,115.2
	c65.1,0.3,116.6-50.1,116.9-114.4C655.2,304,604.3,252.8,540.2,252.6z"/>
</svg>
