<svg width="22" height="16" viewBox="0 0 22 16" fill="none" xmlns="http://www.w3.org/2000/svg">
<path d="M1 13.2075C1 9.85902 1 6.51272 1 3.16421C1.00889 3.12199 1.01778 3.07977 1.02444 3.03756C1.20664 1.81547 2.3043 0.997783 3.39085 1C8.46362 1.01556 13.5342 1.00667 18.6069 1.00889C18.758 1.00889 18.9136 1.00667 19.0602 1.04C20.0068 1.25553 20.6267 1.82658 20.9111 2.75759C20.9511 2.89091 20.9711 3.02867 21 3.16421C21 6.51272 21 9.85902 21 13.2075C20.9911 13.2498 20.9822 13.292 20.9756 13.3342C20.7956 14.5363 19.7201 15.3762 18.6114 15.3717C13.5386 15.3562 8.46584 15.3651 3.39307 15.3629C3.23753 15.3629 3.07977 15.3651 2.92867 15.3295C1.98434 15.1095 1.3644 14.5363 1.08888 13.603C1.04666 13.4742 1.02889 13.3386 1 13.2075ZM3.06199 2.23098C3.05755 2.24209 3.05311 2.25542 3.04644 2.26653C3.10643 2.3443 3.16198 2.42651 3.22864 2.49984C3.69081 3.00423 4.15743 3.50639 4.62182 4.00856C5.81946 5.30397 7.01711 6.6016 8.21698 7.89702C8.8769 8.61249 9.53683 9.32797 10.199 10.039C10.6434 10.5145 11.3455 10.5212 11.7832 10.0546C12.1965 9.6146 12.6054 9.17243 13.0142 8.72803C14.4185 7.2082 15.8206 5.68837 17.2249 4.17076C17.7404 3.61305 18.2559 3.05755 18.7691 2.49984C18.8358 2.42651 18.8936 2.34208 18.9758 2.23764C18.8314 2.22431 18.7247 2.20654 18.6203 2.20654C18.0759 2.20431 17.5315 2.20431 16.9871 2.20431C12.4543 2.20431 7.92145 2.20431 3.39085 2.20431C3.27975 2.20431 3.17087 2.21987 3.06199 2.23098ZM13.7719 9.6546C13.3831 10.0746 13.0009 10.4834 12.6232 10.8945C11.9188 11.6588 10.7967 11.8277 9.89457 11.31C9.57683 11.1278 9.3413 10.8589 9.09688 10.5945C8.80802 10.2834 8.52139 9.97012 8.22809 9.6546C6.54605 11.1522 4.87068 12.6454 3.19309 14.1385C3.19976 14.1474 3.2042 14.1541 3.21087 14.163C8.40362 14.163 13.5964 14.163 18.7891 14.163C18.7936 14.1541 18.798 14.1452 18.8002 14.1385C17.1271 12.6432 15.4517 11.1522 13.7719 9.6546ZM2.19542 3.12866C2.18876 3.25975 2.17765 3.36863 2.17765 3.47751C2.17765 5.28397 2.17765 7.09044 2.17765 8.8969C2.17765 10.2745 2.17765 11.6499 2.18209 13.0276C2.18209 13.1475 2.21986 13.2698 2.24208 13.3942C3.97522 11.8477 5.69503 10.3167 7.41929 8.77914C5.67948 6.89935 3.94856 5.02622 2.19542 3.12866ZM19.8201 3.1531C19.809 3.15088 19.7979 3.14865 19.7868 3.14643C18.0514 5.024 16.3183 6.89935 14.5785 8.77914C16.3072 10.3212 18.0226 11.8499 19.7624 13.3986C19.7824 13.2386 19.8157 13.0876 19.8157 12.9365C19.8201 9.85458 19.8179 6.77492 19.8179 3.69304C19.8201 3.51528 19.8201 3.33308 19.8201 3.1531Z" fill="white" stroke="white" stroke-width="0.6"/>
</svg>
