<?xml version="1.0" encoding="utf-8"?>
<!-- Generator: Adobe Illustrator 25.2.1, SVG Export Plug-In . SVG Version: 6.00 Build 0)  -->
<svg version="1.1" id="Слой_1" xmlns="http://www.w3.org/2000/svg" xmlns:xlink="http://www.w3.org/1999/xlink" x="0px" y="0px"
	 viewBox="0 0 1080 1080" style="enable-background:new 0 0 1080 1080;" xml:space="preserve">
<style type="text/css">
	.st0{fill:#FFFFFF;stroke:#FFFFFF;stroke-width:38;}
</style>
<path class="st0" d="M739.5,841.7c0,20.1,0.3,37.6-0.1,55c-0.3,10.5-0.4,21.4-2.9,31.5c-8.4,32.9-37,54-72.5,54
	c-95.8,0.1-191.6,0-287.5,0c-66,0-131.9,0.1-197.9,0c-48,0-78.6-30.7-78.6-79c-0.1-241.2-0.1-482.3,0-723.5c0-48.3,30.6-79,78.6-79
	c118.6-0.1,237.2,0.1,355.8-0.2c10.2,0,17.8,3,25,10.3C616,168,673.2,224.6,729.7,282c5.4,5.5,9.2,14.9,9.4,22.6
	c0.9,39.6,0.6,79.3,0.3,119c-0.1,7.1,2.3,11.2,8.2,15.2c88.6,60.5,120.9,170.1,79.3,269.5c-3,7.2-1.7,11,3.4,16
	c42.7,42.3,85.2,84.7,127.5,127.5c20.8,21,27.5,46.4,18.4,74.7c-8.9,27.9-28.7,44.6-57.3,49.8c-25.9,4.7-47.9-4-66.3-22.4
	c-34.1-34.2-68.3-68.3-102.5-102.5C747.3,848.8,744.5,846.3,739.5,841.7z M525.8,133.7c-5.8,0-10.4,0-15,0c-109.5,0-219.1,0-328.6,0
	c-34.8,0-49.2,14.5-49.2,49.4c0,126.5,0,252.9,0,379.4c0,113.9-0.1,227.8,0,341.7c0,28.2,16,45,43,45c162.5,0.1,325.1,0.1,487.6,0
	c26.1,0,42.4-16.3,42.8-42.8c0.4-23.6,0.1-47.1,0.1-70.7c0-2.6-0.6-5.1-1-8.6c-47.2,17.4-94.3,20.3-141.8,6.5
	c-47.9-13.9-87.9-40.3-116.5-81.3c-54.3-77.9-61.4-161.5-11.8-242.3c62.7-102.3,157.3-128,270.1-95.3c0-33.1,0-66.2,0-100.1
	c-34.7,0-68.5,0.1-102.2,0c-46.7-0.2-77.4-31-77.5-77.6C525.7,203.2,525.8,169.5,525.8,133.7z M811.7,621.1
	c0-103.3-83.5-186.8-187.4-187.3c-103.4-0.5-188.2,84.2-188.2,187.9c0.1,104,84.2,188.1,188,188.1
	C727.8,809.7,811.7,725.2,811.7,621.1z M749.8,804.3c42,42.1,83.6,83.8,125.3,125.4c18.6,18.6,42.8,19.8,59.6,3.3
	c17.4-17.1,16.4-41.3-2.8-60.5c-39.4-39.5-78.8-78.9-118.3-118.3c-2.3-2.3-5-4.3-7.3-6.3c-9.3,10.7-17.4,20.9-26.5,30
	C770.7,787.1,760.4,795.1,749.8,804.3z M559.3,161.2c0.1-0.2-0.4,0.4-0.4,1.1c-0.1,25.5-0.2,51-0.1,76.5
	c0.1,25.5,16.2,42.1,41.7,42.7c16.1,0.4,32.2,0.1,48.3,0.1c10.4,0,20.7,0,31.8,0C639.3,240.7,599.3,201,559.3,161.2z"/>
<path class="st0" d="M604.2,652.1c29.2-29.3,56.8-57,84.5-84.7c2.8-2.8,5.5-5.8,8.8-7.8c7.2-4.3,15.6-4.2,19.9,2.8
	c3.1,5.1,2.1,12.8,2.4,19.3c0.1,1.5-2.1,3.2-3.5,4.6c-33,33-65.9,66.1-99,98.9c-8.5,8.4-17.2,8.4-25.8-0.1
	c-20.2-19.8-40.1-39.7-59.9-59.9c-7.7-7.9-7.8-17.3-1.1-24.1c7.1-7.3,16.3-7,24.8,1.4C571.4,618.5,587.2,634.8,604.2,652.1z"/>
</svg>
