<svg width="16" height="12" viewBox="0 0 16 12" fill="none" xmlns="http://www.w3.org/2000/svg">
<path fill-rule="evenodd" clip-rule="evenodd" d="M8.00081 2.39791H1.16885C0.600283 2.39791 0.143234 2.01202 0.0244019 1.43798C-0.121854 0.721869 0.408322 0.0153589 1.10669 0H1.16702H14.8309C15.3629 0 15.809 0.343656 15.9516 0.860099C16.1673 1.63381 15.6207 2.39791 14.8474 2.39983C13.6848 2.40111 12.5223 2.40069 11.3597 2.40026H11.3592C10.7778 2.40005 10.1965 2.39983 9.6151 2.39983C9.07761 2.39791 8.54012 2.39791 8.00081 2.39791ZM8.00098 4.79774H14.8402C15.4015 4.79774 15.8586 5.18556 15.9756 5.7596C16.1218 6.47571 15.5898 7.1803 14.8933 7.19758H14.8165H1.18364C0.658952 7.19758 0.227499 6.88464 0.0647894 6.38931C-0.192986 5.60601 0.359129 4.79774 1.15439 4.79774C2.67552 4.79646 4.19745 4.79689 5.71912 4.79732H5.71932C6.47999 4.79753 7.24058 4.79774 8.00098 4.79774ZM1.16887 11.9972H8.00083C8.53466 11.9972 9.0685 11.9972 9.6005 11.9992C10.1829 11.9992 10.7656 11.9994 11.3484 11.9996C12.5144 12 13.6809 12.0004 14.8474 11.9992C15.6207 11.9972 16.1674 11.2331 15.9516 10.4594C15.809 9.94298 15.363 9.59932 14.831 9.59932H1.16705H1.10672C0.408346 9.61468 -0.12183 10.3212 0.024425 11.0373C0.143258 11.6113 0.600306 11.9972 1.16887 11.9972Z" fill="white"/>
</svg>
