<?xml version="1.0" encoding="UTF-8"?> <!-- Generator: Adobe Illustrator 25.2.1, SVG Export Plug-In . SVG Version: 6.00 Build 0) --> <svg xmlns="http://www.w3.org/2000/svg" xmlns:xlink="http://www.w3.org/1999/xlink" id="Слой_1" x="0px" y="0px" viewBox="0 0 502 483.1" style="enable-background:new 0 0 502 483.1;" xml:space="preserve"> <style type="text/css"> .st0{fill-rule:evenodd;clip-rule:evenodd;fill:#FFFFFF;} </style> <path class="st0" d="M186.2,96.6l40.1,14.1l-9.4,21.2l23.6-9.4l11.8,42.4l11.8-42.4l23.6,9.4l-9.4-21.2l40.1-14.1l-40.1-11.8 l9.4-23.6L264,70.7l-11.8-40.1l-11.8,40.1l-23.6-9.4l9.4,23.6L186.2,96.6z"></path> <path class="st0" d="M502,228.6c0,0,0-28.3-23.6-73.1c-16.5-28.3-35.4-49.5-35.4-49.5L339.4,0l-4.7,4.7V2.4l-2.4,4.7L304,35.4 l-4.7,4.7l4.7,2.4l42.4,42.4h-2.4h2.4l4.7,4.7c0,2.4,2.4,4.7,2.4,7.1c0,7.1-2.4,9.4-2.4,11.8l-2.4,2.4l-96.6,96.6l-99-99 c-2.4-2.4-4.7-4.7-2.4-11.8c0-2.4,0-4.7,2.4-7.1l4.7-4.7L198,42.4l4.7-2.4l-4.7-2.4l-2.4-4.7L165,2.4L58.9,106.1 c0,0-18.9,21.2-33,51.9C4.7,198,2.4,226.3,0,231h2.4l2.4,2.4l113.1,115.5l2.4,2.4l11.8,11.8l2.4,2.4l115.5,115.5l2.4,2.4l2.4-2.4 L370,365.3l2.4-2.4l9.4-11.8l2.4-2.4l115.5-115.5l2.4-2.4V228.6z M223.9,226.3h-99V124.9L223.9,226.3z M117.8,334.7l-101.3-99h101.3 V334.7z M117.8,226.3H16.5l101.3-101.3V226.3z M124.9,334.7v-99h99L124.9,334.7z M247.5,466.6l-99-101.3h99V466.6z M247.5,358.2h-99 l99-101.3V358.2z M256.9,466.6V365.3h99L256.9,466.6z M256.9,358.2V256.9l99,101.3H256.9z M377.1,334.7l-99-99h99V334.7z M377.1,226.3h-99l99-101.3V226.3z M386.5,334.7v-99h99L386.5,334.7z M386.5,226.3V124.9l99,101.3H386.5z"></path> </svg> 