<?xml version="1.0" encoding="utf-8"?>
<!-- Generator: Adobe Illustrator 25.2.1, SVG Export Plug-In . SVG Version: 6.00 Build 0)  -->
<svg version="1.1" id="Слой_1" xmlns="http://www.w3.org/2000/svg" xmlns:xlink="http://www.w3.org/1999/xlink" x="0px" y="0px"
	 viewBox="0 0 1080 1080" style="enable-background:new 0 0 1080 1080;" xml:space="preserve">
<style type="text/css">
	.st0{fill:#FFFFFF;stroke:#FFFFFF;stroke-width:18;}
</style>
<path class="st0" d="M932,282.9c-0.2,23.1-13.5,52.9-38.6,77.9C821.2,433,749,505.3,676.8,577.5c-98.9,99-197.9,197.9-296.8,297
	c-8.7,8.7-18.2,14.4-30.3,17.3c-51.9,12.4-103.6,25.7-155.4,38.5c-28.5,7-51.5-15.4-44.5-44.1c13.2-54.2,26.7-108.3,40.8-162.2
	c1.9-7.2,6.5-14.5,11.7-19.7C375.3,531,548.2,357.8,721.6,185c30.4-30.3,68.6-41.2,110.8-33.8C882.3,159.8,931.9,220.1,932,282.9z
	 M229.6,850.9c34.1-8.6,66.1-16.5,98-24.8c3.6-1,7.2-3.7,9.9-6.5c126-124.4,252.1-248.6,377.7-373.5
	c44.9-44.7,88.3-90.8,132.2-136.5c15.3-15.9,17.2-35.2,10.6-55.2c-6.5-19.8-19.8-33.5-41-37c-20.6-3.4-36.7,5.5-51,19.9
	C600.5,403.1,434.9,568.8,269,734.3c-9.8,9.8-16.1,20.2-19,33.7C244,795,236.8,821.9,229.6,850.9z"/>
<path class="st0" d="M931.5,864.5c0,22.9,0,44.8,0,67.3c-182.5,0-364.5,0-546.5,0c-0.5-0.7-1.1-1.4-1.6-2.1c2.4-1.7,4.9-3.2,7.1-5.2
	c20.7-18.3,41.1-36.8,62-54.7c3.5-3,8.8-5.6,13.3-5.6c153.2-0.3,306.5-0.2,459.7-0.2C927.1,864,928.8,864.3,931.5,864.5z"/>
</svg>
