<?xml version="1.0" encoding="utf-8"?>
<!-- Generator: Adobe Illustrator 25.2.1, SVG Export Plug-In . SVG Version: 6.00 Build 0)  -->
<svg version="1.1" id="Слой_1" xmlns="http://www.w3.org/2000/svg" xmlns:xlink="http://www.w3.org/1999/xlink" x="0px" y="0px"
	 viewBox="0 0 1080 1080" style="enable-background:new 0 0 1080 1080;" xml:space="preserve">
<style type="text/css">
	.st0{fill:#FFFFFF;}
</style>
<path class="st0" d="M939.9,355.5c-0.5,12.6-5.5,23.3-14,32.3c-4,4.2-8.4,8.1-13.2,11.4c-59.5,40.7-119.1,81.4-178.8,121.9
	c-3.7,2.5-4.7,4.6-3.8,9.2c18,88.4-3.9,165.5-65.5,231.4c-9.1,9.8-17.6,9.7-27,0.3C527.8,652.2,418.1,542.5,308.4,432.8
	c-9.7-9.7-9.7-18.3,0.3-27.9c42.9-41.1,93.9-64.7,153.2-70.1c25.7-2.3,51.3-1,76.5,4.7c3.8,0.9,5-1.2,6.7-3.5
	c42.3-59.5,84.7-118.9,127-178.3c9.1-12.7,20.3-22.7,35.9-26.2c13.2-3,25.1-0.1,34.9,9.8c62,62.9,124.1,125.8,186.1,188.6
	C936,337.1,939.5,345.6,939.9,355.5z"/>
<path class="st0" d="M403.8,575.3c30.6,30.1,60.9,60,91.5,90.2c-1.4,1.2-2.6,2.3-3.9,3.3C384,753.9,276.6,839,169.1,924.1
	c-4.2,3.3-8.5,6-14,5.5c-6.1-0.6-10.8-3.4-13.2-9.2c-2.5-6-1.7-11.8,2.3-16.9c8.3-10.6,16.7-21.2,25.1-31.8
	c77.2-97.6,154.4-195.2,231.6-292.8C401.9,577.5,403.1,576.1,403.8,575.3z"/>
</svg>
