<?xml version="1.0" standalone="no"?>
<!DOCTYPE svg PUBLIC "-//W3C//DTD SVG 20010904//EN"
 "http://www.w3.org/TR/2001/REC-SVG-20010904/DTD/svg10.dtd">
<svg version="1.0" xmlns="http://www.w3.org/2000/svg"
 width="260.000000pt" height="260.000000pt" viewBox="0 0 260.000000 260.000000"
 preserveAspectRatio="xMidYMid meet">

<g transform="translate(0.000000,260.000000) scale(0.100000,-0.100000)"
fill="#000000" stroke="none">
<path d="M486 2274 c-14 -13 -16 -53 -16 -285 l0 -269 273 0 c286 0 297 2 297
45 -1 47 -9 50 -197 55 l-178 5 62 62 c275 277 696 323 1021 110 243 -158 385
-423 385 -717 1 -479 -368 -860 -833 -860 -399 0 -731 279 -814 682 -9 42 -16
97 -16 121 0 70 -61 105 -95 54 -12 -20 -13 -37 -5 -108 28 -226 112 -407 262
-565 126 -132 266 -216 437 -262 132 -34 315 -36 444 -4 272 68 499 253 622
507 185 380 110 825 -189 1120 -180 179 -395 267 -646 268 -246 0 -457 -86
-639 -260 -47 -46 -87 -83 -88 -83 -2 0 -3 83 -3 184 0 196 -5 216 -50 216
-10 0 -26 -7 -34 -16z"/>
</g>
</svg>
