<svg width="18" height="18" viewBox="0 0 18 18" fill="none" xmlns="http://www.w3.org/2000/svg">
<path fill-rule="evenodd" clip-rule="evenodd" d="M11.5417 3.36214C11.5417 3.19599 11.5412 3.02983 11.5408 2.86368C11.5397 2.47599 11.5386 2.0883 11.5435 1.70062C11.5469 1.39932 11.7054 1.18161 11.9771 1.06492C12.261 0.941265 12.5292 0.998739 12.7609 1.19903C12.9194 1.33662 13.0012 1.51601 13.0029 1.72849V4.29392C13.0029 4.36939 13.0033 4.44486 13.0037 4.52033V4.52047C13.0045 4.67137 13.0053 4.82226 13.0029 4.97316C12.9977 5.44166 12.6372 5.76386 12.1704 5.72206C11.843 5.69245 11.5469 5.38941 11.5435 5.06024C11.5403 4.72061 11.5409 4.38099 11.5416 4.04136C11.542 3.81496 11.5424 3.58855 11.5417 3.36214ZM2.55007 17.6993L2.55005 17.6993C2.42084 17.6726 2.29143 17.6458 2.1717 17.5948C1.52729 17.3249 1.15633 16.8302 1.02744 16.1493C1.0048 16.0308 1.00132 15.9072 1.00132 15.7852C0.999578 12.1191 0.999578 8.45295 1.00132 4.78854C1.00132 3.99262 1.35661 3.4022 2.05675 3.02426C2.31277 2.88493 2.59318 2.82223 2.88403 2.82049C3.20126 2.81676 3.51848 2.81747 3.83571 2.81818C3.9626 2.81847 4.08949 2.81875 4.21638 2.81875C4.22683 2.81875 4.23903 2.82049 4.25644 2.82398V3.90728H3.59636C3.53025 3.90728 3.46424 3.90706 3.39829 3.90684H3.39824H3.39819H3.39813H3.39808H3.39803H3.39798H3.39792C3.19992 3.90619 3.00241 3.90553 2.80392 3.91076C2.4225 3.91947 2.0881 4.2556 2.08636 4.63702C2.08263 5.23408 2.08334 5.83025 2.08405 6.42681V6.42685C2.08433 6.66556 2.08462 6.90433 2.08462 7.14324C2.08462 7.15089 2.08555 7.15947 2.08674 7.17035L2.0881 7.1833H15.9028C15.9033 7.17369 15.9041 7.1639 15.9048 7.15405C15.9064 7.13353 15.908 7.11273 15.908 7.09273C15.908 6.82858 15.9082 6.56443 15.9084 6.30029C15.9088 5.77199 15.9092 5.24369 15.908 4.7154C15.908 4.30263 15.6572 3.98913 15.2723 3.91947C15.2033 3.90692 15.1315 3.90708 15.0619 3.90724L15.0389 3.90728C14.7661 3.90611 14.4933 3.9065 14.2205 3.90689H14.2204C14.0839 3.90708 13.9475 3.90728 13.8111 3.90728C13.7911 3.90728 13.7712 3.90592 13.7489 3.90441L13.7397 3.90379V2.82049H13.8355H15.0633C16.0142 2.82223 16.7928 3.4649 16.9704 4.40016C16.9913 4.50988 16.9965 4.62483 16.9965 4.73804C16.9972 6.12305 16.9971 7.50831 16.997 8.89362V8.89364V8.89366V8.89368V8.8937V8.89372V8.89374V8.89376C16.9969 11.2032 16.9967 13.5129 17 15.8218C17.0017 16.6578 16.4357 17.4886 15.483 17.7028C15.4361 17.7137 15.3879 17.7212 15.3395 17.7287L15.3395 17.7287L15.3395 17.7287L15.3394 17.7287L15.3394 17.7287L15.3394 17.7287L15.3394 17.7287L15.3393 17.7287L15.3392 17.7287C15.3105 17.7332 15.2817 17.7377 15.2531 17.7428C11.0784 17.7394 6.90547 17.7394 2.73077 17.7394C2.67127 17.7244 2.61072 17.7118 2.55012 17.6993L2.5501 17.6993L2.55009 17.6993L2.55007 17.6993ZM15.908 8.2875H2.08462V8.37109V15.8932C2.08462 15.9315 2.08636 15.9681 2.09333 16.0047C2.17693 16.407 2.473 16.6439 2.89448 16.6439H15.0842C15.1504 16.6439 15.2183 16.6439 15.2828 16.6299C15.6764 16.5429 15.9063 16.2433 15.9063 15.8218V8.38677C15.908 8.35545 15.908 8.32414 15.908 8.28762V8.2875ZM4.98754 2.82223C4.98774 3.00511 4.98793 3.18798 4.98793 3.37085C4.98793 3.5251 4.98765 3.6792 4.98736 3.83325L4.98736 3.83345C4.98665 4.21854 4.98594 4.60324 4.98967 4.98883C4.99315 5.41205 5.30665 5.72729 5.70897 5.72555C6.1287 5.72206 6.45613 5.39463 6.45613 4.97142C6.45787 3.89857 6.45787 2.82398 6.45613 1.75113C6.45439 1.35229 6.15134 1.03009 5.75599 1.00396C5.34148 0.976098 4.98967 1.30527 4.98793 1.725C4.98677 2.09075 4.98716 2.45649 4.98754 2.82223ZM7.17369 3.90379V2.82572H10.8155V3.90379H7.17369ZM10.0805 10.4332C10.077 9.84626 9.57366 9.35686 8.97976 9.36034C8.3789 9.36383 7.88253 9.86368 7.88776 10.4611C7.89298 11.0619 8.39109 11.5583 8.98673 11.5565C9.59805 11.5531 10.084 11.055 10.0805 10.4332ZM10.0805 14.4668C10.0805 15.0712 9.58934 15.5623 8.98673 15.5623C8.38413 15.5606 7.8895 15.0694 7.88776 14.4686C7.88602 13.866 8.38413 13.3679 8.99022 13.3679C9.5876 13.3679 10.0805 13.8642 10.0805 14.4668ZM6.07297 10.4611C6.07297 9.85497 5.58183 9.3586 4.98096 9.3586C4.37313 9.3586 3.88025 9.85323 3.88199 10.4611C3.88373 11.0567 4.37836 11.5531 4.974 11.5548C5.57486 11.5583 6.07123 11.0619 6.07297 10.4611ZM12.9855 11.5548C12.3882 11.5531 11.89 11.0515 11.8918 10.4541C11.8953 9.85671 12.3847 9.3586 12.9716 9.3586C13.5916 9.3586 14.0862 9.85148 14.081 10.468C14.0775 11.0654 13.5812 11.5565 12.9855 11.5548ZM3.86283 14.4599C3.85761 15.0625 4.35049 15.5588 4.9531 15.5606C5.56093 15.5623 6.04859 15.0799 6.05555 14.4703C6.06078 13.8729 5.56441 13.3696 4.96529 13.3679C4.36268 13.3661 3.86806 13.8573 3.86283 14.4599Z" fill="white"/>
<path d="M11.5408 2.86368L11.7908 2.86297V2.86297L11.5408 2.86368ZM11.5417 3.36215H11.2917L11.2917 3.36292L11.5417 3.36215ZM11.5434 1.70063L11.7934 1.70377L11.7934 1.70351L11.5434 1.70063ZM11.9771 1.06493L12.0758 1.29464L12.0769 1.29413L11.9771 1.06493ZM12.7608 1.19903L12.9247 1.01025L12.9244 1.00992L12.7608 1.19903ZM13.0029 1.72849H13.2529L13.2529 1.72644L13.0029 1.72849ZM13.0029 4.97316L12.753 4.96932L12.753 4.97038L13.0029 4.97316ZM12.1704 5.72207L12.1479 5.97105L12.1481 5.97107L12.1704 5.72207ZM11.5434 5.06025L11.2935 5.06255L11.2935 5.06289L11.5434 5.06025ZM11.5416 4.04137L11.7916 4.04183V4.04183L11.5416 4.04137ZM2.55002 17.6993L2.61545 17.458L2.60811 17.456L2.60066 17.4545L2.55002 17.6993ZM2.55004 17.6993L2.61989 17.4592L2.61548 17.458L2.55004 17.6993ZM2.17169 17.5948L2.26962 17.3648L2.26828 17.3642L2.17169 17.5948ZM1.02743 16.1493L1.27307 16.1028L1.27298 16.1023L1.02743 16.1493ZM1.00131 15.7853H1.25131L1.25131 15.7851L1.00131 15.7853ZM1.00131 4.78855L1.25131 4.78867V4.78855H1.00131ZM2.05674 3.02427L2.17549 3.24427L2.17624 3.24386L2.05674 3.02427ZM2.88402 2.8205L2.88551 3.0705L2.88696 3.07048L2.88402 2.8205ZM3.83569 2.81819L3.83513 3.06819H3.83513L3.83569 2.81819ZM4.25643 2.82398H4.50643V2.61903L4.30546 2.57884L4.25643 2.82398ZM4.25643 3.90728V4.15728H4.50643V3.90728H4.25643ZM3.39828 3.90685L3.3991 3.65685H3.39828V3.90685ZM3.3979 3.90685L3.39708 4.15685H3.3979V3.90685ZM2.8039 3.91076L2.80961 4.1607L2.81048 4.16068L2.8039 3.91076ZM2.08635 4.63703L2.33634 4.63859L2.33634 4.63817L2.08635 4.63703ZM2.08404 6.42681H2.33404L2.33404 6.42651L2.08404 6.42681ZM2.08404 6.42685H1.83404L1.83404 6.42715L2.08404 6.42685ZM2.08672 7.17036L2.33534 7.14411L2.33526 7.14333L2.08672 7.17036ZM2.08809 7.1833L1.83947 7.20955L1.8631 7.4333H2.08809V7.1833ZM15.9028 7.1833V7.4333H16.1385L16.1523 7.19797L15.9028 7.1833ZM15.9048 7.15405L15.6556 7.13499V7.13499L15.9048 7.15405ZM15.9084 6.30029L16.1584 6.30048L15.9084 6.30029ZM15.908 4.7154H15.658L15.658 4.71595L15.908 4.7154ZM15.2723 3.91947L15.2276 4.16544L15.2278 4.16548L15.2723 3.91947ZM15.0619 3.90725L15.0623 4.15725L15.0625 4.15725L15.0619 3.90725ZM15.0389 3.90728L15.0378 4.15728L15.0393 4.15728L15.0389 3.90728ZM14.2203 3.90689L14.22 3.65689L14.2203 3.90689ZM13.7489 3.90442L13.7658 3.65499L13.7657 3.65498L13.7489 3.90442ZM13.7396 3.9038H13.4896V4.13752L13.7228 4.15323L13.7396 3.9038ZM13.7396 2.8205V2.5705H13.4896V2.8205H13.7396ZM15.0633 2.8205L15.0637 2.5705H15.0633V2.8205ZM16.9704 4.40017L16.7248 4.44682L16.7248 4.44694L16.9704 4.40017ZM16.9965 4.73804H16.7465L16.7465 4.73816L16.9965 4.73804ZM16.997 8.89429L16.747 8.89428V8.89429H16.997ZM16.997 8.89443L17.247 8.89445V8.89443H16.997ZM17 15.8218L16.75 15.8222V15.8224L17 15.8218ZM15.483 17.7028L15.4282 17.4589L15.4264 17.4593L15.483 17.7028ZM15.3393 17.7287L15.3776 17.9758L15.3776 17.9758L15.3393 17.7287ZM15.2531 17.7429L15.2529 17.9929L15.2756 17.9929L15.2979 17.9888L15.2531 17.7429ZM2.73075 17.7394L2.6696 17.9818L2.6997 17.9894H2.73075V17.7394ZM2.55015 17.6993L2.45927 17.9322L2.47889 17.9399L2.49953 17.9441L2.55015 17.6993ZM2.55014 17.6993L2.64109 17.4663L2.63227 17.4632L2.55014 17.6993ZM2.55012 17.6993L2.63228 17.4631L2.62631 17.4612L2.55012 17.6993ZM2.5501 17.6993L2.62632 17.4611L2.61993 17.4593L2.5501 17.6993ZM2.55008 17.6993L2.61993 17.4592L2.61552 17.458L2.55008 17.6993ZM2.55006 17.6993L2.48022 17.9394L2.48463 17.9406L2.55006 17.6993ZM2.08461 8.2875V8.0375H1.83461V8.2875H2.08461ZM15.908 8.2875H16.158V8.0375H15.908V8.2875ZM2.09331 16.0047L1.84769 16.0515L1.84854 16.0556L2.09331 16.0047ZM15.2827 16.6299L15.3356 16.8743L15.3367 16.874L15.2827 16.6299ZM15.9062 8.38678L15.6562 8.37289V8.38678H15.9062ZM4.98753 2.82224L4.73753 2.8225V2.82251L4.98753 2.82224ZM4.98735 3.83325L5.23735 3.83413L5.23735 3.83372L4.98735 3.83325ZM4.98735 3.83346L4.73735 3.83258L4.73735 3.833L4.98735 3.83346ZM4.98966 4.98884L5.23965 4.98678L5.23965 4.98642L4.98966 4.98884ZM5.70895 5.72555L5.71004 5.97555L5.71103 5.97554L5.70895 5.72555ZM6.45612 4.97142L6.20612 4.97102V4.97142H6.45612ZM6.45612 1.75113L6.70612 1.75073L6.70611 1.75004L6.45612 1.75113ZM5.75598 1.00397L5.73921 1.25341L5.73949 1.25343L5.75598 1.00397ZM4.98792 1.72501L4.73792 1.72397L4.73792 1.72421L4.98792 1.72501ZM7.17367 2.82572V2.57572H6.92367V2.82572H7.17367ZM7.17367 3.9038H6.92367V4.1538H7.17367V3.9038ZM10.8154 2.82572H11.0654V2.57572H10.8154V2.82572ZM10.8154 3.9038V4.1538H11.0654V3.9038H10.8154ZM8.97975 9.36035L8.9812 9.61035H8.98122L8.97975 9.36035ZM10.0805 10.4332L10.3305 10.4318V10.4317L10.0805 10.4332ZM7.88774 10.4611L8.13773 10.4589V10.4589L7.88774 10.4611ZM8.98672 11.5566L8.98745 11.8066L8.98814 11.8066L8.98672 11.5566ZM8.98672 15.5623L8.986 15.8123H8.98672V15.5623ZM7.88774 14.4686L7.63775 14.4693V14.4693L7.88774 14.4686ZM6.07296 10.4611L6.32296 10.4618V10.4611H6.07296ZM3.88198 10.4611L3.63198 10.4618V10.4618L3.88198 10.4611ZM4.97398 11.5548L4.97543 11.3048L4.97471 11.3048L4.97398 11.5548ZM11.8918 10.4541L11.6418 10.4526L11.6418 10.4534L11.8918 10.4541ZM12.9855 11.5548L12.9862 11.3048H12.9862L12.9855 11.5548ZM14.081 10.468L13.831 10.4659L13.831 10.4666L14.081 10.468ZM4.95308 15.5606L4.95236 15.8106H4.95237L4.95308 15.5606ZM6.05554 14.4703L6.30552 14.4732L6.30553 14.4725L6.05554 14.4703ZM4.96527 13.3679L4.966 13.1179H4.966L4.96527 13.3679ZM11.2908 2.86439C11.2912 3.0306 11.2917 3.19641 11.2917 3.36215H11.7917C11.7917 3.19558 11.7912 3.02907 11.7908 2.86297L11.2908 2.86439ZM11.2935 1.69748C11.2886 2.08741 11.2897 2.47702 11.2908 2.86439L11.7908 2.86297C11.7897 2.47497 11.7886 2.08921 11.7934 1.70377L11.2935 1.69748ZM11.8785 0.835217C11.5227 0.988025 11.2982 1.29039 11.2935 1.69774L11.7934 1.70351C11.7957 1.50825 11.8882 1.37521 12.0758 1.29464L11.8785 0.835217ZM12.9244 1.00992C12.6288 0.754383 12.2596 0.669191 11.8773 0.835727L12.0769 1.29413C12.2624 1.21335 12.4296 1.24311 12.5973 1.38814L12.9244 1.00992ZM13.2529 1.72644C13.2506 1.44349 13.1383 1.19566 12.9247 1.01025L12.597 1.38782C12.7004 1.47759 12.7518 1.58854 12.7529 1.73054L13.2529 1.72644ZM13.2529 4.29393V1.72849H12.7529V4.29393H13.2529ZM13.2537 4.51906C13.2533 4.44348 13.2529 4.36865 13.2529 4.29393H12.7529C12.7529 4.37014 12.7533 4.44626 12.7537 4.52162L13.2537 4.51906ZM13.2529 4.97701C13.2553 4.82308 13.2545 4.66957 13.2537 4.51906L12.7537 4.52162C12.7545 4.67299 12.7552 4.82137 12.753 4.96932L13.2529 4.97701ZM12.1481 5.97107C12.7583 6.02572 13.246 5.59195 13.2529 4.97595L12.753 4.97038C12.7494 5.29138 12.516 5.50202 12.1927 5.47307L12.1481 5.97107ZM11.2935 5.06289C11.2984 5.52824 11.7007 5.93061 12.1479 5.97105L12.1929 5.47308C11.9853 5.45431 11.7955 5.25059 11.7934 5.0576L11.2935 5.06289ZM11.2916 4.04091C11.2909 4.3803 11.2903 4.72131 11.2935 5.06255L11.7934 5.05794C11.7903 4.71993 11.7909 4.38169 11.7916 4.04183L11.2916 4.04091ZM11.2917 3.36292C11.2924 3.58861 11.292 3.8144 11.2916 4.04091L11.7916 4.04183C11.792 3.81553 11.7924 3.5885 11.7917 3.36138L11.2917 3.36292ZM2.48459 17.9406L2.48461 17.9406L2.61548 17.458L2.61545 17.458L2.48459 17.9406ZM2.07376 17.8248C2.2203 17.8872 2.37463 17.9183 2.49938 17.9441L2.60066 17.4545C2.46701 17.4268 2.36252 17.4044 2.26962 17.3648L2.07376 17.8248ZM0.781791 16.1957C0.925032 16.9526 1.34722 17.5205 2.07509 17.8254L2.26828 17.3642C1.70734 17.1292 1.38759 16.7079 1.27307 16.1028L0.781791 16.1957ZM0.751306 15.7853C0.751306 15.9096 0.754533 16.0532 0.781878 16.1962L1.27298 16.1023C1.25505 16.0085 1.25131 15.9048 1.25131 15.7853H0.751306ZM0.751306 4.78843C0.749565 8.45292 0.749565 12.1191 0.751306 15.7854L1.25131 15.7851C1.24956 12.1191 1.24956 8.453 1.25131 4.78867L0.751306 4.78843ZM1.93799 2.80428C1.55482 3.01111 1.25495 3.28246 1.05201 3.62118C0.849032 3.95998 0.751306 4.3524 0.751306 4.78855H1.25131C1.25131 4.42877 1.33123 4.12802 1.48093 3.87815C1.63068 3.6282 1.85852 3.41537 2.17549 3.24427L1.93799 2.80428ZM2.88252 2.5705C2.55614 2.57246 2.23419 2.64308 1.93724 2.80468L2.17624 3.24386C2.39133 3.1268 2.63019 3.07202 2.88551 3.07049L2.88252 2.5705ZM3.83625 2.56819C3.51932 2.56748 3.20034 2.56676 2.88108 2.57052L2.88696 3.07048C3.20214 3.06677 3.51761 3.06748 3.83513 3.06819L3.83625 2.56819ZM4.21637 2.56876C4.0898 2.56876 3.96319 2.56847 3.83625 2.56819L3.83513 3.06819C3.96198 3.06847 4.08915 3.06876 4.21637 3.06876V2.56876ZM4.30546 2.57884C4.28491 2.57473 4.25268 2.56876 4.21637 2.56876V3.06876C4.20773 3.06876 4.20197 3.06803 4.20075 3.06787C4.1998 3.06774 4.20137 3.06792 4.2074 3.06913L4.30546 2.57884ZM4.50643 3.90728V2.82398H4.00643V3.90728H4.50643ZM3.59635 4.15728H4.25643V3.65728H3.59635V4.15728ZM3.39745 4.15684C3.46333 4.15706 3.52975 4.15728 3.59635 4.15728V3.65728C3.53071 3.65728 3.46512 3.65706 3.3991 3.65685L3.39745 4.15684ZM3.39822 4.15685H3.39828V3.65685H3.39822V4.15685ZM3.39817 4.15685H3.39822V3.65685H3.39817V4.15685ZM3.39812 4.15685H3.39817V3.65685H3.39812V4.15685ZM3.39806 4.15685H3.39812V3.65685H3.39806V4.15685ZM3.39801 4.15685H3.39806V3.65685H3.39801V4.15685ZM3.39796 4.15685H3.39801V3.65685H3.39796V4.15685ZM3.3979 4.15685H3.39796V3.65685H3.3979V4.15685ZM2.81048 4.16068C3.00466 4.15557 3.19847 4.15619 3.39708 4.15684L3.39873 3.65685C3.20133 3.6562 3.00013 3.65551 2.79732 3.66085L2.81048 4.16068ZM2.33634 4.63817C2.33746 4.3941 2.56161 4.16636 2.80961 4.1607L2.7982 3.66083C2.28336 3.67258 1.83872 4.11712 1.83635 4.63589L2.33634 4.63817ZM2.33404 6.42651C2.33333 5.82981 2.33262 5.23457 2.33634 4.63859L1.83635 4.63547C1.83261 5.23361 1.83333 5.83071 1.83404 6.42711L2.33404 6.42651ZM2.33404 6.42685V6.42681H1.83404V6.42685H2.33404ZM2.33461 7.14325C2.33461 6.90416 2.33432 6.66524 2.33404 6.42655L1.83404 6.42715C1.83432 6.66588 1.83461 6.90451 1.83461 7.14325H2.33461ZM2.33526 7.14333L2.33461 7.14325H1.83461C1.83461 7.16732 1.83747 7.1908 1.83819 7.19739L2.33526 7.14333ZM2.33671 7.15705L2.33534 7.14411L1.8381 7.19661L1.83947 7.20955L2.33671 7.15705ZM15.9028 6.9333H2.08809V7.4333H15.9028V6.9333ZM15.6556 7.13499C15.6548 7.14444 15.6539 7.15645 15.6532 7.16863L16.1523 7.19797C16.1527 7.19094 16.1533 7.18337 16.1541 7.17311L15.6556 7.13499ZM15.658 7.09274C15.658 7.10152 15.6573 7.11262 15.6556 7.13499L16.1541 7.17311C16.1555 7.15445 16.158 7.12396 16.158 7.09274H15.658ZM15.6584 6.30011C15.6582 6.56424 15.658 6.82848 15.658 7.09274H16.158C16.158 6.8287 16.1582 6.56464 16.1584 6.30048L15.6584 6.30011ZM15.658 4.71595C15.6591 5.24382 15.6588 5.77175 15.6584 6.30011L16.1584 6.30048C16.1588 5.77224 16.1591 5.24358 16.158 4.71485L15.658 4.71595ZM15.2278 4.16548C15.4845 4.21195 15.658 4.41398 15.658 4.7154H16.158C16.158 4.19128 15.8298 3.76632 15.3168 3.67347L15.2278 4.16548ZM15.0625 4.15725C15.1362 4.15708 15.1849 4.15767 15.2276 4.16544L15.317 3.67351C15.2217 3.65618 15.1268 3.6571 15.0614 3.65725L15.0625 4.15725ZM15.0393 4.15728L15.0623 4.15725L15.0615 3.65725L15.0385 3.65728L15.0393 4.15728ZM14.2207 4.15689C14.4937 4.15651 14.7658 4.15612 15.0378 4.15728L15.04 3.65728C14.7663 3.65612 14.4927 3.65651 14.22 3.65689L14.2207 4.15689ZM13.8111 4.15728C13.9477 4.15728 14.0843 4.15709 14.2207 4.15689L14.22 3.65689C14.0835 3.65709 13.9473 3.65728 13.8111 3.65728V4.15728ZM13.732 4.15385C13.7526 4.15525 13.7812 4.15728 13.8111 4.15728V3.65728C13.8011 3.65728 13.7897 3.65662 13.7658 3.65499L13.732 4.15385ZM13.7228 4.15323L13.732 4.15385L13.7657 3.65498L13.7565 3.65436L13.7228 4.15323ZM13.4896 2.8205V3.9038H13.9896V2.8205H13.4896ZM13.8354 2.5705H13.7396V3.0705H13.8354V2.5705ZM15.0633 2.5705H13.8354V3.0705H15.0633V2.5705ZM17.216 4.35351C17.0159 3.29995 16.1341 2.57246 15.0637 2.5705L15.0628 3.0705C15.8944 3.07202 16.5696 3.62986 16.7248 4.44682L17.216 4.35351ZM17.2465 4.73804C17.2465 4.61861 17.2412 4.48566 17.216 4.35339L16.7248 4.44694C16.7414 4.53412 16.7465 4.63106 16.7465 4.73804H17.2465ZM17.247 8.89431C17.2471 7.50878 17.2472 6.12324 17.2465 4.73793L16.7465 4.73816C16.7472 6.12332 16.7471 7.50873 16.747 8.89428L17.247 8.89431ZM17.247 8.89431V8.89429H16.747V8.89431H17.247ZM17.247 8.89433V8.89431H16.747V8.89433H17.247ZM17.247 8.89435V8.89433H16.747V8.89435H17.247ZM17.247 8.89437V8.89435H16.747V8.89437H17.247ZM17.247 8.89439V8.89437H16.747V8.89439H17.247ZM17.247 8.89441V8.89439H16.747V8.89441H17.247ZM17.247 8.89443V8.89441H16.747V8.89443H17.247ZM17.25 15.8215C17.2467 13.513 17.2469 11.2037 17.247 8.89445L16.747 8.89442C16.7469 11.2036 16.7467 13.5132 16.75 15.8222L17.25 15.8215ZM15.5379 17.9467C16.6126 17.7051 17.252 16.7663 17.25 15.8213L16.75 15.8224C16.7515 16.5493 16.2589 17.2721 15.4282 17.4589L15.5379 17.9467ZM15.3776 17.9758C15.4244 17.9685 15.482 17.9597 15.5397 17.9463L15.4264 17.4593C15.3901 17.4677 15.351 17.4739 15.301 17.4817L15.3776 17.9758ZM15.2979 17.9888C15.3227 17.9843 15.3483 17.9803 15.3776 17.9758L15.301 17.4817C15.2727 17.4861 15.2407 17.491 15.2084 17.4969L15.2979 17.9888ZM2.73075 17.9894C6.90548 17.9894 11.0783 17.9894 15.2529 17.9929L15.2533 17.4929C11.0785 17.4894 6.90544 17.4894 2.73075 17.4894V17.9894ZM2.49953 17.9441C2.56103 17.9569 2.61625 17.9683 2.6696 17.9818L2.79191 17.497C2.72631 17.4804 2.66044 17.4668 2.60077 17.4545L2.49953 17.9441ZM2.45925 17.9322L2.45927 17.9322L2.64104 17.4664L2.64102 17.4664L2.45925 17.9322ZM2.46799 17.9354L2.46801 17.9354L2.63227 17.4632L2.63225 17.4632L2.46799 17.9354ZM2.47391 17.9374L2.47393 17.9374L2.62631 17.4612L2.6263 17.4612L2.47391 17.9374ZM2.48025 17.9393L2.48027 17.9394L2.61993 17.4593L2.61992 17.4593L2.48025 17.9393ZM2.48463 17.9406L2.48465 17.9406L2.61552 17.458L2.61549 17.458L2.48463 17.9406ZM2.48021 17.9393L2.48023 17.9393L2.61989 17.4592L2.61987 17.4592L2.48021 17.9393ZM2.08461 8.5375H15.908V8.0375H2.08461V8.5375ZM2.33461 8.3711V8.2875H1.83461V8.3711H2.33461ZM2.33461 15.8932V8.3711H1.83461V15.8932H2.33461ZM2.3389 15.9579C2.33616 15.9436 2.33461 15.9248 2.33461 15.8932H1.83461C1.83461 15.9383 1.83653 15.9927 1.84773 16.0515L2.3389 15.9579ZM2.89447 16.3939C2.73132 16.3939 2.60941 16.3486 2.52317 16.2798C2.43733 16.2113 2.36963 16.1056 2.33808 15.9538L1.84854 16.0556C1.9006 16.3061 2.02274 16.5201 2.2112 16.6705C2.39927 16.8207 2.63614 16.8939 2.89447 16.8939V16.3939ZM15.0842 16.3939H2.89447V16.8939H15.0842V16.3939ZM15.2299 16.3856C15.1961 16.3929 15.1554 16.3939 15.0842 16.3939V16.8939C15.1454 16.8939 15.2405 16.8949 15.3356 16.8743L15.2299 16.3856ZM15.6562 15.8218C15.6562 15.9867 15.6118 16.1108 15.5441 16.1987C15.477 16.2857 15.3748 16.3535 15.2287 16.3859L15.3367 16.874C15.5843 16.8193 15.7938 16.6938 15.9401 16.5039C16.0858 16.3148 16.1562 16.0784 16.1562 15.8218H15.6562ZM15.6562 8.38678V15.8218H16.1562V8.38678H15.6562ZM15.658 8.2875C15.658 8.32551 15.6579 8.34973 15.6566 8.37291L16.1559 8.40064C16.1581 8.36112 16.158 8.32265 16.158 8.2875H15.658ZM5.23792 3.37086C5.23792 3.18783 5.23772 3.00483 5.23753 2.82198L4.73753 2.82251C4.73772 3.0054 4.73792 3.18814 4.73792 3.37086H5.23792ZM5.23735 3.83372C5.23763 3.67971 5.23792 3.52537 5.23792 3.37086H4.73792C4.73792 3.52484 4.73763 3.67871 4.73735 3.83279L5.23735 3.83372ZM5.23734 3.83434L5.23735 3.83413L4.73735 3.83238L4.73735 3.83258L5.23734 3.83434ZM5.23965 4.98642C5.23593 4.60251 5.23663 4.21924 5.23735 3.83392L4.73735 3.833C4.73664 4.21784 4.73592 4.60399 4.73967 4.99126L5.23965 4.98642ZM5.70787 5.47555C5.45046 5.47667 5.24206 5.27965 5.23965 4.98678L4.73967 4.9909C4.74422 5.54447 5.16281 5.97792 5.71004 5.97555L5.70787 5.47555ZM6.20612 4.97142C6.20612 5.25695 5.98979 5.47321 5.70688 5.47556L5.71103 5.97554C6.26759 5.97092 6.70612 5.53233 6.70612 4.97142H6.20612ZM6.20612 1.75154C6.20786 2.82412 6.20786 3.89844 6.20612 4.97102L6.70612 4.97183C6.70786 3.89871 6.70786 2.82385 6.70612 1.75073L6.20612 1.75154ZM5.73949 1.25343C6.00337 1.27086 6.20495 1.48413 6.20612 1.75222L6.70611 1.75004C6.7038 1.22046 6.29929 0.789327 5.77246 0.754514L5.73949 1.25343ZM5.23791 1.72605C5.23906 1.44884 5.47036 1.23533 5.73921 1.25341L5.77275 0.754533C5.21258 0.716875 4.74025 1.16171 4.73792 1.72397L5.23791 1.72605ZM5.23753 2.82198C5.23714 2.45614 5.23675 2.09093 5.23791 1.7258L4.73792 1.72421C4.73675 2.09058 4.73714 2.45685 4.73753 2.8225L5.23753 2.82198ZM6.92367 2.82572V3.9038H7.42367V2.82572H6.92367ZM10.8154 2.57572H7.17367V3.07572H10.8154V2.57572ZM11.0654 3.9038V2.82572H10.5654V3.9038H11.0654ZM7.17367 4.1538H10.8154V3.6538H7.17367V4.1538ZM8.98122 9.61035C9.44051 9.60765 9.82783 9.98924 9.83047 10.4347L10.3305 10.4317C10.3261 9.70329 9.70679 9.10608 8.97828 9.11035L8.98122 9.61035ZM8.13773 10.4589C8.13373 10.0015 8.51706 9.61304 8.9812 9.61035L8.9783 9.11035C8.24071 9.11463 7.6313 9.72589 7.63775 10.4633L8.13773 10.4589ZM8.98599 11.3066C8.52981 11.3079 8.14178 10.9242 8.13773 10.4589L7.63775 10.4632C7.64416 11.1996 8.25234 11.8087 8.98745 11.8066L8.98599 11.3066ZM9.83047 10.4346C9.8332 10.9218 9.45507 11.3039 8.98529 11.3066L8.98814 11.8066C9.74099 11.8023 10.3347 11.1881 10.3305 10.4318L9.83047 10.4346ZM8.98672 15.8123C9.72766 15.8123 10.3305 15.209 10.3305 14.4668H9.83047C9.83047 14.9334 9.451 15.3123 8.98672 15.3123V15.8123ZM7.63775 14.4693C7.63989 15.209 8.24717 15.8102 8.986 15.8123L8.98744 15.3123C8.52105 15.311 8.13908 14.9299 8.13774 14.4679L7.63775 14.4693ZM8.9902 13.1179C8.2467 13.1179 7.6356 13.7274 7.63775 14.4693L8.13774 14.4679C8.1364 14.0045 8.52153 13.6179 8.9902 13.6179V13.1179ZM10.3305 14.4668C10.3305 13.728 9.72746 13.1179 8.9902 13.1179V13.6179C9.44771 13.6179 9.83047 14.0005 9.83047 14.4668H10.3305ZM4.98095 9.60861C5.44143 9.60861 5.82296 9.99072 5.82296 10.4611H6.32296C6.32296 9.71923 5.7222 9.10861 4.98095 9.10861V9.60861ZM4.13197 10.4603C4.13063 9.99077 4.51157 9.60861 4.98095 9.60861V9.10861C4.23467 9.10861 3.62984 9.7157 3.63198 10.4618L4.13197 10.4603ZM4.97471 11.3048C4.51709 11.3035 4.13332 10.919 4.13197 10.4603L3.63198 10.4618C3.63412 11.1944 4.2396 11.8027 4.97325 11.8048L4.97471 11.3048ZM5.82296 10.4603C5.82161 10.9241 5.43667 11.3075 4.97543 11.3048L4.97253 11.8048C5.71303 11.8091 6.32082 11.1997 6.32296 10.4618L5.82296 10.4603ZM11.6418 10.4534C11.6396 11.1887 12.2492 11.8027 12.9848 11.8048L12.9862 11.3048C12.5271 11.3035 12.1404 10.9143 12.1418 10.4548L11.6418 10.4534ZM12.9716 9.10861C12.2422 9.10861 11.646 9.72278 11.6418 10.4526L12.1418 10.4556C12.1445 9.99065 12.5271 9.60861 12.9716 9.60861V9.10861ZM14.331 10.4701C14.3374 9.71246 13.7282 9.10861 12.9716 9.10861V9.60861C13.455 9.60861 13.835 9.99052 13.831 10.4659L14.331 10.4701ZM12.9848 11.8048C13.7182 11.807 14.3267 11.2047 14.331 10.4695L13.831 10.4666C13.8283 10.9262 13.4441 11.3062 12.9862 11.3048L12.9848 11.8048ZM4.9538 15.3106C4.48917 15.3092 4.10879 14.9253 4.11281 14.462L3.61283 14.4577C3.60639 15.1996 4.21178 15.8084 4.95236 15.8106L4.9538 15.3106ZM5.80556 14.4675C5.80015 14.9406 5.42363 15.3119 4.9538 15.3106L4.95237 15.8106C5.6982 15.8127 6.297 15.2192 6.30552 14.4732L5.80556 14.4675ZM4.96455 13.6179C5.42495 13.6192 5.80956 14.0093 5.80555 14.4681L6.30553 14.4725C6.31197 13.7366 5.70385 13.12 4.966 13.1179L4.96455 13.6179ZM4.11281 14.462C4.11685 13.9963 4.50011 13.6165 4.96455 13.6179L4.966 13.1179C4.22523 13.1157 3.61924 13.7182 3.61283 14.4577L4.11281 14.462Z" fill="white"/>
</svg>
