<svg width="17" height="17" viewBox="0 0 17 17" fill="none" xmlns="http://www.w3.org/2000/svg">
<path fill-rule="evenodd" clip-rule="evenodd" d="M12.8603 14.504C12.8919 14.5189 12.9254 14.5347 12.9611 14.5531C12.9916 14.5328 13.0229 14.5142 13.0536 14.4958C13.1185 14.4571 13.1813 14.4196 13.2311 14.3699C13.5378 14.07 13.8402 13.7659 14.1425 13.4618C14.2182 13.3858 14.2938 13.3097 14.3695 13.2337C14.5895 13.0138 14.5978 12.8989 14.4112 12.6407C14.0745 12.1709 13.7378 11.7011 13.3961 11.2346C13.3378 11.1547 13.3378 11.0947 13.3778 11.0064C13.5011 10.7298 13.6145 10.4516 13.7228 10.1701C13.7578 10.0818 13.7978 10.0385 13.8978 10.0218C14.4928 9.92354 15.0878 9.81693 15.6827 9.71033L15.6829 9.71029C15.8962 9.67198 15.9946 9.56703 15.9963 9.35545C16.0013 8.77238 16.0013 8.18764 15.9963 7.60456C15.9946 7.40299 15.8896 7.29304 15.6896 7.25972L15.6895 7.25971C15.0928 7.16142 14.4962 7.06314 13.8995 6.97151C13.8011 6.95652 13.7578 6.91487 13.7228 6.82491C13.6178 6.54837 13.5078 6.27349 13.3844 6.00361C13.3394 5.90365 13.3378 5.83868 13.4028 5.74706C13.6896 5.34651 13.9717 4.94359 14.2541 4.5403C14.3064 4.46555 14.3588 4.39079 14.4112 4.31603C14.5745 4.08113 14.5645 3.95785 14.3645 3.75794C13.9861 3.37811 13.6078 2.99994 13.2278 2.62178C13.0194 2.4152 12.8961 2.40687 12.6577 2.57846C12.5759 2.63724 12.4939 2.69602 12.412 2.75481C12.0202 3.03597 11.6278 3.31751 11.2377 3.60134C11.1643 3.65465 11.111 3.66298 11.0243 3.623C10.741 3.49306 10.4526 3.37311 10.1609 3.26149C10.0743 3.22818 10.0376 3.18986 10.0226 3.09823C9.94063 2.60675 9.85289 2.11526 9.76514 1.62378C9.7476 1.52553 9.73006 1.42727 9.71257 1.32902C9.67257 1.09912 9.57089 1.00416 9.33755 1.0025C8.76918 0.999167 8.20248 0.999167 7.63412 1.0025C7.40244 1.00416 7.2941 1.10412 7.2591 1.32735C7.23541 1.47227 7.21192 1.61718 7.18844 1.76206C7.11608 2.20848 7.04377 2.65467 6.96575 3.0999C6.95575 3.15654 6.89074 3.22151 6.83574 3.2465C6.69073 3.31147 6.54406 3.37186 6.39738 3.43225C6.25071 3.49264 6.10403 3.55303 5.95903 3.618C5.87569 3.65632 5.82569 3.63799 5.76068 3.59135C5.27899 3.24484 4.79563 2.89832 4.3106 2.55514C4.10226 2.40854 3.97225 2.42187 3.79057 2.60179C3.40388 2.98662 3.0172 3.37311 2.63051 3.75961C2.4355 3.95452 2.4255 4.08113 2.58217 4.30603C2.6223 4.36358 2.66242 4.42116 2.70256 4.47874C2.99585 4.89958 3.2896 5.32109 3.58723 5.73873C3.64223 5.81703 3.64723 5.87533 3.60556 5.96529C3.47722 6.2435 3.35721 6.52838 3.25054 6.81492C3.21387 6.91487 3.1672 6.95485 3.06553 6.97151C2.4805 7.06314 1.8938 7.16143 1.30877 7.25972C1.10876 7.29304 1.00542 7.40299 1.00375 7.60456C0.99875 8.18764 0.99875 8.77238 1.00375 9.35545C1.00542 9.56703 1.10709 9.67031 1.3171 9.70863C1.4646 9.73487 1.6121 9.76131 1.75959 9.78775C2.20213 9.8671 2.64466 9.94644 3.0872 10.0202C3.1822 10.0368 3.21554 10.0818 3.24721 10.1634C3.36055 10.4533 3.47889 10.7432 3.60556 11.028C3.64223 11.1097 3.64556 11.1646 3.59056 11.2396C3.28897 11.6537 2.99124 12.0717 2.69398 12.489C2.65281 12.5468 2.61166 12.6046 2.5705 12.6623C2.40549 12.8939 2.4155 13.0172 2.61717 13.2187C2.99211 13.5952 3.36705 13.9699 3.74199 14.3447L3.74224 14.3449C3.95891 14.5615 4.07559 14.5731 4.32393 14.3999C4.47392 14.2954 4.62374 14.1905 4.7736 14.0855C5.10171 13.8556 5.43002 13.6256 5.76068 13.4003C5.80735 13.3687 5.89902 13.362 5.95403 13.3837C6.09166 13.4366 6.22817 13.4941 6.3648 13.5516C6.51607 13.6153 6.66749 13.6791 6.82074 13.7368C6.91408 13.7718 6.95408 13.8185 6.96908 13.9134C7.04211 14.3722 7.1182 14.8311 7.19416 15.2891C7.21529 15.4165 7.2364 15.5438 7.25743 15.671C7.2941 15.8959 7.40244 15.9958 7.63412 15.9975C8.20248 16.0008 8.76918 16.0008 9.33755 15.9975C9.56923 15.9958 9.66923 15.9009 9.7109 15.6693L9.71095 15.6691C9.8176 15.0794 9.92426 14.4898 10.0243 13.9001C10.0393 13.8068 10.0793 13.7702 10.1643 13.7368C10.4459 13.6286 10.7276 13.5169 10.9993 13.387C11.1093 13.3354 11.1776 13.3453 11.2693 13.412C11.7427 13.7518 12.221 14.085 12.7011 14.4182C12.748 14.4509 12.8006 14.4758 12.8603 14.504ZM3.26444 4.14317C3.25598 4.13058 3.24796 4.11867 3.24054 4.10778C3.53722 3.81125 3.82557 3.52305 4.12226 3.22151C4.44561 3.45141 4.78229 3.6913 5.11731 3.9312C5.17625 3.97354 5.23518 4.01565 5.29404 4.0577C5.39497 4.12982 5.49565 4.20177 5.59567 4.27438C5.72401 4.36767 5.85569 4.38266 5.99569 4.29937C6.40405 4.05614 6.83907 3.87955 7.2991 3.76294C7.47244 3.71962 7.54745 3.60301 7.57412 3.43475C7.63755 3.03282 7.70329 2.63167 7.76925 2.22919C7.80035 2.03945 7.83149 1.84942 7.86246 1.65887H9.10587C9.12508 1.76756 9.1443 1.87602 9.16348 1.98431C9.21752 2.28932 9.27132 2.59299 9.32421 2.89666C9.35755 3.08324 9.39088 3.27149 9.42089 3.45974C9.44755 3.623 9.53256 3.72962 9.6959 3.77127C10.1509 3.88622 10.5793 4.06614 10.9826 4.30603C11.1343 4.39599 11.271 4.37433 11.411 4.27271C11.7564 4.022 12.1028 3.77439 12.4495 3.52663C12.5428 3.45994 12.6361 3.39324 12.7294 3.32647C12.7773 3.29249 12.8252 3.25994 12.8651 3.23281L12.8744 3.22651L13.7578 4.10445C13.6387 4.27325 13.5163 4.44847 13.393 4.62509C13.3386 4.70297 13.284 4.78112 13.2294 4.85912C13.17 4.94332 13.111 5.02772 13.052 5.11204C12.9406 5.2713 12.8294 5.43028 12.7161 5.58713C12.6111 5.73206 12.6177 5.867 12.6911 6.03026C12.8744 6.44008 13.0478 6.8549 13.2044 7.27471C13.2694 7.45296 13.3711 7.54459 13.5528 7.57291C13.9167 7.63029 14.28 7.68956 14.6454 7.74918C14.8741 7.78648 15.1036 7.82392 15.3345 7.86112V9.1039C15.0545 9.15554 14.7695 9.20719 14.4845 9.25716C14.1661 9.3138 13.8478 9.36878 13.5294 9.42209C13.3594 9.45041 13.2544 9.54037 13.2111 9.71029C13.0994 10.1551 12.9244 10.5749 12.6911 10.9697C12.6027 11.1197 12.6111 11.2579 12.7127 11.3979C12.9788 11.7631 13.2427 12.1305 13.5061 12.4975C13.5611 12.5741 13.6161 12.6507 13.6711 12.7273C13.6967 12.7632 13.7214 12.7992 13.7442 12.8324C13.7541 12.8468 13.7637 12.8607 13.7728 12.8739C13.4778 13.1671 13.1894 13.4536 12.8877 13.7518C12.7732 13.6713 12.6545 13.5884 12.5337 13.504C12.412 13.4189 12.2882 13.3323 12.1644 13.2454C12.13 13.2215 12.0956 13.1976 12.0611 13.1737C11.8435 13.0226 11.6252 12.871 11.4093 12.7156C11.2627 12.6107 11.121 12.604 10.966 12.6973C10.5776 12.9289 10.1643 13.1055 9.72424 13.2154C9.54256 13.2604 9.45089 13.3753 9.42089 13.5586C9.35422 13.9572 9.28331 14.3558 9.21239 14.7543C9.18402 14.9138 9.15564 15.0733 9.12753 15.2328C9.12279 15.2542 9.11635 15.2756 9.10882 15.3005C9.10578 15.3106 9.10256 15.3213 9.0992 15.3328H7.86246C7.83962 15.1976 7.81656 15.062 7.79344 14.926C7.75246 14.685 7.71128 14.4428 7.67079 14.2C7.66317 14.1536 7.65547 14.1071 7.64777 14.0605C7.62006 13.8932 7.59223 13.7251 7.56745 13.5569C7.54078 13.3737 7.44077 13.2637 7.2591 13.2187C6.81907 13.1105 6.40572 12.9372 6.0157 12.7056C5.86069 12.614 5.72068 12.6223 5.57234 12.7273C5.24195 12.9617 4.91004 13.1931 4.58177 13.4219C4.4248 13.5313 4.26866 13.6402 4.11392 13.7485C3.91613 13.5486 3.72058 13.3524 3.52276 13.1539C3.42553 13.0564 3.32774 12.9583 3.22887 12.8589C3.31874 12.7331 3.40928 12.6052 3.50072 12.4761C3.7315 12.1501 3.96801 11.816 4.21393 11.4878C4.36227 11.2913 4.3606 11.1297 4.2506 10.9081C4.06059 10.5249 3.90891 10.1234 3.76224 9.72196C3.6989 9.54537 3.60223 9.44874 3.41888 9.41876C3.05844 9.35744 2.69872 9.29324 2.33878 9.229C2.15111 9.1955 1.96338 9.162 1.77546 9.12889C1.74991 9.12424 1.72516 9.11717 1.69784 9.10937C1.68596 9.10597 1.67359 9.10244 1.66045 9.0989V7.86278C1.81303 7.83748 1.96613 7.81191 2.11956 7.78628C2.34995 7.7478 2.58107 7.7092 2.81218 7.6712C2.91721 7.65371 3.02182 7.63663 3.12642 7.61955C3.23099 7.60248 3.33556 7.5854 3.44055 7.56791C3.6089 7.54126 3.71557 7.4513 3.7589 7.27971C3.87391 6.83157 4.04892 6.4051 4.28893 6.00861C4.38394 5.85368 4.3656 5.71207 4.26226 5.56714C4.02725 5.23729 3.79505 4.90462 3.56286 4.57196C3.48545 4.46107 3.40805 4.35018 3.33055 4.23939C3.30711 4.2066 3.2845 4.17298 3.26444 4.14317ZM5.89078 8.47935C5.88245 9.91871 7.05251 11.1032 8.48759 11.1082C9.91934 11.1148 11.1011 9.94703 11.1094 8.51933C11.1177 7.07997 9.94767 5.8955 8.5126 5.8905C7.08085 5.8855 5.89912 7.05165 5.89078 8.47935ZM10.4527 8.49767C10.456 9.58053 9.58932 10.4501 8.50593 10.4535C7.42253 10.4568 6.55249 9.59385 6.54415 8.511C6.53749 7.42149 7.4092 6.54688 8.49926 6.54688C9.58432 6.54854 10.451 7.41316 10.4527 8.49767Z" fill="#A5A5A5"/>
<path d="M12.9611 14.5531L12.8006 14.8642L12.9837 14.9586L13.1552 14.8444L12.9611 14.5531ZM12.8603 14.504L13.0099 14.1875L13.0099 14.1875L12.8603 14.504ZM13.0536 14.4958L12.8743 14.1952L12.8743 14.1952L13.0536 14.4958ZM13.2311 14.3699L12.9864 14.1196L12.9837 14.1223L13.2311 14.3699ZM14.1425 13.4618L14.3907 13.7086H14.3907L14.1425 13.4618ZM14.3695 13.2337L14.1221 12.9862L14.1215 12.9867L14.3695 13.2337ZM14.4112 12.6407L14.1267 12.8445L14.1275 12.8457L14.4112 12.6407ZM13.3961 11.2346L13.1134 11.4409L13.1138 11.4414L13.3961 11.2346ZM13.3778 11.0064L13.6966 11.1508L13.6974 11.149L13.3778 11.0064ZM13.7228 10.1701L13.3974 10.0411L13.3961 10.0444L13.7228 10.1701ZM13.8978 10.0218L13.8408 9.6765L13.8403 9.67658L13.8978 10.0218ZM15.6827 9.71033L15.7445 10.0548L15.7469 10.0544L15.6827 9.71033ZM15.6829 9.71029L15.621 9.3658L15.6188 9.36622L15.6829 9.71029ZM15.9963 9.35545L15.6463 9.35245L15.6463 9.35269L15.9963 9.35545ZM15.9963 7.60456L15.6463 7.60746L15.6463 7.60757L15.9963 7.60456ZM15.6896 7.25972L15.632 7.60496L15.6321 7.60496L15.6896 7.25972ZM15.6895 7.25971L15.7471 6.91447L15.7464 6.91436L15.6895 7.25971ZM13.8995 6.97151L13.9526 6.62557L13.9522 6.62551L13.8995 6.97151ZM13.7228 6.82491L13.3956 6.94916L13.3966 6.95182L13.7228 6.82491ZM13.3844 6.00361L13.0653 6.1473L13.0661 6.14909L13.3844 6.00361ZM13.4028 5.74706L13.1182 5.54327L13.1173 5.54454L13.4028 5.74706ZM14.2541 4.5403L14.5408 4.74104V4.74104L14.2541 4.5403ZM14.4112 4.31603L14.6978 4.51687L14.6985 4.51585L14.4112 4.31603ZM14.3645 3.75794L14.1165 4.00495L14.1171 4.00549L14.3645 3.75794ZM13.2278 2.62178L13.4746 2.37369L13.4742 2.37324L13.2278 2.62178ZM12.6577 2.57846L12.8619 2.86278L12.8622 2.86251L12.6577 2.57846ZM12.412 2.75481L12.6161 3.03918L12.6161 3.03918L12.412 2.75481ZM11.2377 3.60134L11.4434 3.88445L11.4436 3.88436L11.2377 3.60134ZM11.0243 3.623L11.1709 3.30519L11.1702 3.30486L11.0243 3.623ZM10.1609 3.26149L10.0353 3.58819L10.0358 3.58838L10.1609 3.26149ZM10.0226 3.09823L10.368 3.04168L10.3678 3.04067L10.0226 3.09823ZM9.76514 1.62378L10.1097 1.56227V1.56227L9.76514 1.62378ZM9.71257 1.32902L9.36775 1.38902L9.36799 1.39037L9.71257 1.32902ZM9.33755 1.0025L9.34005 0.652508L9.3396 0.652505L9.33755 1.0025ZM7.63412 1.0025L7.63207 0.652505L7.6316 0.652508L7.63412 1.0025ZM7.2591 1.32735L7.60452 1.38382L7.60487 1.38157L7.2591 1.32735ZM7.18844 1.76206L7.53393 1.81806V1.81806L7.18844 1.76206ZM6.96575 3.0999L7.31042 3.16076L7.3105 3.16031L6.96575 3.0999ZM6.83574 3.2465L6.97885 3.56591L6.98051 3.56516L6.83574 3.2465ZM6.39738 3.43225L6.26413 3.10861H6.26413L6.39738 3.43225ZM5.95903 3.618L5.81591 3.29858L5.81282 3.3L5.95903 3.618ZM5.76068 3.59135L5.55629 3.87547L5.55663 3.87571L5.76068 3.59135ZM4.3106 2.55514L4.51276 2.26943L4.51201 2.2689L4.3106 2.55514ZM3.79057 2.60179L3.54429 2.3531L3.54368 2.3537L3.79057 2.60179ZM2.63051 3.75961L2.38308 3.51206L2.63051 3.75961ZM2.58217 4.30603L2.29499 4.5061L2.29506 4.5062L2.58217 4.30603ZM2.70256 4.47874L2.41541 4.67886L2.41541 4.67886L2.70256 4.47874ZM3.58723 5.73873L3.87363 5.53753L3.87226 5.5356L3.58723 5.73873ZM3.60556 5.96529L3.28798 5.81819L3.28775 5.81868L3.60556 5.96529ZM3.25054 6.81492L2.92253 6.6928L2.92195 6.69437L3.25054 6.81492ZM3.06553 6.97151L3.11969 7.31731L3.12213 7.31691L3.06553 6.97151ZM1.30877 7.25972L1.36628 7.60496L1.36676 7.60488L1.30877 7.25972ZM1.00375 7.60456L1.35374 7.60757L1.35374 7.60746L1.00375 7.60456ZM1.00375 9.35545L1.35374 9.3527L1.35374 9.35245L1.00375 9.35545ZM1.3171 9.70863L1.25428 10.0529L1.25581 10.0532L1.3171 9.70863ZM1.75959 9.78775L1.82136 9.44325H1.82136L1.75959 9.78775ZM3.0872 10.0202L3.14765 9.6754L3.14471 9.67492L3.0872 10.0202ZM3.24721 10.1634L2.9209 10.29L2.92124 10.2909L3.24721 10.1634ZM3.60556 11.028L3.28575 11.1703L3.28629 11.1715L3.60556 11.028ZM3.59056 11.2396L3.30837 11.0326L3.30764 11.0336L3.59056 11.2396ZM2.69398 12.489L2.97904 12.6921L2.97905 12.6921L2.69398 12.489ZM2.5705 12.6623L2.28548 12.4592L2.28547 12.4592L2.5705 12.6623ZM2.61717 13.2187L2.86515 12.9717L2.8646 12.9712L2.61717 13.2187ZM3.74199 14.3447L3.49457 14.5922L3.49488 14.5925L3.74199 14.3447ZM3.74224 14.3449L3.98966 14.0974L3.98936 14.097L3.74224 14.3449ZM4.32393 14.3999L4.12389 14.1127L4.12368 14.1128L4.32393 14.3999ZM4.7736 14.0855L4.97442 14.3721H4.97442L4.7736 14.0855ZM5.76068 13.4003L5.56422 13.1107L5.56361 13.1111L5.76068 13.4003ZM5.95403 13.3837L5.82579 13.7093L5.82831 13.7103L5.95403 13.3837ZM6.3648 13.5516L6.50062 13.2291L6.50062 13.2291L6.3648 13.5516ZM6.82074 13.7368L6.69729 14.0643L6.6979 14.0646L6.82074 13.7368ZM6.96908 13.9134L6.62337 13.968L6.62343 13.9684L6.96908 13.9134ZM7.19416 15.2891L6.84888 15.3464V15.3464L7.19416 15.2891ZM7.25743 15.671L7.60287 15.6147L7.60274 15.6139L7.25743 15.671ZM7.63412 15.9975L7.6316 16.3475L7.63207 16.3475L7.63412 15.9975ZM9.33755 15.9975L9.3396 16.3475L9.34006 16.3475L9.33755 15.9975ZM9.7109 15.6693L9.36655 15.6067L9.36643 15.6073L9.7109 15.6693ZM9.71095 15.6691L10.0553 15.7317L10.0554 15.7314L9.71095 15.6691ZM10.0243 13.9001L10.3693 13.9586L10.3698 13.9557L10.0243 13.9001ZM10.1643 13.7368L10.0387 13.4101L10.0365 13.411L10.1643 13.7368ZM10.9993 13.387L10.8506 13.0702L10.8483 13.0712L10.9993 13.387ZM11.2693 13.412L11.0635 13.6951L11.0652 13.6963L11.2693 13.412ZM12.7011 14.4182L12.9013 14.1311L12.9006 14.1307L12.7011 14.4182ZM3.24054 4.10778L2.99312 3.86024L2.78791 4.06534L2.95141 4.30502L3.24054 4.10778ZM3.26444 4.14317L3.55486 3.94782L3.55486 3.94782L3.26444 4.14317ZM4.12226 3.22151L4.32507 2.93626L4.08197 2.76342L3.87277 2.97604L4.12226 3.22151ZM5.11731 3.9312L5.32152 3.64694L5.32108 3.64663L5.11731 3.9312ZM5.29404 4.0577L5.49752 3.77293L5.49752 3.77293L5.29404 4.0577ZM5.59567 4.27438L5.80147 3.99127L5.80129 3.99114L5.59567 4.27438ZM5.99569 4.29937L6.17465 4.60016L6.1748 4.60007L5.99569 4.29937ZM7.2991 3.76294L7.21425 3.42338L7.2131 3.42367L7.2991 3.76294ZM7.57412 3.43475L7.9198 3.48954L7.91984 3.48931L7.57412 3.43475ZM7.76925 2.22919L8.11465 2.28579V2.28579L7.76925 2.22919ZM7.86246 1.65887V1.30887H7.56476L7.517 1.60272L7.86246 1.65887ZM9.10587 1.65887L9.45052 1.59794L9.39942 1.30887H9.10587V1.65887ZM9.16348 1.98431L8.81885 2.04537V2.04537L9.16348 1.98431ZM9.32421 2.89666L8.9794 2.95671L8.97967 2.95821L9.32421 2.89666ZM9.42089 3.45974L9.07524 3.51483L9.07546 3.51616L9.42089 3.45974ZM9.6959 3.77127L9.60943 4.11042L9.61018 4.11061L9.6959 3.77127ZM10.9826 4.30603L10.8037 4.60685L10.8041 4.60706L10.9826 4.30603ZM11.411 4.27271L11.6166 4.55596L11.6166 4.55596L11.411 4.27271ZM12.4495 3.52663L12.2459 3.24189L12.2459 3.24189L12.4495 3.52663ZM12.7294 3.32647L12.5269 3.04099L12.5257 3.04183L12.7294 3.32647ZM12.8651 3.23281L13.0618 3.52231L13.0619 3.5223L12.8651 3.23281ZM12.8744 3.22651L13.1211 2.97826L12.9164 2.77481L12.6777 2.93702L12.8744 3.22651ZM13.7578 4.10445L14.0437 4.30628L14.2143 4.06467L14.0045 3.8562L13.7578 4.10445ZM13.393 4.62509L13.6799 4.82547L13.6799 4.82547L13.393 4.62509ZM13.2294 4.85912L13.5154 5.06095L13.5162 5.05977L13.2294 4.85912ZM13.052 5.11204L13.3388 5.31264L13.3388 5.31264L13.052 5.11204ZM12.7161 5.58713L12.9995 5.79247L12.9998 5.79212L12.7161 5.58713ZM12.6911 6.03026L13.0106 5.88733L13.0103 5.88685L12.6911 6.03026ZM13.2044 7.27471L13.5333 7.1548L13.5323 7.15233L13.2044 7.27471ZM13.5528 7.57291L13.6073 7.22718L13.6067 7.22709L13.5528 7.57291ZM14.6454 7.74918L14.5891 8.09461L14.6454 7.74918ZM15.3345 7.86112H15.6845V7.56297L15.3902 7.51557L15.3345 7.86112ZM15.3345 9.1039L15.398 9.44809L15.6845 9.39525V9.1039H15.3345ZM14.4845 9.25716L14.4241 8.91242L14.4232 8.91257L14.4845 9.25716ZM13.5294 9.42209L13.587 9.76733L13.5873 9.76728L13.5294 9.42209ZM13.2111 9.71029L12.8719 9.6238L12.8716 9.62507L13.2111 9.71029ZM12.6911 10.9697L12.3898 10.7917L12.3895 10.7921L12.6911 10.9697ZM12.7127 11.3979L12.4296 11.6036L12.4299 11.604L12.7127 11.3979ZM13.5061 12.4975L13.7904 12.2933L13.7904 12.2933L13.5061 12.4975ZM13.6711 12.7273L13.9565 12.5247L13.9554 12.5231L13.6711 12.7273ZM13.7442 12.8324L13.4558 13.0306L13.4558 13.0307L13.7442 12.8324ZM13.7728 12.8739L14.0195 13.1221L14.2274 12.9155L14.0605 12.6746L13.7728 12.8739ZM12.8877 13.7518L12.6865 14.0382L12.9258 14.2063L13.1338 14.0008L12.8877 13.7518ZM12.5337 13.504L12.3332 13.7908H12.3332L12.5337 13.504ZM12.1644 13.2454L12.3655 12.959L12.3641 12.958L12.1644 13.2454ZM12.0611 13.1737L12.2607 12.8862L12.2607 12.8862L12.0611 13.1737ZM11.4093 12.7156L11.6138 12.4315L11.613 12.431L11.4093 12.7156ZM10.966 12.6973L11.1452 12.9979L11.1465 12.9972L10.966 12.6973ZM9.72424 13.2154L9.80835 13.5551L9.80908 13.555L9.72424 13.2154ZM9.42089 13.5586L9.76609 13.6163L9.76629 13.6151L9.42089 13.5586ZM9.21239 14.7543L8.86781 14.693V14.693L9.21239 14.7543ZM9.12753 15.2328L9.46919 15.3088L9.47088 15.3012L9.47223 15.2936L9.12753 15.2328ZM9.10882 15.3005L8.77372 15.1995L8.77372 15.1995L9.10882 15.3005ZM9.0992 15.3328V15.6828H9.36167L9.43519 15.4308L9.0992 15.3328ZM7.86246 15.3328L7.51736 15.3911L7.56664 15.6828H7.86246V15.3328ZM7.79344 14.926L8.13849 14.8673H8.13849L7.79344 14.926ZM7.67079 14.2L7.32541 14.2567L7.32555 14.2575L7.67079 14.2ZM7.64777 14.0605L7.30247 14.1177V14.1177L7.64777 14.0605ZM7.56745 13.5569L7.2211 13.6073L7.22119 13.6079L7.56745 13.5569ZM7.2591 13.2187L7.34321 12.879L7.34273 12.8789L7.2591 13.2187ZM6.0157 12.7056L6.19438 12.4047L6.19379 12.4043L6.0157 12.7056ZM5.57234 12.7273L5.37019 12.4416L5.3698 12.4418L5.57234 12.7273ZM4.58177 13.4219L4.38162 13.1348H4.38162L4.58177 13.4219ZM4.11392 13.7485L3.86511 13.9947L4.07276 14.2045L4.31463 14.0352L4.11392 13.7485ZM3.52276 13.1539L3.77065 12.9068H3.77065L3.52276 13.1539ZM3.22887 12.8589L2.94412 12.6554L2.77212 12.8961L2.98076 13.1058L3.22887 12.8589ZM3.50072 12.4761L3.21506 12.2738H3.21506L3.50072 12.4761ZM4.21393 11.4878L3.93455 11.277L3.93386 11.2779L4.21393 11.4878ZM4.2506 10.9081L3.93704 11.0636L3.93711 11.0637L4.2506 10.9081ZM3.76224 9.72196L3.43278 9.84012L3.43349 9.84206L3.76224 9.72196ZM3.41888 9.41876L3.36018 9.76381L3.36239 9.76417L3.41888 9.41876ZM2.33878 9.229L2.27728 9.57355H2.27728L2.33878 9.229ZM1.77546 9.12889L1.71287 9.47325L1.71472 9.47358L1.77546 9.12889ZM1.69784 9.10937L1.79401 8.77284L1.79399 8.77283L1.69784 9.10937ZM1.66045 9.0989H1.31045V9.36716L1.5695 9.43688L1.66045 9.0989ZM1.66045 7.86278L1.60319 7.5175L1.31045 7.56605V7.86278H1.66045ZM2.11956 7.78628L2.17722 8.1315H2.17722L2.11956 7.78628ZM2.81218 7.6712L2.86897 8.01657L2.8697 8.01644L2.81218 7.6712ZM3.12642 7.61955L3.07003 7.27412H3.07003L3.12642 7.61955ZM3.44055 7.56791L3.38581 7.22221L3.38304 7.22267L3.44055 7.56791ZM3.7589 7.27971L3.41989 7.19271L3.41956 7.19401L3.7589 7.27971ZM4.28893 6.00861L3.99056 5.82564L3.98952 5.82736L4.28893 6.00861ZM4.26226 5.56714L3.97721 5.77023L3.97729 5.77033L4.26226 5.56714ZM3.56286 4.57196L3.84986 4.37163L3.56286 4.57196ZM3.33055 4.23939L3.61735 4.03875L3.6153 4.03589L3.33055 4.23939ZM8.48759 11.1082L8.48922 10.7582L8.48881 10.7582L8.48759 11.1082ZM5.89078 8.47935L5.54079 8.47731V8.47732L5.89078 8.47935ZM11.1094 8.51933L11.4594 8.52137V8.52136L11.1094 8.51933ZM8.5126 5.8905L8.51137 6.2405H8.51138L8.5126 5.8905ZM8.50593 10.4535L8.50485 10.1035H8.50485L8.50593 10.4535ZM10.4527 8.49767L10.1027 8.49821L10.1027 8.49875L10.4527 8.49767ZM6.54415 8.511L6.19416 8.51314L6.19416 8.5137L6.54415 8.511ZM8.49926 6.54688L8.4998 6.19688H8.49926V6.54688ZM13.1215 14.2421C13.0797 14.2205 13.0409 14.2022 13.0099 14.1875L12.7108 14.8205C12.7429 14.8356 12.7711 14.849 12.8006 14.8642L13.1215 14.2421ZM12.8743 14.1952C12.8447 14.2129 12.806 14.2359 12.767 14.2619L13.1552 14.8444C13.1772 14.8297 13.201 14.8154 13.2329 14.7964L12.8743 14.1952ZM12.9837 14.1223C12.9702 14.1358 12.9471 14.1518 12.8743 14.1952L13.2329 14.7964C13.2899 14.7624 13.3925 14.7034 13.4785 14.6174L12.9837 14.1223ZM13.8944 13.215C13.5917 13.5194 13.291 13.8218 12.9864 14.1196L13.4758 14.6201C13.7845 14.3183 14.0886 14.0124 14.3907 13.7086L13.8944 13.215ZM14.1215 12.9867C14.0457 13.0628 13.97 13.139 13.8944 13.215L14.3907 13.7086C14.4664 13.6325 14.5419 13.5566 14.6175 13.4807L14.1215 12.9867ZM14.1275 12.8457C14.1682 12.902 14.1861 12.9342 14.1935 12.9512C14.1995 12.965 14.1918 12.9533 14.1937 12.9269C14.1956 12.9 14.2052 12.888 14.1989 12.8981C14.1903 12.9117 14.1695 12.9388 14.1221 12.9862L14.6169 13.4813C14.7311 13.3672 14.8759 13.2033 14.892 12.9762C14.9078 12.7521 14.7904 12.5678 14.6948 12.4356L14.1275 12.8457ZM13.1138 11.4414C13.4542 11.9062 13.7898 12.3745 14.1267 12.8445L14.6956 12.4368C14.3591 11.9672 14.0214 11.496 13.6785 11.0278L13.1138 11.4414ZM13.059 10.8619C13.0283 10.9296 12.9933 11.0277 13.0008 11.1458C13.0086 11.2692 13.0594 11.367 13.1134 11.4409L13.6789 11.0283C13.6745 11.0223 13.6961 11.0501 13.6994 11.1014C13.7023 11.1475 13.6872 11.1715 13.6966 11.1508L13.059 10.8619ZM13.3961 10.0444C13.2894 10.3218 13.1784 10.5941 13.0581 10.8638L13.6974 11.149C13.8238 10.8655 13.9395 10.5815 14.0494 10.2958L13.3961 10.0444ZM13.8403 9.67658C13.7486 9.69185 13.6445 9.72632 13.5531 9.80778C13.4664 9.88505 13.4228 9.97712 13.3974 10.0411L14.0482 10.2991C14.0578 10.2748 14.0517 10.301 14.0188 10.3304C14.0017 10.3456 13.9841 10.3558 13.9698 10.3618C13.9568 10.3673 13.9503 10.3679 13.9553 10.3671L13.8403 9.67658ZM15.621 9.36581C15.0256 9.47249 14.433 9.57868 13.8408 9.6765L13.9548 10.3671C14.5526 10.2684 15.1499 10.1614 15.7445 10.0548L15.621 9.36581ZM15.6188 9.36622L15.6186 9.36625L15.7469 10.0544L15.747 10.0544L15.6188 9.36622ZM15.6463 9.35269C15.6461 9.37955 15.6428 9.38954 15.6431 9.38865C15.6433 9.38791 15.6444 9.38462 15.6472 9.37976C15.6499 9.3748 15.6536 9.36947 15.6582 9.36437C15.6627 9.35931 15.667 9.35573 15.6701 9.35351C15.673 9.35136 15.6741 9.35105 15.6722 9.35195C15.6677 9.35409 15.6526 9.36013 15.621 9.36581L15.7448 10.0548C15.892 10.0283 16.056 9.96943 16.1797 9.83132C16.3067 9.68953 16.345 9.51632 16.3462 9.35821L15.6463 9.35269ZM15.6463 7.60757C15.6512 8.18864 15.6512 8.77138 15.6463 9.35245L16.3462 9.35845C16.3513 8.77338 16.3513 8.18664 16.3462 7.60156L15.6463 7.60757ZM15.6321 7.60496C15.6568 7.60908 15.6682 7.61392 15.6708 7.61515C15.6719 7.61567 15.6707 7.61521 15.668 7.61326C15.6653 7.61126 15.6617 7.60818 15.6578 7.60393C15.6539 7.59965 15.6507 7.59512 15.6482 7.59078C15.6457 7.5865 15.6445 7.58336 15.6441 7.58212C15.6433 7.57984 15.6461 7.58675 15.6463 7.60746L16.3462 7.60167C16.3449 7.43992 16.3006 7.27091 16.1768 7.13416C16.0557 7.00038 15.8962 6.93932 15.7471 6.91447L15.6321 7.60496ZM15.632 7.60495L15.632 7.60496L15.7471 6.91448L15.7471 6.91447L15.632 7.60495ZM13.8463 7.31746C14.4408 7.40874 15.0356 7.50672 15.6326 7.60506L15.7464 6.91436C15.15 6.81613 14.5515 6.71753 13.9526 6.62557L13.8463 7.31746ZM13.3966 6.95182C13.4239 7.02198 13.47 7.11537 13.5598 7.19226C13.6529 7.27188 13.7573 7.30389 13.8467 7.31751L13.9522 6.62551C13.9432 6.62414 13.9769 6.62783 14.0149 6.66039C14.0498 6.69022 14.0567 6.7178 14.049 6.698L13.3966 6.95182ZM13.0661 6.14909C13.185 6.40916 13.2919 6.67612 13.3956 6.94915L14.05 6.70067C13.9437 6.42061 13.8306 6.13782 13.7028 5.85813L13.0661 6.14909ZM13.1173 5.54454C13.0613 5.6235 13.0095 5.72588 13.0028 5.85409C12.9965 5.97598 13.0339 6.07749 13.0653 6.14729L13.7036 5.85992C13.69 5.82977 13.704 5.84882 13.7019 5.89033C13.7008 5.91187 13.6958 5.93004 13.6908 5.94264C13.6863 5.95371 13.6833 5.95653 13.6882 5.94957L13.1173 5.54454ZM13.9674 4.33955C13.6848 4.7431 13.4038 5.14449 13.1182 5.54327L13.6873 5.95084C13.9754 5.54852 14.2586 5.14408 14.5408 4.74104L13.9674 4.33955ZM14.1245 4.11518C14.0721 4.19 14.0197 4.26481 13.9674 4.33956L14.5408 4.74104C14.5931 4.66628 14.6455 4.59157 14.6978 4.51687L14.1245 4.11518ZM14.1171 4.00549C14.1573 4.04568 14.1742 4.06874 14.1806 4.07909C14.185 4.08639 14.1772 4.07583 14.1753 4.05287C14.1734 4.03017 14.1793 4.01932 14.1755 4.0289C14.1705 4.04155 14.157 4.06845 14.1238 4.11621L14.6985 4.51585C14.789 4.38577 14.8907 4.20875 14.8729 3.99485C14.855 3.77934 14.724 3.6224 14.6119 3.51039L14.1171 4.00549ZM12.9809 2.86987C13.3605 3.24768 13.7385 3.62548 14.1165 4.00495L14.6125 3.51094C14.2337 3.13074 13.855 2.75221 13.4746 2.37369L12.9809 2.86987ZM12.8622 2.86251C12.9114 2.82711 12.9392 2.81248 12.9526 2.80691C12.9627 2.80269 12.9516 2.8091 12.928 2.80734C12.9043 2.80558 12.8937 2.79746 12.9023 2.80267C12.9139 2.80977 12.9387 2.82801 12.9813 2.87032L13.4742 2.37324C13.3597 2.25967 13.1992 2.1256 12.98 2.10928C12.7619 2.09303 12.5832 2.20087 12.4532 2.29442L12.8622 2.86251ZM12.6161 3.03918C12.698 2.98039 12.7799 2.92159 12.8619 2.86278L12.4536 2.29415C12.3718 2.35289 12.2899 2.41164 12.208 2.47044L12.6161 3.03918ZM11.4436 3.88436C11.8326 3.60133 12.224 3.32045 12.6161 3.03918L12.208 2.47044C11.8163 2.75148 11.4229 3.0337 11.0317 3.31832L11.4436 3.88436ZM10.8777 3.94081C10.9524 3.97528 11.0544 4.00854 11.1751 3.99496C11.2942 3.98157 11.3839 3.92773 11.4434 3.88445L11.0319 3.31824C11.0181 3.32827 11.0444 3.30525 11.0969 3.29935C11.1509 3.29327 11.1829 3.31071 11.1709 3.30519L10.8777 3.94081ZM10.0358 3.58838C10.3213 3.69761 10.6026 3.81467 10.8784 3.94114L11.1702 3.30486C10.8793 3.17144 10.5839 3.04861 10.286 2.93461L10.0358 3.58838ZM9.67718 3.15478C9.69063 3.23694 9.72091 3.33942 9.80059 3.43119C9.87717 3.51939 9.96983 3.563 10.0353 3.58819L10.2865 2.9348C10.2653 2.92667 10.2963 2.93446 10.3292 2.97227C10.3651 3.01365 10.3695 3.05115 10.368 3.04168L9.67718 3.15478ZM9.42059 1.68529C9.50839 2.17711 9.59578 2.66662 9.67735 3.1558L10.3678 3.04067C10.2855 2.54688 10.1974 2.05342 10.1097 1.56227L9.42059 1.68529ZM9.36799 1.39037C9.3855 1.48872 9.40305 1.58705 9.42059 1.68529L10.1097 1.56227C10.0922 1.464 10.0746 1.36583 10.0571 1.26767L9.36799 1.39037ZM9.33505 1.35249C9.3712 1.35275 9.38684 1.35667 9.38956 1.35748C9.3904 1.35773 9.38768 1.357 9.38273 1.35434C9.37762 1.3516 9.37165 1.34762 9.36573 1.34238C9.35292 1.33105 9.34948 1.32213 9.35143 1.3264C9.35421 1.33249 9.36109 1.35076 9.36775 1.38902L10.0574 1.26902C10.0315 1.12032 9.97527 0.946946 9.8294 0.817966C9.68054 0.686348 9.49863 0.65364 9.34005 0.652508L9.33505 1.35249ZM7.63617 1.35249C8.20317 1.34917 8.7685 1.34917 9.3355 1.35249L9.3396 0.652505C8.76987 0.649165 8.2018 0.649165 7.63207 0.652505L7.63617 1.35249ZM7.60487 1.38157C7.61014 1.34796 7.61618 1.33257 7.61804 1.32851C7.61914 1.32611 7.61551 1.33454 7.60391 1.34474C7.5986 1.3494 7.59338 1.35286 7.58909 1.35517C7.58493 1.35741 7.58287 1.35793 7.58404 1.35758C7.5872 1.35662 7.60257 1.35273 7.63664 1.35249L7.6316 0.652508C7.46991 0.653671 7.28927 0.689339 7.1418 0.818942C6.99554 0.947489 6.93734 1.11995 6.91332 1.27314L7.60487 1.38157ZM7.53393 1.81806C7.55742 1.67314 7.58087 1.52846 7.60451 1.38382L6.91368 1.27089C6.88995 1.41607 6.86643 1.56122 6.84295 1.70607L7.53393 1.81806ZM7.3105 3.16031C7.38896 2.7125 7.46164 2.26411 7.53393 1.81806L6.84295 1.70607C6.77053 2.15285 6.69857 2.59683 6.621 3.03949L7.3105 3.16031ZM6.98051 3.56516C7.05778 3.53005 7.12471 3.47682 7.17498 3.42228C7.221 3.37235 7.2889 3.2826 7.31042 3.16076L6.62108 3.03904C6.62754 3.00243 6.63999 2.9783 6.64601 2.96789C6.65263 2.95646 6.65813 2.95018 6.66027 2.94786C6.66265 2.94527 6.66493 2.94321 6.66784 2.94103C6.67029 2.93919 6.67764 2.9339 6.69097 2.92785L6.98051 3.56516ZM6.53063 3.75589C6.67649 3.69584 6.82813 3.63344 6.97885 3.56591L6.69263 2.9271C6.55333 2.98951 6.41163 3.04788 6.26413 3.10861L6.53063 3.75589ZM6.10214 3.93741C6.24143 3.875 6.38314 3.81662 6.53063 3.75589L6.26413 3.10861C6.11828 3.16866 5.96663 3.23107 5.81592 3.2986L6.10214 3.93741ZM5.55663 3.87571C5.60051 3.9072 5.68104 3.96109 5.7906 3.98093C5.91083 4.00271 6.01797 3.97612 6.10523 3.936L5.81282 3.3C5.81327 3.2998 5.82429 3.29473 5.84375 3.29145C5.86479 3.28789 5.88954 3.28746 5.91535 3.29214C5.96283 3.30074 5.98586 3.32214 5.96474 3.30699L5.55663 3.87571ZM4.10844 2.84086C4.59235 3.18325 5.07485 3.52914 5.55629 3.87547L5.96507 3.30723C5.48313 2.96053 4.9989 2.6134 4.51276 2.26943L4.10844 2.84086ZM4.03685 2.85047C4.07043 2.81723 4.08978 2.80371 4.09743 2.79918C4.10272 2.79605 4.09311 2.80266 4.07274 2.80454C4.05213 2.80644 4.04053 2.80166 4.04454 2.80316C4.05134 2.8057 4.0715 2.81486 4.10919 2.84138L4.51201 2.2689C4.38436 2.17908 4.21405 2.08853 4.00843 2.1075C3.80465 2.1263 3.65354 2.2449 3.54429 2.3531L4.03685 2.85047ZM2.87793 4.00716C3.26467 3.62062 3.65109 3.23439 4.03746 2.84987L3.54368 2.3537C3.15668 2.73884 2.76972 3.12561 2.38308 3.51206L2.87793 4.00716ZM2.86935 4.10597C2.83859 4.06181 2.82665 4.03728 2.82253 4.02664C2.81957 4.019 2.82504 4.03 2.82315 4.0518C2.82126 4.07365 2.81393 4.08367 2.81804 4.07688C2.82384 4.0673 2.8398 4.04527 2.87793 4.00716L2.38308 3.51206C2.27096 3.62412 2.14412 3.77954 2.12576 3.99135C2.10744 4.20274 2.20532 4.37738 2.29499 4.5061L2.86935 4.10597ZM2.9897 4.27863C2.94957 4.22104 2.90943 4.16344 2.86928 4.10586L2.29506 4.5062C2.33517 4.56372 2.37527 4.62127 2.41541 4.67886L2.9897 4.27863ZM3.87226 5.5356C3.57588 5.11971 3.28317 4.69972 2.9897 4.27863L2.41541 4.67886C2.70852 5.09945 3.00333 5.52246 3.3022 5.94185L3.87226 5.5356ZM3.92315 6.1124C3.9573 6.03867 3.99125 5.9383 3.98148 5.81906C3.9716 5.69852 3.92091 5.60485 3.87362 5.53754L3.30083 5.93991C3.30855 5.9509 3.28786 5.92554 3.28381 5.87621C3.27988 5.82819 3.29549 5.80196 3.28798 5.81819L3.92315 6.1124ZM3.57855 6.93703C3.68178 6.65973 3.79829 6.38305 3.92338 6.1119L3.28775 5.81868C3.15615 6.10395 3.03265 6.39702 2.92253 6.6928L3.57855 6.93703ZM3.12213 7.31691C3.20704 7.30299 3.3133 7.2724 3.40886 7.19133C3.5028 7.11161 3.55058 7.01329 3.57913 6.93546L2.92195 6.69437C2.91384 6.7165 2.91994 6.68814 2.95597 6.65757C2.9936 6.62564 3.0257 6.62337 3.00894 6.62612L3.12213 7.31691ZM1.36676 7.60488C1.95196 7.50656 2.53684 7.40858 3.11969 7.3173L3.01138 6.62573C2.42416 6.7177 1.83564 6.81629 1.25078 6.91456L1.36676 7.60488ZM1.35374 7.60746C1.35391 7.58623 1.35672 7.57893 1.35605 7.58092C1.35568 7.58206 1.35452 7.58515 1.35205 7.58946C1.34955 7.59383 1.34627 7.59846 1.34231 7.60288C1.33836 7.60727 1.33459 7.61051 1.33165 7.61266C1.32879 7.61475 1.32739 7.61534 1.32828 7.61491C1.33047 7.61386 1.34159 7.60907 1.36628 7.60496L1.25126 6.91447C1.10187 6.93936 0.942285 7.00064 0.821453 7.13521C0.698291 7.27238 0.655088 7.44127 0.653762 7.60167L1.35374 7.60746ZM1.35374 9.35245C1.34875 8.77138 1.34875 8.18864 1.35374 7.60757L0.653763 7.60156C0.648746 8.18664 0.648746 8.77338 0.653763 9.35845L1.35374 9.35245ZM1.37992 9.36431C1.34885 9.35864 1.33366 9.35263 1.32868 9.35029C1.32491 9.34851 1.33182 9.35117 1.34126 9.36156C1.3457 9.36644 1.34942 9.37166 1.35226 9.37664C1.35506 9.38154 1.35631 9.38499 1.35665 9.38605C1.35718 9.38767 1.35394 9.37854 1.35374 9.3527L0.653761 9.35821C0.655028 9.51906 0.695564 9.69194 0.823333 9.83247C0.946929 9.9684 1.10952 10.0265 1.25428 10.0529L1.37992 9.36431ZM1.82136 9.44325C1.6739 9.41681 1.52617 9.39032 1.3784 9.36404L1.25581 10.0532C1.40303 10.0794 1.55029 10.1058 1.69783 10.1323L1.82136 9.44325ZM3.14471 9.67492C2.70466 9.60161 2.26425 9.52265 1.82136 9.44325L1.69783 10.1323C2.14001 10.2115 2.58467 10.2913 3.02969 10.3654L3.14471 9.67492ZM3.57351 10.0368C3.55306 9.98412 3.51484 9.89428 3.43512 9.81666C3.34731 9.73116 3.24368 9.69226 3.14765 9.67542L3.02675 10.3649C3.02797 10.3651 3.01761 10.3635 3.00119 10.3559C2.98332 10.3476 2.96413 10.3351 2.94679 10.3182C2.91541 10.2876 2.90969 10.2611 2.9209 10.29L3.57351 10.0368ZM3.92537 10.8858C3.80155 10.6074 3.68531 10.3228 3.57318 10.036L2.92124 10.2909C3.03578 10.5838 3.15622 10.879 3.28575 11.1703L3.92537 10.8858ZM3.87275 11.4467C3.9272 11.3724 3.97672 11.2745 3.9821 11.1516C3.98711 11.0372 3.95125 10.9434 3.92483 10.8846L3.28629 11.1715C3.29655 11.1943 3.28068 11.1688 3.28277 11.121C3.28388 11.0958 3.28953 11.0732 3.2967 11.0554C3.30327 11.0391 3.30938 11.0312 3.30837 11.0326L3.87275 11.4467ZM2.97905 12.6921C3.27649 12.2745 3.57315 11.858 3.87348 11.4457L3.30764 11.0336C3.00479 11.4494 2.70599 11.8689 2.4089 12.2859L2.97905 12.6921ZM2.85553 12.8654C2.89671 12.8077 2.93789 12.7499 2.97904 12.6921L2.40891 12.2859C2.36774 12.3437 2.32661 12.4015 2.28548 12.4592L2.85553 12.8654ZM2.8646 12.9712C2.82386 12.9305 2.80647 12.9069 2.79987 12.8962C2.79508 12.8884 2.80315 12.8991 2.80512 12.9227C2.80709 12.9463 2.80089 12.9582 2.8043 12.9498C2.809 12.9382 2.8222 12.9122 2.85554 12.8654L2.28547 12.4592C2.19371 12.588 2.08955 12.765 2.10754 12.9809C2.12553 13.1966 2.25756 13.3542 2.36975 13.4663L2.8646 12.9712ZM3.98942 14.0971C3.61443 13.7223 3.23977 13.3478 2.86515 12.9717L2.3692 13.4657C2.74446 13.8425 3.11967 14.2175 3.49457 14.5922L3.98942 14.0971ZM3.98936 14.097L3.98911 14.0968L3.49488 14.5925L3.49512 14.5928L3.98936 14.097ZM4.12368 14.1128C4.07107 14.1495 4.04186 14.1646 4.02769 14.1703C4.01719 14.1745 4.02948 14.1678 4.05446 14.1702C4.07908 14.1725 4.0889 14.1812 4.07762 14.174C4.06329 14.1649 4.03603 14.1437 3.98966 14.0974L3.49481 14.5925C3.60841 14.706 3.76829 14.846 3.98796 14.867C4.20968 14.8881 4.39239 14.7789 4.52419 14.6869L4.12368 14.1128ZM4.57279 13.7988C4.42286 13.9038 4.27343 14.0085 4.12389 14.1127L4.52397 14.6871C4.67441 14.5823 4.82463 14.4771 4.97442 14.3721L4.57279 13.7988ZM5.56361 13.1111C5.23075 13.3379 4.90058 13.5692 4.57279 13.7988L4.97442 14.3721C5.30284 14.142 5.62929 13.9134 5.95775 13.6896L5.56361 13.1111ZM6.08226 13.058C5.9908 13.022 5.89708 13.0173 5.82568 13.0232C5.75694 13.0288 5.65595 13.0484 5.56422 13.1107L5.95714 13.69C5.93134 13.7075 5.91056 13.7144 5.90212 13.7169C5.89243 13.7198 5.88602 13.7206 5.88277 13.7208C5.87939 13.7211 5.87471 13.7212 5.8679 13.7205C5.862 13.7198 5.84689 13.7176 5.82579 13.7093L6.08226 13.058ZM6.50062 13.2291C6.36484 13.1719 6.22331 13.1123 6.07974 13.057L5.82831 13.7103C5.96002 13.761 6.09151 13.8163 6.22899 13.8742L6.50062 13.2291ZM6.94419 13.4093C6.79821 13.3543 6.65292 13.2932 6.50062 13.2291L6.22899 13.8742C6.37922 13.9375 6.53676 14.0038 6.69729 14.0643L6.94419 13.4093ZM7.31479 13.8588C7.30125 13.7731 7.27019 13.6699 7.1918 13.5769C7.11496 13.4859 7.02048 13.4379 6.94358 13.4091L6.6979 14.0646C6.71433 14.0707 6.68653 14.0636 6.65678 14.0283C6.62547 13.9912 6.62191 13.9588 6.62337 13.968L7.31479 13.8588ZM7.53945 15.2318C7.46346 14.7736 7.38755 14.3159 7.31473 13.8584L6.62343 13.9684C6.69667 14.4286 6.77295 14.8885 6.84888 15.3464L7.53945 15.2318ZM7.60274 15.6139C7.58169 15.4866 7.56057 15.3592 7.53945 15.2318L6.84888 15.3464C6.87 15.4737 6.8911 15.6009 6.91212 15.7281L7.60274 15.6139ZM7.63664 15.6475C7.60257 15.6473 7.58726 15.6434 7.58415 15.6424C7.58294 15.6421 7.59223 15.645 7.60376 15.6551C7.6151 15.6651 7.6184 15.6731 7.61697 15.67C7.61478 15.6652 7.60848 15.6491 7.60287 15.6147L6.91199 15.7273C6.93694 15.8803 6.99559 16.0525 7.14153 16.1808C7.28913 16.3106 7.46972 16.3463 7.6316 16.3475L7.63664 15.6475ZM9.33549 15.6475C8.7685 15.6508 8.20317 15.6508 7.63617 15.6475L7.63207 16.3475C8.2018 16.3508 8.76987 16.3508 9.3396 16.3475L9.33549 15.6475ZM9.36643 15.6073C9.35933 15.6468 9.35215 15.6661 9.34892 15.6732C9.3465 15.6786 9.34953 15.67 9.36222 15.6587C9.36813 15.6534 9.3742 15.6493 9.37957 15.6464C9.38478 15.6435 9.38783 15.6427 9.38739 15.6428C9.38546 15.6434 9.37061 15.6473 9.33503 15.6475L9.34006 16.3475C9.49854 16.3464 9.68023 16.3133 9.82874 16.1806C9.97301 16.0516 10.0288 15.8787 10.0554 15.7313L9.36643 15.6073ZM9.36659 15.6065L9.36655 15.6067L10.0553 15.7319L10.0553 15.7317L9.36659 15.6065ZM9.67918 13.8416C9.57956 14.429 9.47325 15.0168 9.36654 15.6068L10.0554 15.7314C10.162 15.142 10.269 14.5505 10.3693 13.9586L9.67918 13.8416ZM10.0365 13.411C9.97608 13.4347 9.88467 13.4765 9.80791 13.5618C9.72602 13.6527 9.6929 13.7562 9.67869 13.8445L10.3698 13.9557C10.3706 13.9507 10.365 13.9892 10.3281 14.0302C10.2963 14.0654 10.2674 14.0723 10.292 14.0627L10.0365 13.411ZM10.8483 13.0712C10.59 13.1948 10.3193 13.3023 10.0387 13.4101L10.2898 14.0635C10.5725 13.9549 10.8653 13.8391 11.1503 13.7027L10.8483 13.0712ZM11.4751 13.1289C11.4049 13.0778 11.306 13.0203 11.1772 13.007C11.0478 12.9936 10.9367 13.0297 10.8506 13.0702L11.148 13.7038C11.1719 13.6926 11.15 13.7079 11.1052 13.7033C11.061 13.6987 11.0421 13.6795 11.0635 13.6951L11.4751 13.1289ZM12.9006 14.1307C12.4207 13.7975 11.9443 13.4657 11.4734 13.1277L11.0652 13.6963C11.541 14.0379 12.0214 14.3725 12.5015 14.7057L12.9006 14.1307ZM13.0099 14.1875C12.9444 14.1566 12.9197 14.144 12.9013 14.1311L12.5009 14.7053C12.5763 14.7579 12.6568 14.7949 12.7108 14.8205L13.0099 14.1875ZM2.95141 4.30502C2.95806 4.31478 2.9654 4.32569 2.97403 4.33851L3.55486 3.94782C3.54655 3.93547 3.53787 3.92256 3.52968 3.91055L2.95141 4.30502ZM3.87277 2.97604C3.57728 3.27636 3.28995 3.56355 2.99312 3.86024L3.48797 4.35533C3.7845 4.05895 4.07387 3.76973 4.37174 3.46699L3.87277 2.97604ZM5.32108 3.64663C4.98563 3.40643 4.6486 3.16629 4.32507 2.93626L3.91945 3.50676C4.24261 3.73653 4.57896 3.97618 4.91354 4.21576L5.32108 3.64663ZM5.49752 3.77293C5.43861 3.73084 5.38003 3.68898 5.32152 3.64694L4.91311 4.21545C4.97246 4.25809 5.03176 4.30046 5.09055 4.34247L5.49752 3.77293ZM5.80129 3.99114C5.70003 3.91763 5.59827 3.84492 5.49752 3.77293L5.09055 4.34247C5.19166 4.41472 5.29128 4.4859 5.39006 4.55761L5.80129 3.99114ZM5.81674 3.99857C5.80646 4.00469 5.80236 4.00544 5.8041 4.00498C5.80492 4.00477 5.80672 4.00438 5.80932 4.00414C5.81194 4.0039 5.81476 4.00387 5.81755 4.00408C5.82355 4.00453 5.82614 4.00581 5.82426 4.00505C5.82193 4.0041 5.81432 4.00061 5.80147 3.99127L5.38988 4.55748C5.49259 4.63215 5.61844 4.69108 5.76506 4.70211C5.91432 4.71333 6.0531 4.67247 6.17465 4.60016L5.81674 3.99857ZM7.2131 3.42367C6.72196 3.54817 6.25536 3.73732 5.81659 3.99866L6.1748 4.60007C6.55274 4.37496 6.95619 4.21094 7.3851 4.10221L7.2131 3.42367ZM7.22843 3.37996C7.22062 3.42925 7.21069 3.43671 7.21656 3.42926C7.21993 3.42497 7.22428 3.42128 7.22755 3.41925C7.23028 3.41757 7.22735 3.42011 7.21425 3.42338L7.38395 4.1025C7.53543 4.06465 7.66863 3.98672 7.76666 3.86214C7.86003 3.74349 7.90094 3.60851 7.9198 3.48954L7.22843 3.37996ZM7.42386 2.17258C7.35793 2.57489 7.29202 2.97707 7.22839 3.38019L7.91984 3.48931C7.98308 3.08858 8.04866 2.68844 8.11465 2.28579L7.42386 2.17258ZM7.517 1.60272C7.48607 1.793 7.45496 1.98281 7.42386 2.17258L8.11465 2.28579C8.14573 2.09609 8.17692 1.90584 8.20793 1.71503L7.517 1.60272ZM9.10587 1.30887H7.86246V2.00887H9.10587V1.30887ZM9.50812 1.92326C9.48893 1.81495 9.46973 1.70656 9.45052 1.59794L8.76121 1.71981C8.78044 1.82857 8.79967 1.93709 8.81885 2.04537L9.50812 1.92326ZM9.66902 2.8366C9.61603 2.53235 9.56214 2.22818 9.50812 1.92325L8.81885 2.04537C8.8729 2.35046 8.92661 2.65363 8.9794 2.95671L9.66902 2.8366ZM9.76652 3.40465C9.73595 3.21282 9.70209 3.02166 9.66876 2.8351L8.97967 2.95821C9.01301 3.14482 9.04582 3.33016 9.07525 3.51482L9.76652 3.40465ZM9.78238 3.43212C9.76918 3.42875 9.76445 3.42585 9.76493 3.42613C9.76585 3.42667 9.76907 3.42891 9.77238 3.43274C9.77552 3.43639 9.77572 3.43798 9.77429 3.43462C9.77267 3.4308 9.76922 3.42117 9.76631 3.40332L9.07546 3.51616C9.0963 3.64374 9.14454 3.77638 9.24191 3.88947C9.34112 4.0047 9.47006 4.07488 9.60943 4.11042L9.78238 3.43212ZM11.1615 4.00521C10.7303 3.74874 10.2707 3.55548 9.78162 3.43193L9.61018 4.11061C10.0312 4.21696 10.4283 4.38354 10.8037 4.60685L11.1615 4.00521ZM11.2054 3.98946C11.1682 4.01644 11.1574 4.01383 11.1673 4.01286C11.1723 4.01238 11.1766 4.01298 11.1783 4.01341C11.1794 4.01368 11.1739 4.01255 11.1612 4.005L10.8041 4.60706C10.9332 4.68363 11.0789 4.72477 11.2351 4.70957C11.3863 4.69486 11.5138 4.6306 11.6166 4.55596L11.2054 3.98946ZM12.2459 3.24189C11.8995 3.48953 11.552 3.73788 11.2054 3.98947L11.6166 4.55596C11.9608 4.30613 12.3062 4.05926 12.653 3.81138L12.2459 3.24189ZM12.5257 3.04183C12.4325 3.10854 12.3393 3.17519 12.2459 3.24189L12.653 3.81138C12.7463 3.74469 12.8397 3.67794 12.9331 3.6111L12.5257 3.04183ZM12.6684 2.94331C12.6288 2.97022 12.5781 3.00467 12.5269 3.04099L12.9319 3.61194C12.9765 3.58031 13.0216 3.54966 13.0618 3.52231L12.6684 2.94331ZM12.6777 2.93702L12.6684 2.94332L13.0619 3.5223L13.0711 3.516L12.6777 2.93702ZM14.0045 3.8562L13.1211 2.97826L12.6277 3.47476L13.5111 4.3527L14.0045 3.8562ZM13.6799 4.82547C13.8034 4.64871 13.9252 4.47423 14.0437 4.30628L13.4718 3.90262C13.3521 4.07227 13.2292 4.24822 13.106 4.42471L13.6799 4.82547ZM13.5162 5.05977C13.5709 4.98162 13.6256 4.90333 13.6799 4.82547L13.106 4.4247C13.0516 4.50261 12.9971 4.58062 12.9427 4.65846L13.5162 5.05977ZM13.3388 5.31264C13.3978 5.22822 13.4564 5.14443 13.5154 5.06095L12.9435 4.65729C12.8835 4.7422 12.8241 4.82722 12.7652 4.91144L13.3388 5.31264ZM12.9998 5.79212C13.1149 5.63272 13.2277 5.47153 13.3388 5.31264L12.7652 4.91144C12.6535 5.07107 12.5439 5.22784 12.4324 5.38214L12.9998 5.79212ZM13.0103 5.88685C12.9984 5.86017 12.9922 5.84152 12.9892 5.82909C12.9877 5.82307 12.987 5.81893 12.9868 5.81641C12.9866 5.81515 12.9866 5.81427 12.9865 5.81372C12.9865 5.81318 12.9865 5.81293 12.9865 5.81292C12.9865 5.81292 12.9865 5.81308 12.9865 5.81338C12.9864 5.81368 12.9864 5.81401 12.9863 5.81434C12.9862 5.81511 12.9861 5.81527 12.9863 5.81462C12.9867 5.8135 12.9895 5.80628 12.9995 5.79247L12.4326 5.38178C12.3453 5.5024 12.2917 5.63873 12.2869 5.79073C12.2823 5.93577 12.3231 6.06536 12.3718 6.17368L13.0103 5.88685ZM13.5323 7.15233C13.3725 6.72415 13.1962 6.30235 13.0106 5.88733L12.3716 6.17319C12.5526 6.57781 12.723 6.98565 12.8765 7.39709L13.5323 7.15233ZM13.6067 7.22709C13.5846 7.22364 13.5729 7.21949 13.5679 7.21738C13.5654 7.21633 13.5643 7.21565 13.5641 7.21551C13.5639 7.21542 13.5639 7.21539 13.5639 7.21542C13.5639 7.21543 13.564 7.21545 13.564 7.21546C13.564 7.21548 13.564 7.21549 13.564 7.21549C13.564 7.21549 13.564 7.21547 13.5639 7.21542C13.5639 7.21538 13.5638 7.2153 13.5637 7.21519C13.5635 7.21497 13.5631 7.21455 13.5625 7.21389C13.5614 7.21259 13.5595 7.21006 13.5568 7.20578C13.5512 7.19697 13.5429 7.18122 13.5332 7.1548L12.8756 7.39462C12.9213 7.51986 12.9909 7.64511 13.1057 7.74458C13.2227 7.8459 13.3593 7.89698 13.4989 7.91874L13.6067 7.22709ZM14.7018 7.40374C14.3365 7.34416 13.9723 7.28473 13.6073 7.22718L13.4983 7.91864C13.8611 7.97585 14.2235 8.03497 14.5891 8.09461L14.7018 7.40374ZM15.3902 7.51557C15.1596 7.47844 14.9305 7.44106 14.7018 7.40374L14.5891 8.09461C14.8177 8.13191 15.0475 8.1694 15.2789 8.20667L15.3902 7.51557ZM15.6845 9.1039V7.86112H14.9845V9.1039H15.6845ZM14.5449 9.6019C14.8312 9.5517 15.1173 9.49987 15.398 9.44809L15.2711 8.7597C14.9918 8.81122 14.7078 8.86267 14.4241 8.91242L14.5449 9.6019ZM13.5873 9.76728C13.9068 9.71378 14.2263 9.6586 14.5458 9.60175L14.4232 8.91257C14.106 8.96901 13.7888 9.02378 13.4716 9.0769L13.5873 9.76728ZM13.5502 9.79679C13.5546 9.77984 13.5586 9.77212 13.5596 9.77028C13.5604 9.76896 13.5593 9.77115 13.5559 9.77412C13.5527 9.77701 13.5512 9.77721 13.5544 9.7758C13.5582 9.77415 13.5681 9.77047 13.587 9.76733L13.4719 9.07685C13.3391 9.09898 13.2037 9.15018 13.0896 9.25206C12.9745 9.35484 12.9071 9.4861 12.872 9.6238L13.5502 9.79679ZM12.9924 11.1478C13.2422 10.7251 13.4304 10.2741 13.5506 9.79552L12.8716 9.62507C12.7684 10.0361 12.6066 10.4247 12.3898 10.7917L12.9924 11.1478ZM12.9959 11.1922C12.9851 11.1774 12.9811 11.1685 12.9799 11.1654C12.979 11.1629 12.9799 11.1646 12.9802 11.169C12.9804 11.1736 12.9796 11.1757 12.9801 11.1738C12.9808 11.1713 12.9836 11.1627 12.9926 11.1474L12.3895 10.7921C12.3185 10.9127 12.273 11.0523 12.2811 11.2061C12.2893 11.3593 12.3488 11.4925 12.4296 11.6036L12.9959 11.1922ZM13.7904 12.2933C13.5271 11.9266 13.2626 11.5581 12.9956 11.1918L12.4299 11.604C12.6951 11.968 12.9582 12.3345 13.2218 12.7016L13.7904 12.2933ZM13.9554 12.5231C13.9004 12.4466 13.8454 12.37 13.7904 12.2933L13.2218 12.7016C13.2768 12.7782 13.3318 12.8549 13.3869 12.9315L13.9554 12.5231ZM14.0326 12.6341C14.01 12.6012 13.9838 12.5631 13.9565 12.5247L13.3857 12.9299C13.4095 12.9634 13.4328 12.9972 13.4558 13.0306L14.0326 12.6341ZM14.0605 12.6746C14.0518 12.662 14.0426 12.6486 14.0326 12.634L13.4558 13.0307C13.4656 13.045 13.4756 13.0594 13.4851 13.0732L14.0605 12.6746ZM13.1338 14.0008C13.4359 13.7022 13.7245 13.4153 14.0195 13.1221L13.5261 12.6256C13.231 12.9189 12.943 13.2051 12.6417 13.5029L13.1338 14.0008ZM12.3332 13.7908C12.454 13.8753 12.5724 13.958 12.6865 14.0382L13.0889 13.4654C12.974 13.3847 12.8549 13.3015 12.7342 13.2171L12.3332 13.7908ZM11.9632 13.5318C12.0874 13.619 12.2115 13.7058 12.3332 13.7908L12.7342 13.2171C12.6124 13.132 12.489 13.0457 12.3655 12.959L11.9632 13.5318ZM11.8615 13.4612C11.8959 13.4851 11.9303 13.5089 11.9646 13.5328L12.3641 12.958C12.3297 12.934 12.2952 12.9101 12.2607 12.8862L11.8615 13.4612ZM11.2049 12.9997C11.4235 13.1571 11.6443 13.3103 11.8615 13.4612L12.2607 12.8862C12.0427 12.7348 11.8268 12.5849 11.6138 12.4315L11.2049 12.9997ZM11.1465 12.9972C11.1636 12.9869 11.1738 12.9833 11.1776 12.9822C11.1808 12.9812 11.1797 12.982 11.1758 12.9818C11.172 12.9816 11.1712 12.9808 11.1747 12.9822C11.1788 12.9838 11.1891 12.9884 11.2057 13.0003L11.613 12.431C11.4987 12.3492 11.3624 12.2891 11.2057 12.2824C11.0487 12.2757 10.9072 12.3241 10.7855 12.3974L11.1465 12.9972ZM9.80908 13.555C10.2851 13.436 10.73 13.2455 11.1452 12.9979L10.7867 12.3967C10.4252 12.6122 10.0435 12.7749 9.63939 12.8758L9.80908 13.555ZM9.76629 13.6151C9.77415 13.5671 9.78501 13.5588 9.78075 13.5637C9.77895 13.5658 9.7776 13.5664 9.77929 13.5654C9.78156 13.5641 9.78999 13.5597 9.80835 13.5551L9.64012 12.8757C9.49267 12.9122 9.35583 12.9846 9.25061 13.1066C9.1476 13.2261 9.09763 13.3668 9.07548 13.502L9.76629 13.6151ZM9.55698 14.8156C9.62784 14.4174 9.69908 14.017 9.76609 13.6163L9.07568 13.5008C9.00937 13.8973 8.93877 14.2941 8.86781 14.693L9.55698 14.8156ZM9.47223 15.2936C9.50027 15.1344 9.5286 14.9752 9.55698 14.8156L8.86781 14.693C8.83944 14.8525 8.81101 15.0123 8.78285 15.1721L9.47223 15.2936ZM9.44392 15.4016C9.45061 15.3794 9.46111 15.3452 9.46919 15.3088L8.78588 15.1569C8.78446 15.1632 8.78208 15.1717 8.77372 15.1995L9.44392 15.4016ZM9.43519 15.4308C9.43804 15.421 9.44083 15.4118 9.44392 15.4016L8.77372 15.1995C8.77072 15.2094 8.76707 15.2215 8.76321 15.2348L9.43519 15.4308ZM7.86246 15.6828H9.0992V14.9828H7.86246V15.6828ZM7.44839 14.9847C7.47152 15.1207 7.49455 15.2561 7.51736 15.3911L8.20757 15.2745C8.18469 15.1391 8.1616 15.0033 8.13849 14.8673L7.44839 14.9847ZM7.32555 14.2575C7.36615 14.501 7.40742 14.7437 7.44839 14.9847L8.13849 14.8673C8.09749 14.6262 8.05641 14.3846 8.01602 14.1424L7.32555 14.2575ZM7.30247 14.1177C7.31018 14.1643 7.31784 14.2105 7.32541 14.2567L8.01617 14.1433C8.0085 14.0966 8.00077 14.0499 7.99307 14.0034L7.30247 14.1177ZM7.22119 13.6079C7.24649 13.7797 7.27485 13.9509 7.30247 14.1177L7.99307 14.0034C7.96528 13.8355 7.93796 13.6704 7.91371 13.5059L7.22119 13.6079ZM7.17498 13.5585C7.19556 13.5636 7.20652 13.5687 7.21111 13.5712C7.21516 13.5735 7.21466 13.5739 7.2127 13.5717C7.21072 13.5695 7.21093 13.5688 7.21251 13.5724C7.21432 13.5766 7.21818 13.5873 7.2211 13.6073L7.9138 13.5065C7.89279 13.3621 7.83825 13.2189 7.7301 13.1002C7.62215 12.9818 7.48472 12.914 7.34321 12.879L7.17498 13.5585ZM5.83701 13.0066C6.2549 13.2547 6.70011 13.4416 7.17546 13.5586L7.34273 12.8789C6.93804 12.7793 6.55654 12.6197 6.19438 12.4047L5.83701 13.0066ZM5.77449 13.013C5.80977 12.988 5.8192 12.9918 5.80948 12.9923C5.80578 12.9925 5.80442 12.9918 5.80721 12.9926C5.81066 12.9935 5.82057 12.9969 5.8376 13.0069L6.19379 12.4043C6.07154 12.3321 5.93018 12.2852 5.77355 12.2932C5.61799 12.3012 5.48325 12.3616 5.37019 12.4416L5.77449 13.013ZM4.78192 13.709C5.11 13.4803 5.4431 13.2481 5.77487 13.0127L5.3698 12.4418C5.0408 12.6753 4.71009 12.9058 4.38162 13.1348L4.78192 13.709ZM4.31463 14.0352C4.46905 13.9271 4.6249 13.8185 4.78192 13.709L4.38162 13.1348C4.2247 13.2442 4.06828 13.3532 3.91321 13.4618L4.31463 14.0352ZM3.27487 13.401C3.47276 13.5995 3.66785 13.7953 3.86511 13.9947L4.36274 13.5023C4.1644 13.3019 3.9684 13.1052 3.77065 12.9068L3.27487 13.401ZM2.98076 13.1058C3.07976 13.2053 3.17765 13.3035 3.27487 13.401L3.77065 12.9068C3.6734 12.8093 3.57573 12.7113 3.47698 12.612L2.98076 13.1058ZM3.21506 12.2738C3.12353 12.4031 3.03345 12.5304 2.94412 12.6554L3.51363 13.0624C3.60404 12.9359 3.69503 12.8074 3.78639 12.6783L3.21506 12.2738ZM3.93386 11.2779C3.68462 11.6105 3.4454 11.9485 3.21506 12.2738L3.78639 12.6783C4.01761 12.3517 4.2514 12.0214 4.494 11.6977L3.93386 11.2779ZM3.93711 11.0637C3.97902 11.1482 3.97995 11.1819 3.97953 11.1908C3.97939 11.1938 3.9797 11.2172 3.93455 11.277L4.49331 11.6987C4.59649 11.5619 4.67014 11.4062 4.67875 11.2238C4.68708 11.0474 4.63218 10.8896 4.56409 10.7525L3.93711 11.0637ZM3.43349 9.84206C3.58032 10.244 3.73765 10.6615 3.93704 11.0636L4.56416 10.7526C4.38353 10.3883 4.23751 10.0029 4.09099 9.60186L3.43349 9.84206ZM3.36239 9.76417C3.38359 9.76764 3.39418 9.77171 3.39802 9.77343C3.39902 9.77387 3.39968 9.77421 3.40005 9.77441C3.40042 9.77461 3.40058 9.77472 3.40058 9.77472C3.40058 9.77472 3.40056 9.77471 3.40053 9.77468C3.40049 9.77465 3.40044 9.77462 3.40039 9.77458C3.40033 9.77454 3.40029 9.7745 3.40025 9.77447C3.40021 9.77444 3.40019 9.77442 3.40019 9.77442C3.40019 9.77442 3.40022 9.77445 3.40029 9.77451C3.40035 9.77457 3.40045 9.77467 3.40059 9.77482C3.40086 9.77511 3.40133 9.77563 3.40198 9.77643C3.40327 9.77803 3.40546 9.78096 3.40837 9.78577C3.41439 9.7957 3.42292 9.8126 3.43279 9.84012L4.09169 9.60379C4.04839 9.48307 3.98255 9.35776 3.87093 9.25634C3.75593 9.15185 3.6191 9.09685 3.47538 9.07335L3.36239 9.76417ZM2.27728 9.57355C2.637 9.63775 2.99811 9.7022 3.36018 9.7638L3.47759 9.07372C3.11877 9.01267 2.76045 8.94872 2.40027 8.88444L2.27728 9.57355ZM1.71472 9.47358C1.90221 9.50661 2.08955 9.54005 2.27728 9.57355L2.40027 8.88444C2.21267 8.85096 2.02456 8.81739 1.8362 8.7842L1.71472 9.47358ZM1.60168 9.44589C1.62591 9.45282 1.6674 9.46498 1.71287 9.47325L1.83805 8.78453C1.83241 8.7835 1.82442 8.78153 1.79401 8.77284L1.60168 9.44589ZM1.5695 9.43688C1.57964 9.43961 1.58951 9.44242 1.60169 9.4459L1.79399 8.77283C1.78241 8.76952 1.76754 8.76527 1.75141 8.76093L1.5695 9.43688ZM1.31045 7.86278V9.0989H2.01045V7.86278H1.31045ZM2.0619 7.44106C1.90844 7.46669 1.75553 7.49223 1.60319 7.5175L1.71772 8.20807C1.87052 8.18272 2.02382 8.15712 2.17722 8.1315L2.0619 7.44106ZM2.7554 7.32584C2.52378 7.36392 2.29222 7.4026 2.0619 7.44106L2.17722 8.1315C2.40768 8.09301 2.63836 8.05448 2.86897 8.01656L2.7554 7.32584ZM3.07003 7.27412C2.96551 7.29119 2.86035 7.30836 2.75467 7.32596L2.8697 8.01644C2.97407 7.99906 3.07812 7.98207 3.18282 7.96498L3.07003 7.27412ZM3.38304 7.22267C3.2787 7.24005 3.17469 7.25703 3.07003 7.27412L3.18282 7.96498C3.2873 7.94792 3.39243 7.93075 3.49806 7.91316L3.38304 7.22267ZM3.41956 7.19401C3.41527 7.21098 3.41124 7.21873 3.41019 7.22057C3.40943 7.22192 3.41055 7.21971 3.41395 7.21668C3.41728 7.21372 3.41899 7.21336 3.41623 7.21455C3.41296 7.21596 3.40371 7.21939 3.38582 7.22222L3.49529 7.91361C3.62848 7.89252 3.76456 7.8417 3.87926 7.73964C3.99487 7.63678 4.06307 7.50471 4.09825 7.36541L3.41956 7.19401ZM3.98952 5.82736C3.73077 6.2548 3.54292 6.7133 3.41989 7.19271L4.09792 7.36671C4.2049 6.94985 4.36707 6.55539 4.58835 6.18986L3.98952 5.82736ZM3.97729 5.77033C4.00414 5.80799 4.00168 5.81969 4.00102 5.81106C4.00089 5.80941 4.0009 5.80762 4.00106 5.80597C4.00122 5.80432 4.00144 5.80355 4.00136 5.80385C4.00122 5.80436 3.99926 5.81146 3.99056 5.82564L4.5873 6.19157C4.66646 6.06248 4.71118 5.91578 4.69894 5.75719C4.68702 5.60279 4.62373 5.47122 4.54724 5.36395L3.97729 5.77033ZM3.27586 4.77229C3.50789 5.10472 3.74106 5.43877 3.97721 5.77023L4.54732 5.36404C4.31345 5.0358 4.08222 4.70453 3.84986 4.37163L3.27586 4.77229ZM3.04376 4.44003C3.12114 4.55064 3.19844 4.66137 3.27586 4.77229L3.84986 4.37163C3.77247 4.26077 3.69496 4.14972 3.61733 4.03876L3.04376 4.44003ZM2.97403 4.33851C2.99369 4.36774 3.01901 4.40542 3.04579 4.44289L3.6153 4.03589C3.59521 4.00777 3.5753 3.97822 3.55486 3.94782L2.97403 4.33851ZM8.48881 10.7582C7.24833 10.7539 6.23356 9.72811 6.24078 8.48138L5.54079 8.47732C5.53134 10.1093 6.8567 11.4525 8.48637 11.4582L8.48881 10.7582ZM10.7594 8.51729C10.7522 9.75122 9.72846 10.764 8.48922 10.7582L8.48596 11.4582C10.1102 11.4657 11.4499 10.1428 11.4594 8.52137L10.7594 8.51729ZM8.51138 6.2405C9.75186 6.24482 10.7666 7.27057 10.7594 8.51731L11.4594 8.52136C11.4688 6.88937 10.1435 5.54618 8.51381 5.5405L8.51138 6.2405ZM6.24078 8.48139C6.24798 7.24783 7.27145 6.23617 8.51137 6.2405L8.51382 5.5405C6.89025 5.53483 5.55026 6.85547 5.54079 8.47731L6.24078 8.48139ZM8.507 10.8035C9.78306 10.7995 10.8066 9.77338 10.8027 8.4966L10.1027 8.49875C10.1054 9.38767 9.39558 10.1007 8.50485 10.1035L8.507 10.8035ZM6.19416 8.5137C6.20398 9.78875 7.23048 10.8074 8.507 10.8035L8.50485 10.1035C7.61459 10.1062 6.901 9.39896 6.89414 8.50831L6.19416 8.5137ZM8.49926 6.19688C7.2157 6.19688 6.1863 7.22886 6.19416 8.51314L6.89415 8.50886C6.88867 7.61411 7.6027 6.89687 8.49926 6.89687V6.19688ZM10.8027 8.49714C10.8007 7.21919 9.77718 6.19884 8.4998 6.19688L8.49872 6.89687C9.39146 6.89824 10.1013 7.60713 10.1027 8.49821L10.8027 8.49714Z" fill="#A5A5A5"/>
</svg>
