<svg width="17" height="9" viewBox="0 0 17 9" fill="none" xmlns="http://www.w3.org/2000/svg">
<path d="M8.11668 6.55851C9.87706 4.82154 11.6104 3.11337 13.3438 1.4034C13.7038 1.0488 14.062 0.688811 14.4274 0.339617C14.8864 -0.099576 15.52 -0.112177 15.925 0.298217C16.3335 0.714009 16.3102 1.3314 15.8476 1.78859C13.5382 4.07276 11.227 6.35152 8.91227 8.62848C8.40108 9.13067 7.81069 9.12167 7.2959 8.61408C5.00454 6.35872 2.71497 4.10155 0.42721 1.84259C-0.0893814 1.3332 -0.139781 0.75361 0.288612 0.310817C0.722405 -0.137376 1.35779 -0.0959759 1.87799 0.417015C3.85975 2.36998 5.83972 4.32475 7.82149 6.27772C7.91149 6.36592 8.00329 6.45052 8.11668 6.55851Z" fill="white" fill-opacity="0.7"/>
</svg>
