<?xml version="1.0" encoding="utf-8"?>
<!-- Generator: Adobe Illustrator 25.2.1, SVG Export Plug-In . SVG Version: 6.00 Build 0)  -->
<svg version="1.1" id="Слой_1" xmlns="http://www.w3.org/2000/svg" xmlns:xlink="http://www.w3.org/1999/xlink" x="0px" y="0px"
	 viewBox="0 0 1080 1080" style="enable-background:new 0 0 1080 1080;" xml:space="preserve">
<style type="text/css">
	.st0{fill:#FFFFFF;}
</style>
<path class="st0" d="M666.5,601.5c14.9,34,29.4,67.1,44.9,102.6c-39.1-15.5-76.1-30.2-113.8-45.2c-18.9,67.6-37.6,134.5-56.2,201.4
	c-0.5,0-1.1,0.1-1.6,0.1c-18.7-66.9-37.4-133.9-56.3-201.5c-37.7,15-74.5,29.6-113.7,45.2C385.4,669,400,635.9,415,601.9
	c-64.1-22.6-127.7-45.1-193.3-68.2c65.4-19.2,128.9-37.9,193.2-56.8c-15-37.6-29.7-74.6-45.3-113.8c39,15.5,75.9,30.3,113.8,45.3
	c18.9-64,37.6-127.4,56.4-190.8c0.5-0.1,0.9-0.2,1.4-0.3c18.7,63.3,37.4,126.6,56.4,190.9c37.7-15.1,74.8-30,114.2-45.8
	c-15.5,39.1-30.2,76-45.3,113.8c64.2,19,127.8,37.8,193.3,57.1C794.4,556.4,731,578.8,666.5,601.5z"/>
</svg>
