<?xml version="1.0" encoding="utf-8"?>
<!-- Generator: Adobe Illustrator 25.2.1, SVG Export Plug-In . SVG Version: 6.00 Build 0)  -->
<svg version="1.1" id="Слой_1" xmlns="http://www.w3.org/2000/svg" xmlns:xlink="http://www.w3.org/1999/xlink" x="0px" y="0px"
	 viewBox="0 0 469 173" style="enable-background:new 0 0 469 173;" xml:space="preserve">
<g>
	<path d="M61,102.7v17.9H42.8v-17.9H61z"/>
	<path d="M106.1,122.6c-5.1,0-9.8-0.7-14.2-2c-4.3-1.3-8.1-3.2-11.2-5.7c-3.1-2.5-5.6-5.5-7.3-9.1c-1.7-3.6-2.6-7.6-2.6-12.1v-0.6
		h17.6c0,4.9,1.6,8.6,4.9,11.3c3.3,2.7,7.7,4,13.3,4c4.9,0,8.8-0.9,11.8-2.6c3-1.7,4.5-4.3,4.5-7.8c0-2.2-0.8-4.1-2.4-5.7
		c-1.6-1.5-3.8-2.8-6.5-3.8c-1.3-0.5-3.1-1-5.4-1.6c-2.3-0.6-5-1.3-8.3-2c-3.7-0.9-6.9-1.9-9.5-2.8c-2.6-1-4.9-2-6.7-3.1
		c-1.9-1.1-3.4-2.3-4.6-3.5c-1.2-1.3-2.3-2.6-3.2-4.1c-1.8-2.9-2.7-6.5-2.7-10.7c0-5.2,1.5-9.7,4.4-13.6c2.9-3.9,6.8-6.7,11.7-8.6
		c4.8-1.9,9.7-2.8,14.8-2.8s9.7,0.6,13.7,1.8c4.1,1.2,7.5,2.9,10.4,5.2c2.9,2.2,5.1,5,6.7,8.4c1.5,3.3,2.3,7.1,2.3,11.4h-17.6
		c-0.2-4.2-1.6-7.3-4.2-9.4c-2.6-2.1-6.6-3.1-12-3.1c-3.8,0-6.8,0.8-9.2,2.5c-2.3,1.7-3.5,4-3.5,6.9c0,2.4,0.7,4.1,2.1,5.2
		c1.4,1.1,3.5,2,6.1,2.9c1.3,0.4,3.1,0.9,5.4,1.5c2.3,0.6,5.1,1.4,8.4,2.2c3.5,0.9,6.5,1.7,9.1,2.6c2.6,0.9,4.9,1.9,6.8,2.9
		c1.9,1,3.6,2.2,5,3.5c1.4,1.3,2.6,2.7,3.5,4.2c1.9,3.1,2.9,7,2.9,11.6c0,5.3-1.4,10-4.2,14c-2.8,4-6.8,7.1-12.2,9.3
		c-2.7,1.1-5.5,1.9-8.5,2.4C112.7,122.3,109.5,122.6,106.1,122.6z"/>
	<path d="M165.3,60.6v7.7h0.2c3.9-6.2,9.9-9.3,17.9-9.3c4.2,0,7.9,0.8,11.3,2.3c3.3,1.5,6.2,3.7,8.6,6.4c2.4,2.8,4.2,6.2,5.5,10.1
		c1.3,4,1.9,8.5,1.9,13.4c0,4.5-0.6,8.6-1.9,12.5c-1.2,3.8-3,7.1-5.3,9.8c-2.3,2.7-5,4.8-8.3,6.4c-3.2,1.5-6.9,2.3-10.9,2.3
		c-7.9,0-13.9-3-18-9h-0.2v28.5h-16.5V60.6H165.3z M179.9,109.8c4.9,0,8.5-1.7,10.8-5.1c2.3-3.4,3.5-8,3.5-13.9
		c0-6-1.3-10.8-3.8-14.2c-2.5-3.4-6.1-5.2-10.7-5.2s-8.2,1.7-10.6,5.1c-2.4,3.4-3.6,8.2-3.6,14.3c0,5.9,1.2,10.5,3.7,13.9
		C171.7,108.1,175.3,109.8,179.9,109.8z"/>
	<path d="M238.4,122.2c-6.3,0-11.2-1.6-14.9-4.8c-3.7-3.2-5.5-7.6-5.5-13.2c0-2.8,0.4-5.2,1.2-7.4c0.8-2.1,2.2-4,4.1-5.5
		c1.9-1.5,4.4-2.8,7.6-3.8c3.2-1,7.1-1.7,11.7-2.1c3.3-0.3,6-0.7,8.2-1.2c2.1-0.5,3.6-1,4.5-1.5c1.8-1.1,2.7-2.7,2.7-4.8
		c0-2.7-0.8-4.7-2.4-6c-1.6-1.3-4.3-2-8.1-2c-3.5,0-6.1,0.7-7.9,2.1c-1.8,1.4-2.8,3.7-3.1,7h-16.5c0.4-6.6,3.1-11.6,8.1-15
		c5-3.4,11.8-5.1,20.2-5.1c17.5,0.1,26.2,5.8,26.2,17.1v31.8c0,5.8,0.7,10.1,2.1,12.8h-16.7c-0.3-0.9-0.6-1.9-0.8-2.8
		c-0.2-1-0.3-2-0.4-3C253.7,119.8,247,122.2,238.4,122.2z M234.4,103.6c0,1.7,0.6,3.2,1.7,4.3c1.2,1.2,2.5,2.1,4.1,2.6
		c1.5,0.5,3.1,0.8,4.6,0.8c0.5,0,1.3,0,2.5-0.1c1.2-0.1,2.7-0.6,4.4-1.6c1.7-1,3.2-2.5,4.4-4.4c1.2-1.9,1.7-4.4,1.7-7.4v-6.4
		c-1.4,1.4-4.7,2.4-10,2.9c-4.6,0.5-8,1.5-10.2,2.8C235.5,98.4,234.4,100.5,234.4,103.6z"/>
	<path d="M315.5,122.2c-4.4,0-8.5-0.8-12.2-2.3c-3.7-1.5-6.9-3.6-9.6-6.3c-2.7-2.7-4.8-5.9-6.3-9.7c-1.5-3.8-2.3-7.9-2.3-12.5
		c0-4.9,0.7-9.4,2.2-13.5c1.5-4,3.5-7.4,6.2-10.3c2.7-2.8,5.9-5,9.6-6.5c3.8-1.5,7.9-2.3,12.6-2.3c4.1,0,7.8,0.5,11.1,1.6
		c3.3,1.1,6.2,2.6,8.7,4.6c2.5,2,4.4,4.4,5.9,7.1c1.4,2.8,2.3,5.9,2.5,9.4h-16.1c-1.1-6.9-5.1-10.3-12.2-10.3
		c-4.4,0-7.8,1.8-10.3,5.3c-2.5,3.6-3.7,8.3-3.7,14.2c0,5.6,1.2,10.2,3.5,13.7c2.4,3.5,5.7,5.2,10.2,5.2c7.5,0,11.9-4.1,13.1-12.2
		h15.9c-1.1,8-4.1,14.1-9.2,18.3C330.2,120.1,323.6,122.2,315.5,122.2z"/>
	<path d="M381.4,122.2c-5.6,0-10.7-1.2-15.3-3.5c-4.6-2.4-8.4-6-11.1-11c-2.8-4.9-4.2-10.6-4.2-17.1c0-3,0.4-5.9,1.1-8.8
		c0.7-2.8,1.8-5.5,3.1-7.9c1.4-2.4,3-4.6,4.9-6.6c1.9-1.9,4.1-3.5,6.4-4.8c4.7-2.5,9.7-3.7,15.1-3.7c5.6,0,10.7,1.3,15.1,3.9
		c4.4,2.6,7.9,6.4,10.4,11.4c2.5,4.9,3.7,10.6,3.7,17.3c0,0.3,0,0.7,0,1.2c0,0.5,0,1.1-0.1,1.8h-43.3c0.2,4.9,1.4,8.6,3.8,11.3
		c2.4,2.6,6,3.9,10.8,3.9c3,0,5.8-0.8,8.3-2.3c2.5-1.5,4.1-3.3,4.8-5.5h14.5c-4.3,13.5-13.6,20.2-27.8,20.2
		C381.6,122.2,381.5,122.2,381.4,122.2z M394,84.2c-0.8-4.5-2.2-7.7-4.2-9.7c-2.1-2-5-3-9-3c-4,0-7.2,1.1-9.5,3.4
		c-2.3,2.3-3.7,5.4-4.1,9.3H394z"/>
</g>
</svg>
