<?xml version="1.0" encoding="utf-8"?>
<!-- Generator: Adobe Illustrator 25.2.1, SVG Export Plug-In . SVG Version: 6.00 Build 0)  -->
<svg version="1.1" id="Слой_1" xmlns="http://www.w3.org/2000/svg" xmlns:xlink="http://www.w3.org/1999/xlink" x="0px" y="0px"
	 viewBox="0 0 1080 1080" style="enable-background:new 0 0 1080 1080;" xml:space="preserve">
<style type="text/css">
	.st0{fill:#FFFFFF;stroke:#FFFFFF;stroke-width:13;}
</style>
<g>
	<path class="st0" d="M540,994.3c-52.5,0-105,0.9-157.5-0.3c-49.7-1.1-98.6-8.7-144.9-28.2c-71.8-30.3-114.9-85.1-135.4-159.1
		C89.5,761.2,85.6,714.6,86,667.6c0.1-18.8,12.5-32,30.1-32.6c17.4-0.6,31.2,11.9,32.4,30.5c1.4,20.7,0.3,41.8,3.3,62.3
		c3.9,26.6,8.4,53.6,16.7,79.1c19.1,59.1,61.7,94.2,120.8,110.7c38.5,10.7,77.8,14.3,117.6,14.3c97.1-0.1,194.2,0.1,291.3-0.7
		c33.1-0.3,65.6-5.5,97.5-15c63.6-19,103.3-60.8,121.2-124.4c11.8-42.1,14.5-85.1,14.5-128.5c0-66.7-0.1-133.5,0.1-200.2
		c0-6.2,0.5-12.7,2.5-18.5c4.6-13.6,19-21.6,33-19.5c15.6,2.3,26.5,13.9,27,29.4c0.4,13.9,0.2,27.7,0.2,41.6
		c0,63.1,0.2,126.2-0.3,189.3c-0.4,48.8-6.4,96.8-22.8,143c-29.3,82.1-88.4,130.6-171.6,152c-44.1,11.3-89.1,14.5-134.5,14.4
		c-41.6-0.1-83.2,0-124.8,0C540,994.6,540,994.5,540,994.3z"/>
	<path class="st0" d="M499,86.5c41.6,0,83.2-0.1,124.8,0.1c15.1,0.1,26.8,8.8,30.7,21.9c4,13.6-0.8,28.7-13.2,35.2
		c-6.7,3.5-15,5.3-22.6,5.3c-79.2,0.6-158.5,0-237.7,1.1c-43.1,0.6-85.4,7.7-125.2,25.8c-49.5,22.5-78.1,62.2-92.6,113.3
		c-10.2,35.8-14,72.5-14.3,109.6c-0.2,32,0,64.1-0.3,96.1c-0.2,24.2-18.7,39.3-40.2,33.4c-11.5-3.2-21.9-13.6-21.9-25.4
		c-0.2-73.8-5.1-148,13.6-220.7c15.2-59.2,44-109.4,95.6-144.3c38-25.7,80.5-40.7,125.5-44.8c59.1-5.3,118.5-6.5,177.8-9.5
		C498.9,84.7,499,85.6,499,86.5z"/>
	<path class="st0" d="M834.9,403c-79.5-1.3-147.5-61.2-155.9-137.5c-9.3-83.9,41.9-157.1,123.2-175.3c11.2-2.5,22.9-3.3,34.3-3.4
		c16.4-0.2,29.3,12.3,30.4,27.9c1.3,17.4-9.2,31.1-26.4,33.8c-8.8,1.4-17.8,1.4-26.4,3.3c-49.1,10.9-80.1,58-72.2,109.2
		c7.1,46.3,52.6,82.6,99.2,79c51.7-4,90.5-44.8,89.8-95.2c-0.1-10.4-2.3-21-5-31c-5.2-19.1,2.4-36.2,19.6-41.7
		c17.4-5.6,33.7,3.4,40.2,22.2C1020.8,296.2,942.5,404.7,834.9,403z"/>
	<path class="st0" d="M519.2,720.8c62.8,0,125.5-0.1,188.3,0.1c20.2,0,33.5,13.6,32.8,32.8c-0.5,14.1-10.3,25.9-24.2,28.8
		c-3.5,0.7-7.2,1.1-10.8,1.1c-124.2,0.1-248.4,0.1-372.5,0c-17.9,0-30.4-8.5-34.3-22.8c-5.6-20.6,8.7-39.7,30.5-39.8
		c44.3-0.3,88.5-0.1,132.8-0.1C480.8,720.8,500,720.8,519.2,720.8z"/>
	<path class="st0" d="M433.6,614.1c-34,0-68,0.1-102,0c-20.5-0.1-34.6-13-34.5-31.3c0.1-17.9,14-31.3,33.8-31.3
		c69-0.2,138-0.2,207,0c19.8,0.1,33.6,13.7,33.5,31.6c-0.1,18-14.1,31-33.8,31.1C502.9,614.2,468.3,614.1,433.6,614.1z"/>
</g>
</svg>
