<?xml version="1.0" encoding="utf-8"?>
<!-- Generator: Adobe Illustrator 25.2.1, SVG Export Plug-In . SVG Version: 6.00 Build 0)  -->
<svg version="1.1" id="Capa_1" xmlns="http://www.w3.org/2000/svg" xmlns:xlink="http://www.w3.org/1999/xlink" x="0px" y="0px"
	 viewBox="0 0 334.4 334.4" style="enable-background:new 0 0 334.4 334.4;" xml:space="preserve">
<style type="text/css">
	.st0{fill:#FFFFFF;stroke:#FFFFFF;stroke-width:16;stroke-miterlimit:10;}
</style>
<path class="st0" d="M33.4,177.4c8.9,0,17.7,0,27,0c0-1.1,0-2,0-2.9c0-9.6,0-19.1,0-28.7c0-1.8,0.4-2.7,2.3-3.4
	c14.4-5.5,28.6-11,43-16.6c1-0.4,2-0.8,3-1c2.5-0.5,4.8,0.8,5.7,3.1c0.9,2.3,0.1,4.7-2,6.1c-0.8,0.5-1.7,0.9-2.6,1.2
	c-12.2,4.7-24.4,9.5-36.7,14.2c-1.8,0.7-2.5,1.6-2.4,3.6c0.1,7.2,0,14.4,0.1,21.6c0,0.8,0.1,1.7,0.1,2.8c1.2,0,2.2,0,3.2,0
	c21.3,0,42.6,0,63.9,0c1.6,0,3.2,0.6,5.2,1c37.8-36.2,88.2-29.8,116.5-10.3c31.8,22,43.8,58,40.2,85.7c-38.9,0-77.9,0-117.2,0
	c0,12.5,0,24.7,0,37.2c-1.4,0-2.5,0-3.6,0c-47.4,0-94.7,0-142.1,0c-1.1,0-2.3,0-3.4,0C33.4,253.2,33.4,215.3,33.4,177.4z
	 M172.1,280.6c0.1-0.6,0.1-0.9,0.1-1.3c0-17.5,0-34.9-0.1-52.4c0-1-0.7-2.3-1.4-3.1c-10.8-11.5-21.6-22.8-32.4-34.3
	c-1.2-1.3-2.4-1.9-4.3-1.9c-29.1,0.1-58.2,0-87.3,0c-0.9,0-1.8,0-2.7,0c0,31.2,0,62,0,92.9C86.7,280.6,129.3,280.6,172.1,280.6z
	 M149.6,186.6c1,1.1,1.9,2,2.8,2.9c9.6,10.1,19.1,20.2,28.6,30.3c0.8,0.9,1.4,2.4,1.4,3.6c0.1,5.7,0.1,11.5,0.1,17.2
	c0,0.9,0.1,1.8,0.1,2.7c36,0,71.6,0,107.3,0c0.2-27.7-16.6-59.8-50-74.2C209.2,156,173.4,162.9,149.6,186.6z"/>
<path class="st0" d="M265.8,89c-1,33.9-27.3,58.7-61.3,57.7c-30.4-0.9-55.8-28.2-55-58.9c0.8-32.8,27.5-57.7,58.9-57.2
	C241.6,31.1,265.8,57.9,265.8,89z M207.6,136.4c26.6,0,48-21.5,48-48.1c0-26.1-21.7-47.6-48-47.5c-26.4,0.1-47.9,21.8-47.8,48.1
	C159.9,114.9,181.5,136.4,207.6,136.4z"/>
</svg>
