<?xml version="1.0" encoding="utf-8"?>
<!-- Generator: Adobe Illustrator 25.2.1, SVG Export Plug-In . SVG Version: 6.00 Build 0)  -->
<svg version="1.1" id="Слой_1" xmlns="http://www.w3.org/2000/svg" xmlns:xlink="http://www.w3.org/1999/xlink" x="0px" y="0px"
	 viewBox="0 0 633 647.6" style="enable-background:new 0 0 633 647.6;" xml:space="preserve">
<style type="text/css">
	.st0{fill:#FFFFFF;}
</style>
<path class="st0" d="M574.8,236.6c-3.6,12.5-12,20.9-22.6,28c-36.3,24.5-72.3,49.4-108.6,74.1c-2.8,1.9-3.7,3.6-2.9,7.2
	c6.9,31.9,4.4,63.2-7.6,93.6c-1.2,3.1-0.3,4.7,1.8,6.8c39.1,38.9,78.1,77.9,117,117c1.9,1.9,3.9,4.3,4.8,6.8
	c1.6,4.5-0.7,9.2-4.8,11.5s-8.9,1.5-12.7-2.3c-10.1-10-20-20-30-30C368.4,408.6,227.7,267.9,87,127.2c-6.8-6.8-7.8-12.3-3-17.3
	c4.9-5,10.6-4.1,17.6,3c38.4,38.5,76.8,76.9,115,115.5c2.7,2.7,4.6,2.9,8.1,1.5c29.4-11.7,59.7-14.5,90.7-8.1c3.7,0.8,5.3-0.2,7.3-3
	c25.9-36.3,52.1-72.5,77.9-108.9c7.1-10,15.2-18,27.3-21.3c3,0,6,0,9,0c6.6,2,11.4,6.4,16.1,11.2c36,36.4,72.1,72.8,108.3,109.1
	c5.8,5.8,11.3,11.6,13.7,19.7C574.8,231.3,574.8,234,574.8,236.6z"/>
<path class="st0" d="M62.8,587.6c10.9-14.1,21.7-28.2,32.7-42.2c44.3-56.3,88.6-112.5,133-168.7c1-1.3,2.1-2.5,2.9-3.4
	c19.4,19.5,38.7,38.7,58.2,58.3c-2,1.6-4.4,3.6-6.9,5.6c-66.4,52.7-132.8,105.4-199.2,158c-2.5,2-5.1,3.7-7.7,5.5c-4.3,0-8.7,0-13,0
	C62.8,596.3,62.8,592,62.8,587.6z"/>
<path class="st0" d="M183,252.9c75.6,75.6,150.8,150.8,226.6,226.6c-4.2,4.6-8.5,9.9-13.3,14.6c-4.7,4.6-9.9,4.2-15-0.9
	c-11.3-11.1-22.4-22.4-33.6-33.6c-59-59.1-118-118.2-176.9-177.2c-7.9-7.9-7.8-11.7,0.5-19.4C175.3,259.5,179.4,256.1,183,252.9z"/>
</svg>
