<?xml version="1.0" encoding="utf-8"?>
<!-- Generator: Adobe Illustrator 25.2.1, SVG Export Plug-In . SVG Version: 6.00 Build 0)  -->
<svg version="1.1" id="Слой_1" xmlns="http://www.w3.org/2000/svg" xmlns:xlink="http://www.w3.org/1999/xlink" x="0px" y="0px"
	 viewBox="0 0 1080 1080" style="enable-background:new 0 0 1080 1080;" xml:space="preserve">
<style type="text/css">
	.st0{fill:#FFFFFF;stroke:#FFFFFF;stroke-width:19;stroke-miterlimit:10;}
</style>
<path class="st0" d="M462.5,655.7c27.5,0,55.7-0.5,83.9,0.2c14,0.4,20.1-4.1,18.9-18.7c-1-12-0.1-24.2-0.2-36.2
	c-0.1-14,6.4-21.4,20.8-21.4c35,0.1,70.1,0,105.1,0.1c13.4,0,19.8,6.7,19.5,20.3c-0.3,13.3,0.3,26.6,0,39.9
	c-0.3,11.6,4.9,16.3,16.4,16c15.7-0.5,31.5-0.8,47.1,0.1c14.9,0.9,19.9-4.7,19.8-19.7c-0.6-77.4-0.3-154.7-0.3-232.1
	c0-27.2-0.3-54.4,0.1-81.6c0.2-10.6-3.3-15-14.5-15c-131.7,0.3-263.4,0.3-395.2,0c-10.9,0-15.3,3.6-14.7,14.6
	c0.7,12.4,0.2,24.8,0.2,37.8c-21.3-5.5-40-9.7-58.2-15.6c-4.6-1.5-9.9-8.4-10.4-13.2c-1.4-13.8-1.2-27.8-0.2-41.6
	c2.5-34.8,28-54.3,70.6-54.4c133.5-0.1,267.1,0,400.6,0c8.5,0,16.9-0.2,25.4,0c44.2,1.2,68.2,23,68.6,67.1c1,118.4,1,236.9,0,355.4
	c-0.4,47.3-22.9,67.3-70.5,67.3c-88.8,0-177.6-0.2-266.5,0.3c-13.1,0.1-20.2-4.1-27.1-15.6C490.6,690.8,476.1,673.9,462.5,655.7z"/>
<path class="st0" d="M295.3,840.9c-42.9,0-85.8-0.1-128.6,0c-61.1,0.3-60.6-26.3-52.9-66.9c12.5-66.2,62.4-111.8,132.1-116.8
	c44-3.2,89.8-1.8,132.9,6.9c63.3,12.8,106.5,77.3,103.6,141.7c-0.8,17.5-9.1,29.1-26.4,31.6c-16,2.3-32.3,3.1-48.5,3.3
	C370.2,841.2,332.8,840.9,295.3,840.9z"/>
<path class="st0" d="M297.5,390.2c62.9,0.3,109.5,47.6,109.1,110.7c-0.5,62.9-48,109.3-111.1,108.6
	c-62.1-0.7-108.3-47.5-108.2-109.8C187.3,436.9,234.5,390,297.5,390.2z"/>
</svg>
