<?xml version="1.0" encoding="utf-8"?>
<!-- Generator: Adobe Illustrator 25.2.1, SVG Export Plug-In . SVG Version: 6.00 Build 0)  -->
<svg version="1.1" id="Слой_1" xmlns="http://www.w3.org/2000/svg" xmlns:xlink="http://www.w3.org/1999/xlink" x="0px" y="0px"
	 viewBox="0 0 1080 1080" style="enable-background:new 0 0 1080 1080;" xml:space="preserve">
<style type="text/css">
	.st0{fill:#FFFFFF;stroke:#FFFFFF;stroke-width:19;stroke-miterlimit:10;}
</style>
<path class="st0" d="M498.8,725.6c36.4,0,73.6-0.7,110.9,0.3c18.5,0.5,26.6-5.4,25-24.7c-1.3-15.9-0.1-32-0.3-47.9
	c-0.1-18.5,8.5-28.3,27.5-28.3c46.3,0.1,92.7,0,139,0.1c17.7,0,26.2,8.9,25.8,26.8c-0.4,17.6,0.4,35.2,0,52.8
	c-0.4,15.3,6.5,21.6,21.7,21.2c20.8-0.7,41.6-1.1,62.3,0.1c19.7,1.2,26.3-6.2,26.2-26c-0.8-102.3-0.4-204.5-0.4-306.9
	c0-36-0.4-71.9,0.1-107.9c0.3-14-4.4-19.8-19.2-19.8c-174.1,0.4-348.3,0.4-522.5,0c-14.4,0-20.2,4.8-19.4,19.3
	c0.9,16.4,0.3,32.8,0.3,50c-28.2-7.3-52.9-12.8-76.9-20.6c-6.1-2-13.1-11.1-13.8-17.5c-1.9-18.2-1.6-36.8-0.3-55
	c3.3-46,37-71.8,93.3-71.9c176.5-0.1,353.1,0,529.7,0c11.2,0,22.3-0.3,33.6,0c58.4,1.6,90.2,30.4,90.7,88.7
	c1.3,156.5,1.3,313.2,0,469.9c-0.5,62.5-30.3,89-93.2,89c-117.4,0-234.8-0.3-352.4,0.4c-17.3,0.1-26.7-5.4-35.8-20.6
	C536,772,516.8,749.6,498.8,725.6z"/>
<path class="st0" d="M277.8,970.4c-56.7,0-113.4-0.1-170,0C27,970.8,27.6,935.6,37.8,882c16.5-87.5,82.5-147.8,174.7-154.4
	c58.2-4.2,118.7-2.4,175.7,9.1c83.7,16.9,140.8,102.2,137,187.3c-1.1,23.1-12,38.5-34.9,41.8c-21.2,3-42.7,4.1-64.1,4.4
	C376.8,970.8,327.4,970.4,277.8,970.4z"/>
<path class="st0" d="M280.7,374.5c83.2,0.4,144.8,62.9,144.2,146.4C424.3,604,361.5,665.4,278,664.5
	c-82.1-0.9-143.2-62.8-143.1-145.2C135,436.3,197.4,374.3,280.7,374.5z"/>
</svg>
