<?xml version="1.0" encoding="utf-8"?>
<!-- Generator: Adobe Illustrator 25.2.1, SVG Export Plug-In . SVG Version: 6.00 Build 0)  -->
<svg version="1.1" id="Слой_1" xmlns="http://www.w3.org/2000/svg" xmlns:xlink="http://www.w3.org/1999/xlink" x="0px" y="0px"
	 viewBox="0 0 1080 1080" style="enable-background:new 0 0 1080 1080;" xml:space="preserve">
<style type="text/css">
	.st0{fill:#FFFFFF;stroke:#FFFFFF;stroke-width:10;stroke-miterlimit:10;}
</style>
<path class="st0" d="M367.6,45.8c11.7,2.1,23.6,3.7,35.2,6.3c109.5,25,189.7,115.8,199.9,227c6.6,71.2-13,135.1-59.7,188.9
	c-65.8,75.8-150,106.4-248.4,85.8c-96-20.1-160-80.3-192.2-173c-5.7-16.5-7.4-34.4-11-51.7c-0.4-1.9-1-3.8-1.5-5.7
	c0-13.7,0-27.4,0-41.1c0.5-2.5,1.3-4.9,1.6-7.4c9.6-100.6,86.4-192.2,184-218.6c16.7-4.5,33.9-7,50.9-10.4
	C340.2,45.8,353.9,45.8,367.6,45.8z M346.7,474.2c94,0.2,171.4-76.6,171.8-170.5c0.4-96.8-77.4-174.1-176.9-172
	c-90.2,1.9-163.2,74.6-165.6,165.2C173.3,395.6,250.4,474.1,346.7,474.2z"/>
<path class="st0" d="M218.9,622.5c28.3,7.3,56.1,14.6,84.9,22c0,84.4,0,170.6,0,257.4c200.2,0,399.6,0,599.8,0
	c0-142.1,0-284.4,0-427.6c-86.3,0-172.3,0-257.7,0c11.5-28.4,22.9-56.2,34.8-85.4c72.5,0,147.2,0,222.7,0c0-28.8,0-56.8,0-85.9
	c-70.7,0-141.6,0-211.6,0c-3.8-29.2-7.5-57.3-11.3-86c31,0,62.6,0,94.8,0c0-28.6,0-56.5,0-85c28.7,0,56.8,0,85.8,0c0,28,0,56.1,0,85
	c13.4,0,25.9,0,38.4,0c53.7-0.1,90.3,36.4,90.3,90.3c0,183.6,0,367.3,0,550.9c0,19.1,1.3,38.5-1.4,57.3c-6.3,43.7-41.8,72.5-86,72.5
	c-186.8,0-373.6,0.2-560.4,0.2c-17.9,0-36.1,0.7-53.8-1.9c-38.3-5.7-69.1-40.6-69.4-79.2c-0.6-94.5-0.2-189.1-0.2-283.6
	C218.6,623.1,218.9,622.5,218.9,622.5z"/>
<path class="st0" d="M445.6,358.6c-12.9,14.3-25.4,28.3-37.3,41.6c-31.6-31.6-62.8-62.9-94.5-94.6c23.3-39.8,47.4-80.8,71.9-122.6
	c15.7,8.6,31,16.9,47.1,25.7c-17.2,30.2-34.1,59.8-51.3,90C402.7,318.5,423.9,338.3,445.6,358.6z"/>
</svg>
