<?xml version="1.0" encoding="utf-8"?>
<!-- Generator: Adobe Illustrator 25.2.1, SVG Export Plug-In . SVG Version: 6.00 Build 0)  -->
<svg version="1.1" id="Слой_1" xmlns="http://www.w3.org/2000/svg" xmlns:xlink="http://www.w3.org/1999/xlink" x="0px" y="0px"
	 viewBox="0 0 1080 1080" style="enable-background:new 0 0 1080 1080;" xml:space="preserve">
<style type="text/css">
	.st0{fill:#FFFFFF;stroke:#FFFFFF;stroke-width:31;}
</style>
<path class="st0" d="M807.6,903.3c-6.2-3.2-11.3-5.1-15.6-8.1c-28.8-20-57.5-40-85.9-60.4c-5.5-4-9.6-4.6-16.2-1.5
	c-16.3,7.8-33.2,14.5-50.1,21c-5.1,2-7.5,4.2-8.4,9.8c-6,35.4-12.4,70.8-18.8,106.2c-2.5,13.9-8.5,19.6-22.4,19.7
	c-34.1,0.2-68.1,0.2-102.2,0c-13.9-0.1-20.4-6.1-22.6-19.6c-5.8-35.1-11.7-70.3-17.3-105.5c-0.9-5.7-3.3-8.5-8.9-10.6
	c-17.5-6.6-34.6-14.5-52-21.2c-3.3-1.3-8.8-0.9-11.6,1c-28.9,19.7-57.5,40-86.2,60c-14.9,10.4-21.9,9.7-34.9-3.3
	c-22.5-22.5-45-45-67.5-67.6c-12.1-12.1-12.7-19.5-2.8-33.4c20.3-28.5,40.6-57.1,61.2-85.4c3.3-4.5,3.1-7.8,0.9-12.7
	c-7.6-17.1-14.7-34.5-21.5-51.9c-1.9-4.9-3.9-7.6-9.6-8.6c-35.4-5.9-70.8-12.4-106.2-18.7c-12.6-2.3-18.7-8.5-18.8-21.2
	c-0.3-35-0.3-70.1,0-105.1c0.1-12.1,6.3-18.7,18.3-20.7c35.1-5.9,70.3-11.8,105.4-17.3c6.1-1,8.9-3.4,11.1-9.4
	c6.4-17.2,13.6-34.3,21.3-51c2.5-5.4,2.2-8.9-1.1-13.6c-20.3-28.5-40.3-57.3-60.3-86c-9.4-13.5-8.8-21.1,2.9-32.8
	c23.2-23.2,46.4-46.4,69.6-69.5c10.9-10.8,18.7-11.6,31.2-2.8c29.1,20.6,58.1,41.4,87,62.2c3.9,2.8,6.9,3.9,11.9,1.6
	c17.4-7.8,35.2-14.5,52.6-22.3c3.3-1.5,7.2-5.4,7.8-8.8c6.2-35.4,11.8-70.9,17.6-106.4C467.6,96,474.1,90,488,89.9
	c34.1-0.2,68.1-0.2,102.2,0c14,0.1,20.1,5.8,22.5,19.6c6.3,35.4,12.7,70.8,18.6,106.2c0.9,5.5,3.1,7.8,8.3,9.8
	c17.5,6.7,34.8,13.9,51.8,21.7c5.2,2.4,8.4,1.9,12.8-1.3c28.3-20.6,56.8-41,85.2-61.4c14.3-10.3,21.7-9.8,34.2,2.6
	c22.8,22.7,45.5,45.4,68.2,68.2c12,12,12.6,19.4,2.8,33.5c-20.1,28.7-40.1,57.4-60.5,85.9c-3.9,5.5-3.8,9.4-1.1,15.4
	c7.4,16.2,14,32.7,20.3,49.3c2.1,5.4,4.7,7.9,10.6,8.8c35.8,5.5,71.6,11.4,107.4,17.3c12,2,18.3,8.6,18.4,20.7
	c0.3,35,0.3,70.1,0,105.1c-0.1,12.7-6,19-18.8,21.3c-35.7,6.4-71.4,12.8-107.1,18.7c-6,1-8.4,3.6-10.5,8.9
	c-6.5,16.9-13.3,33.6-20.7,50.2c-2.4,5.3-2.4,8.9,1.1,13.7c20.5,28,40.7,56.2,60.9,84.4c11.2,15.5,10.7,22.4-2.5,35.6
	c-22.7,22.8-45.3,45.7-68.3,68.2C819.4,896.7,813.3,899.5,807.6,903.3z M224.4,276.3c1.5,2.2,3.4,5.1,5.4,7.9
	c18.6,26.6,37.1,53.3,55.9,79.7c6.2,8.7,7.3,17.2,1.6,26.5c-14.4,23.8-24.9,49.4-31.8,76.3c-2.6,10.3-9,15.7-19.1,17.3
	c-12.6,2.1-25.1,4.1-37.7,6.2c-23.1,3.8-46.2,7.7-69.1,11.5c0,25.4,0,49.8,0,74.2c2.6,0.7,4.7,1.4,6.9,1.8
	c32.9,5.8,65.7,11.8,98.6,17.4c11,1.8,16.8,7.6,20.6,18.2c8.8,24.1,17.9,48.2,29.3,71.2c6.6,13.3,6.7,23-2.2,34.8
	c-20.6,27.5-40.1,55.7-59.1,82.3c18,18.1,35.4,35.5,53.1,53.4c28.7-20.1,58.2-40.5,87.5-61.3c8.9-6.3,17.3-6.8,26.6-1.3
	c23.4,13.9,48.2,24.3,74.6,30.8c10.9,2.7,16.9,9.3,18.5,20.3c1.9,12.9,4.1,25.8,6.2,38.6c3.8,22.8,7.7,45.5,11.5,68
	c25.5,0,49.8,0,74.2,0c0.7-2.4,1.3-4.2,1.7-6c5.9-33.5,12-67,17.6-100.5c1.8-11,7.3-17.9,18.2-20.6c26.4-6.6,51.2-17.2,74.5-31.1
	c9.3-5.6,17.8-5.2,26.6,1.1c15,10.8,30.2,21.3,45.3,31.8c14.8,10.4,29.6,20.7,43.4,30.4c18.1-17.9,35.4-35.1,53.1-52.7
	c-1.8-2.6-3.9-5.7-6.1-8.8c-19.1-26.6-38.2-53.3-57.5-79.8c-6.1-8.4-6.6-16.7-1.3-25.7c14-23.7,24.5-48.9,31.2-75.6
	c2.6-10.2,8.9-15.6,19.1-17.3c19.1-3.2,38.2-6.5,57.3-9.9c17.1-3,34.2-6.1,51-9.2c0-25.5,0-49.9,0-74.6
	c-36-5.8-71.4-11.7-106.9-17.3c-10.9-1.7-17-7.2-20.9-17.9c-9.4-25.2-19.8-50.1-30.8-74.7c-4.4-9.8-4.8-17.9,1.5-26.6
	c10.4-14.4,20.5-29.1,30.8-43.7c10.7-15.3,21.4-30.7,31.7-45.3c-18-17.9-35.3-35.1-53-52.7c-2.5,1.7-5.6,3.8-8.7,6
	c-26.4,18.9-52.8,37.7-79.1,56.8c-8.4,6.1-16.6,7.4-25.7,2c-24.2-14.4-49.9-25.2-77.2-32.1c-9.8-2.5-14.9-8.9-16.5-18.7
	c-1.8-11.3-3.8-22.6-5.8-33.8c-4.3-24.7-8.7-49.4-13.1-74.3c-25.1,0-49.5,0-74.6,0c-5.8,35.7-11.7,71.1-17.3,106.6
	c-1.6,10.1-6.1,17.1-16.5,19.7c-27.6,7-53.7,17.6-78.2,32.2c-8.4,5-16.3,4.1-24-1.5c-9.5-6.9-19.1-13.7-28.7-20.6
	c-20.1-14.4-40.3-28.8-59.7-42.6C259.5,241.2,242.2,258.5,224.4,276.3z"/>
<path class="st0" d="M539.2,696.5c-86.1-0.3-156.3-71.4-155.8-157.8c0.5-85.7,71.4-155.7,157.3-155.4
	c86.1,0.3,156.3,71.4,155.8,157.8C696,626.8,625.1,696.9,539.2,696.5z M540.3,657.2c65-0.2,117-52.4,116.8-117.4
	c-0.1-65.1-52.1-117-117.2-117.1c-65.4,0-117.7,52.5-117.3,117.9C423.1,605.6,475.3,657.4,540.3,657.2z"/>
</svg>
