<svg width="19" height="19" viewBox="0 0 19 19" fill="none" xmlns="http://www.w3.org/2000/svg">
<path d="M16.8932 18.6068C16.5914 18.5148 16.3818 18.3012 16.1701 18.0817C14.8906 16.7453 13.6071 15.4129 12.3237 14.0804C12.2806 14.0354 12.2374 13.9883 12.1924 13.9394C10.2838 15.2013 8.23225 15.5559 6.04351 14.9054C4.42105 14.4233 3.13367 13.4475 2.19899 12.0386C0.174845 8.99165 0.76465 4.99233 3.58239 2.64879C6.26297 0.418891 10.0409 0.475716 12.6685 2.66838C13.6424 3.48157 14.3478 4.49266 14.7887 5.68207C15.2257 6.86756 15.3256 8.09028 15.1081 9.33456C14.8886 10.5828 14.3654 11.6957 13.5503 12.6774C13.6365 12.7676 13.7129 12.8499 13.7933 12.9322C15.0885 14.2783 16.3818 15.6226 17.677 16.9687C18.0806 17.388 18.1139 17.9445 17.7318 18.3149C17.5986 18.4442 17.4046 18.5108 17.2381 18.6049C17.1224 18.6069 17.0068 18.6068 16.8932 18.6068ZM8.11665 2.86237C5.23032 2.85649 2.87306 5.20788 2.86326 8.104C2.85346 10.9923 5.23032 13.3731 8.11665 13.3613C11.0167 13.3495 13.3602 11.004 13.3602 8.11184C13.3602 5.22159 11.0088 2.86629 8.11665 2.86237Z" fill="#B4B4B4" stroke="#B4B4B4" stroke-width="0.5"/>
</svg>
