<svg width="18" height="18" viewBox="0 0 18 18" fill="none" xmlns="http://www.w3.org/2000/svg">
<path d="M4.05935 13.9436C4.08053 13.8612 4.09936 13.7883 4.12054 13.7153C4.14642 13.6236 4.17702 13.5341 4.20526 13.4424C4.24761 13.3082 4.28997 13.1717 4.33233 13.0376C4.35351 12.9717 4.37469 12.9058 4.39116 12.8376C4.42881 12.6799 4.46176 12.5199 4.49706 12.3622C4.51353 12.2869 4.53471 12.2093 4.54177 12.1316C4.54412 12.101 4.5253 12.0563 4.50177 12.0351C4.28291 11.8445 4.06406 11.6539 3.8405 11.468C3.6546 11.3127 3.46634 11.1597 3.27337 11.0115C3.12747 10.9009 2.97451 10.7973 2.8239 10.6938C2.65211 10.5738 2.48032 10.4514 2.30618 10.3337C2.14616 10.2278 1.98614 10.1243 1.82141 10.0231C1.64021 9.91014 1.45901 9.79954 1.27546 9.69599C1.08249 9.58539 0.882469 9.48656 0.687149 9.38066C0.529481 9.29594 0.36946 9.20887 0.214146 9.11945C0.145902 9.07944 0.0800105 9.03002 0 8.9759C0.115309 8.91236 0.214146 8.85588 0.312982 8.80411C0.538894 8.6841 0.764806 8.56643 0.988364 8.44407C1.20016 8.3264 1.41195 8.20403 1.62139 8.07931C1.81906 7.96165 2.01203 7.83928 2.20499 7.71456C2.37208 7.60866 2.53445 7.49571 2.69682 7.38275C2.8592 7.26979 3.01922 7.15213 3.17689 7.03212C3.34867 6.90504 3.51811 6.77561 3.68519 6.64618C3.78638 6.56853 3.88757 6.48616 3.9864 6.4038C4.14878 6.26496 4.31115 6.12612 4.46882 5.98257C4.55118 5.90726 4.56295 5.79195 4.52765 5.68606C4.49235 5.58252 4.47353 5.47427 4.44764 5.36837C4.42411 5.27895 4.39822 5.18952 4.37234 5.10245C4.3488 5.02244 4.32527 4.94243 4.30174 4.86242C4.25703 4.71652 4.21232 4.57062 4.16996 4.42472C4.13466 4.30705 4.10642 4.18704 4.07112 4.0529C4.14642 4.07173 4.21938 4.0835 4.28762 4.10703C4.36528 4.13056 4.43823 4.16821 4.51588 4.18939C4.7065 4.24352 4.90182 4.29058 5.09243 4.34235C5.24539 4.38471 5.39365 4.43413 5.54661 4.47884C5.62191 4.50002 5.69722 4.51885 5.77487 4.53061C5.86194 4.54473 5.9396 4.53767 6.00314 4.45766C6.16081 4.26234 6.32789 4.07408 6.48791 3.87876C6.64322 3.69286 6.79854 3.5046 6.94679 3.31398C7.05975 3.16573 7.16564 3.01277 7.27389 2.85981C7.35861 2.73744 7.44568 2.61742 7.52804 2.4927C7.63865 2.32797 7.7516 2.16795 7.85514 1.99852C8.02693 1.72319 8.19637 1.4455 8.35874 1.16311C8.48582 0.939556 8.60112 0.706584 8.72114 0.480672C8.80115 0.332418 8.88116 0.184163 8.96352 0.035908C8.99176 -0.0135102 9.02942 -0.0111569 9.0553 0.0382614C9.21768 0.339477 9.3777 0.643046 9.54242 0.944262C9.64832 1.13958 9.76128 1.33255 9.87423 1.52551C9.99189 1.72554 10.1119 1.92557 10.239 2.12089C10.3543 2.29973 10.479 2.47152 10.599 2.64566C10.7002 2.79156 10.7991 2.93982 10.9026 3.08337C11.0179 3.24103 11.1379 3.39635 11.2579 3.54931C11.3544 3.67403 11.4556 3.7964 11.5568 3.91642C11.7145 4.10232 11.8721 4.28823 12.0322 4.46943C12.0933 4.54003 12.1969 4.54944 12.2887 4.51649C12.3804 4.48355 12.4769 4.46237 12.5734 4.43884C12.6817 4.4106 12.7899 4.38001 12.8982 4.35177C12.9735 4.33059 13.0488 4.31411 13.1241 4.29294C13.3123 4.24116 13.5029 4.18704 13.6912 4.13056C13.7665 4.10938 13.8371 4.07879 13.9101 4.0529C13.9195 4.05055 13.9312 4.05761 13.9501 4.06232C13.9053 4.19645 13.8606 4.32823 13.8206 4.46002C13.783 4.57768 13.7524 4.70005 13.7124 4.81771C13.6794 4.91419 13.6347 5.00362 13.5994 5.09775C13.5547 5.21541 13.5147 5.33542 13.4723 5.45544C13.4488 5.52368 13.4276 5.59193 13.397 5.65782C13.357 5.74724 13.3617 5.81313 13.4347 5.87667C13.7477 6.14494 14.0607 6.41557 14.3807 6.67678C14.609 6.86268 14.8419 7.04388 15.082 7.21567C15.3102 7.3804 15.5479 7.53571 15.7856 7.68867C16.0562 7.86517 16.3268 8.03931 16.6045 8.20403C16.8422 8.34523 17.0869 8.4723 17.3293 8.60409C17.5505 8.7241 17.7741 8.84176 18 8.96413C17.9223 9.07944 17.8 9.12416 17.6894 9.18534C17.3787 9.35477 17.0634 9.51479 16.7551 9.68894C16.5269 9.81836 16.3104 9.96191 16.0868 10.1008C15.875 10.2325 15.6632 10.3667 15.4538 10.5032C15.322 10.5902 15.1996 10.6867 15.0726 10.7785C14.9078 10.8985 14.7408 11.0162 14.5784 11.1385C14.4937 11.2021 14.4089 11.2656 14.3289 11.3339C14.0395 11.5809 13.7524 11.8304 13.4676 12.0845C13.4441 12.1057 13.4347 12.1575 13.4418 12.1904C13.4606 12.2799 13.4935 12.3669 13.5194 12.454C13.55 12.5552 13.5782 12.6587 13.6065 12.7623C13.6277 12.847 13.6441 12.9317 13.6677 13.0141C13.703 13.1388 13.743 13.2635 13.7806 13.3859C13.8089 13.4777 13.8324 13.5694 13.8606 13.6589C13.8889 13.7506 13.9218 13.8424 13.9548 13.9436C13.8159 13.9012 13.6888 13.8589 13.5594 13.8212C13.4229 13.7812 13.2864 13.7436 13.15 13.7059C13.0841 13.6871 13.0158 13.6706 12.9499 13.6518C12.8017 13.6094 12.6534 13.56 12.5028 13.52C12.3899 13.4918 12.2769 13.473 12.1616 13.4612C12.1286 13.4565 12.0792 13.4777 12.0557 13.5035C11.8627 13.7224 11.6721 13.946 11.4815 14.1672C11.3874 14.2778 11.2909 14.3884 11.2015 14.5037C11.0791 14.6637 10.9614 14.8261 10.8438 14.9908C10.752 15.1155 10.6602 15.2402 10.5731 15.3673C10.4484 15.5509 10.3308 15.7368 10.2107 15.9203C10.0884 16.1086 9.96601 16.2945 9.8507 16.4875C9.72833 16.6922 9.61302 16.9016 9.50006 17.1087C9.35416 17.3723 9.21297 17.6382 9.06942 17.9041C9.06236 17.9182 9.06001 17.9394 9.0506 17.9535C9.03883 17.9677 9.02236 17.9841 9.00588 17.9865C8.98941 17.9865 8.96588 17.9724 8.95882 17.9583C8.84116 17.7323 8.7282 17.5041 8.60583 17.2805C8.47405 17.0381 8.33285 16.8005 8.19401 16.5628C8.05988 16.3322 7.92574 16.1015 7.78455 15.8756C7.67865 15.7085 7.56334 15.5485 7.45039 15.3838C7.3492 15.2379 7.25271 15.0896 7.14682 14.9461C7.02915 14.7861 6.90443 14.6331 6.78206 14.4754C6.68087 14.3437 6.58204 14.2095 6.47379 14.0824C6.29965 13.8777 6.12315 13.673 5.93725 13.4777C5.87136 13.4094 5.77017 13.4635 5.6878 13.4777C5.58661 13.4965 5.48778 13.5318 5.38894 13.56C5.28304 13.5883 5.17715 13.6142 5.07125 13.6424C4.99124 13.6636 4.90888 13.6847 4.82887 13.7059C4.76062 13.7248 4.69473 13.7412 4.62884 13.7624C4.44529 13.8189 4.25938 13.8801 4.05935 13.9436ZM2.82861 8.91707C2.92038 8.98296 2.98627 9.03708 3.06158 9.0818C3.16277 9.14063 3.26866 9.18769 3.36985 9.24417C3.53458 9.33595 3.69931 9.42772 3.85933 9.52421C4.10642 9.67717 4.35351 9.83013 4.5959 9.9925C4.76062 10.1031 4.92064 10.2208 5.07831 10.3408C5.28069 10.4985 5.48072 10.6608 5.67839 10.8279C5.73957 10.8797 5.77252 10.8938 5.8337 10.8256C6.08315 10.5408 6.3373 10.2584 6.5891 9.97838C6.775 9.7713 6.96797 9.56657 7.15152 9.35948C7.46686 9.00179 7.77513 8.64174 8.09047 8.28405C8.35874 7.97342 8.63642 7.66749 8.9094 7.36157C8.99176 7.26979 9.02471 7.26979 9.10707 7.35922C9.2718 7.54277 9.43653 7.72632 9.60126 7.90988C9.87659 8.2158 10.1519 8.51937 10.4249 8.82765C10.5896 9.01591 10.7426 9.21122 10.9097 9.39948C11.1991 9.72659 11.4933 10.0513 11.7851 10.3761C11.9216 10.529 12.058 10.6844 12.1945 10.8373C12.2251 10.8726 12.2557 10.9009 12.3051 10.8585C12.4746 10.7197 12.644 10.5808 12.8158 10.4443C12.9735 10.3196 13.1311 10.1925 13.2959 10.0772C13.5477 9.90543 13.8042 9.73835 14.063 9.57833C14.2983 9.43478 14.5431 9.31006 14.7831 9.17357C14.9149 9.09827 15.042 9.01591 15.1879 8.92648C15.0396 8.84412 14.9102 8.77352 14.7831 8.70057C14.5643 8.57585 14.3431 8.45348 14.1242 8.3264C13.9877 8.24639 13.8559 8.16403 13.7241 8.07696C13.5406 7.95694 13.357 7.83928 13.1805 7.71221C13.0182 7.59454 12.8582 7.46982 12.7028 7.34275C12.4346 7.12154 12.1592 6.90504 11.9074 6.66736C11.6274 6.40145 11.3638 6.11435 11.1003 5.83431C10.9591 5.68606 10.8273 5.52839 10.6955 5.37308C10.6155 5.27895 10.5378 5.18482 10.4649 5.08598C10.3472 4.92831 10.2319 4.76594 10.119 4.60592C10.006 4.44354 9.89306 4.28117 9.78716 4.11409C9.67185 3.93289 9.56596 3.74698 9.46006 3.55872C9.35181 3.3634 9.24827 3.16573 9.14237 2.96806C9.10237 2.89275 9.05766 2.82215 9.00118 2.72096C7.64571 5.50015 5.58897 7.54748 2.82861 8.91707Z" fill="white"/>
</svg>
