<svg width="18" height="18" viewBox="0 0 18 18" fill="none" xmlns="http://www.w3.org/2000/svg">
<path fill-rule="evenodd" clip-rule="evenodd" d="M11.2487 7.95471C13.2852 8.0146 14.8606 6.52911 14.9205 4.49854C14.9205 2.63568 13.4709 1.03039 11.4823 1.00044C9.60145 0.970494 8.00215 2.46198 7.95423 4.42666C7.90631 6.26556 9.42774 7.9008 11.2487 7.95471ZM14.3095 4.45661C14.3095 6.04992 13.0277 7.33775 11.4344 7.33775C9.87099 7.33775 8.57718 6.04992 8.57119 4.49255C8.5652 2.91721 9.85302 1.6174 11.4344 1.61141C13.0097 1.60542 14.3095 2.89325 14.3095 4.45661ZM2.61727 9.79359H1C1 12.0638 1 14.3339 1.01198 16.5981H1.21564H9.72727H9.9429V14.3699H16.9631C17.1787 12.7107 16.4599 10.5543 14.5551 9.23653C12.86 8.0685 9.84108 7.68514 7.5769 9.85349C7.53697 9.8455 7.4997 9.83618 7.4642 9.82731C7.39321 9.80956 7.32932 9.79359 7.26542 9.79359H3.43789H3.24621C3.24621 9.75802 3.24446 9.72595 3.24286 9.69643C3.24149 9.67125 3.24022 9.64793 3.24022 9.62587C3.23722 9.41023 3.23722 9.1946 3.23722 8.97896C3.23722 8.76333 3.23722 8.54769 3.23423 8.33205C3.22824 8.21226 3.27017 8.15835 3.37799 8.11642C3.80631 7.95275 4.23262 7.78705 4.65807 7.62169C4.96443 7.50261 5.27036 7.38371 5.57628 7.26585C5.63019 7.24788 5.68409 7.22392 5.73201 7.19397C5.8578 7.11012 5.90572 6.96636 5.85181 6.82859C5.7979 6.69082 5.66013 6.61296 5.51039 6.64291C5.45049 6.65488 5.39059 6.67884 5.33069 6.7028C4.46815 7.03824 3.61758 7.36768 2.75504 7.69712C2.64123 7.73905 2.61727 7.79296 2.61727 7.90078V9.61988V9.79359ZM9.31397 15.8973C9.31397 15.9212 9.31397 15.9392 9.30798 15.9752C6.74431 15.9752 4.19261 15.9752 1.63493 15.9692V10.4046H1.79666C2.37767 10.4046 2.95869 10.4052 3.53971 10.4059C4.70175 10.4072 5.86379 10.4085 7.02583 10.4046C7.13964 10.4046 7.21152 10.4405 7.28339 10.5184C7.60685 10.8628 7.9303 11.2042 8.25376 11.5456C8.57721 11.8871 8.90066 12.2285 9.22412 12.5729C9.26605 12.6208 9.30798 12.6987 9.30798 12.7586C9.31397 13.8066 9.31397 14.8487 9.31397 15.8968V15.8973V15.8973ZM8.12796 10.5184C8.07405 10.4644 8.02015 10.4105 7.96025 10.3447C9.38585 8.92505 11.5302 8.51175 13.3691 9.29643C15.3697 10.159 16.376 12.0817 16.3641 13.7409H9.93692C9.93692 13.714 9.93542 13.687 9.93392 13.6601C9.93242 13.6331 9.93093 13.6062 9.93093 13.5792C9.93093 13.2378 9.93093 12.8904 9.92494 12.5489C9.92494 12.4771 9.889 12.3872 9.84108 12.3333C9.27204 11.7283 8.703 11.1233 8.12797 10.5184L8.12796 10.5184Z" fill="white"/>
<path d="M14.9205 4.49854L15.4203 4.51328L15.4205 4.50591V4.49854H14.9205ZM11.2487 7.95471L11.2339 8.45449L11.234 8.45449L11.2487 7.95471ZM11.4823 1.00044L11.4743 1.50038L11.4747 1.50039L11.4823 1.00044ZM7.95423 4.42666L8.45406 4.43969L8.45408 4.43885L7.95423 4.42666ZM8.57119 4.49255L8.07119 4.49445V4.49447L8.57119 4.49255ZM11.4344 1.61141L11.4362 2.11141H11.4363L11.4344 1.61141ZM1 9.79359V9.29359H0.5V9.79359H1ZM2.61727 9.79359V10.2936H3.11727V9.79359H2.61727ZM1.01198 16.5981L0.511987 16.6007L0.514618 17.0981H1.01198V16.5981ZM9.9429 16.5981V17.0981H10.4429V16.5981H9.9429ZM9.9429 14.3699V13.8699H9.4429V14.3699H9.9429ZM16.9631 14.3699V14.8699H17.4023L17.4589 14.4343L16.9631 14.3699ZM14.5551 9.23653L14.8396 8.82534L14.8388 8.8248L14.5551 9.23653ZM7.5769 9.85349L7.47884 10.3438L7.73446 10.3949L7.92273 10.2146L7.5769 9.85349ZM7.4642 9.82731L7.58547 9.34224L7.58547 9.34224L7.4642 9.82731ZM3.24621 9.79359H2.74621V10.2936H3.24621V9.79359ZM3.24286 9.69643L2.7436 9.72359L2.7436 9.72359L3.24286 9.69643ZM3.24022 9.62587H3.74027L3.74017 9.61893L3.24022 9.62587ZM3.23722 8.97896H2.73722V8.97896L3.23722 8.97896ZM3.23423 8.33205L3.73418 8.32511L3.73406 8.31609L3.7336 8.30709L3.23423 8.33205ZM3.37799 8.11642L3.19951 7.64935L3.19676 7.65041L3.37799 8.11642ZM4.65807 7.62169L4.83921 8.08772H4.83921L4.65807 7.62169ZM5.57628 7.26585L5.41816 6.79151L5.40726 6.79515L5.39653 6.79928L5.57628 7.26585ZM5.73201 7.19397L5.99701 7.61797L6.00325 7.61408L6.00936 7.61L5.73201 7.19397ZM5.85181 6.82859L6.31743 6.64639L6.31743 6.64639L5.85181 6.82859ZM5.51039 6.64291L5.60844 7.1332L5.60845 7.1332L5.51039 6.64291ZM5.33069 6.7028L5.51192 7.16883L5.51639 7.16704L5.33069 6.7028ZM2.75504 7.69712L2.9279 8.16633L2.93344 8.16421L2.75504 7.69712ZM9.30798 15.9752V16.4752H9.73154L9.80117 16.0574L9.30798 15.9752ZM1.63493 15.9692H1.13493V16.468L1.63376 16.4692L1.63493 15.9692ZM1.63493 10.4046V9.90456H1.13493V10.4046H1.63493ZM3.53971 10.4059L3.53914 10.9059L3.53971 10.4059ZM7.02583 10.4046V9.90455L7.02411 9.90456L7.02583 10.4046ZM7.28339 10.5184L6.91598 10.8575L6.91892 10.8607L7.28339 10.5184ZM8.25376 11.5456L7.89078 11.8895L7.89078 11.8895L8.25376 11.5456ZM9.22412 12.5729L9.60041 12.2436L9.59461 12.237L9.58859 12.2306L9.22412 12.5729ZM9.30798 12.7586H8.80797L8.80799 12.7614L9.30798 12.7586ZM7.96025 10.3447L7.60744 9.99036L7.2689 10.3275L7.59028 10.681L7.96025 10.3447ZM8.12796 10.5184L7.77434 10.872L7.78113 10.8785L8.12796 10.5184ZM13.3691 9.29643L13.5671 8.83728L13.5654 8.83654L13.3691 9.29643ZM16.3641 13.7409V14.2409H16.8605L16.8641 13.7445L16.3641 13.7409ZM9.93692 13.7409H9.43692V14.2409H9.93692V13.7409ZM9.92494 12.5489H9.42486L9.42501 12.5577L9.92494 12.5489ZM9.84108 12.3333L10.2149 12.001L10.2053 11.9907L9.84108 12.3333ZM8.12797 10.5184L8.49038 10.1739L8.48276 10.1659L8.47479 10.1582L8.12797 10.5184ZM14.4207 4.4838C14.3689 6.23787 13.0244 7.50672 11.2634 7.45492L11.234 8.45449C13.546 8.52249 15.3522 6.82036 15.4203 4.51328L14.4207 4.4838ZM11.4747 1.50039C13.1772 1.52603 14.4205 2.89565 14.4205 4.49854H15.4205C15.4205 2.37572 13.7647 0.53476 11.4898 0.5005L11.4747 1.50039ZM8.45408 4.43885C8.49529 2.74925 9.86727 1.47479 11.4743 1.50038L11.4902 0.500507C9.33562 0.466197 7.509 2.17471 7.45438 4.41447L8.45408 4.43885ZM11.2635 7.45492C9.72441 7.40936 8.41314 6.00981 8.45406 4.43969L7.4544 4.41364C7.39947 6.5213 9.13107 8.39223 11.2339 8.45449L11.2635 7.45492ZM11.4344 7.83775C13.3052 7.83775 14.8095 6.32471 14.8095 4.45661H13.8095C13.8095 5.77514 12.7502 6.83775 11.4344 6.83775V7.83775ZM8.07119 4.49447C8.07824 6.32814 9.59651 7.83775 11.4344 7.83775V6.83775C10.1455 6.83775 9.07611 5.7717 9.07118 4.49063L8.07119 4.49447ZM11.4325 1.11142C9.57517 1.11845 8.06415 2.64278 8.07119 4.49445L9.07118 4.49065C9.06624 3.19164 10.1309 2.11635 11.4362 2.11141L11.4325 1.11142ZM14.8095 4.45661C14.8095 2.6134 13.2817 1.10438 11.4325 1.11142L11.4363 2.11141C12.7377 2.10646 13.8095 3.1731 13.8095 4.45661H14.8095ZM1 10.2936H2.61727V9.29359H1V10.2936ZM1.51197 16.5955C1.5 14.3328 1.5 12.064 1.5 9.79359H0.5C0.5 12.0635 0.499999 14.335 0.511987 16.6007L1.51197 16.5955ZM1.21564 16.0981H1.01198V17.0981H1.21564V16.0981ZM9.72727 16.0981H1.21564V17.0981H9.72727V16.0981ZM9.9429 16.0981H9.72727V17.0981H9.9429V16.0981ZM9.4429 14.3699V16.5981H10.4429V14.3699H9.4429ZM16.9631 13.8699H9.9429V14.8699H16.9631V13.8699ZM14.2707 9.64772C16.0133 10.8533 16.6601 12.8217 16.4672 14.3054L17.4589 14.4343C17.6973 12.5997 16.9065 10.2553 14.8396 8.82534L14.2707 9.64772ZM7.92273 10.2146C9.98156 8.24291 12.7299 8.58609 14.2714 9.64825L14.8388 8.8248C12.99 7.55091 9.70059 7.12738 7.23107 9.49237L7.92273 10.2146ZM7.34293 10.3124C7.37715 10.3209 7.42552 10.3331 7.47884 10.3438L7.67495 9.36319C7.64841 9.35789 7.62224 9.35143 7.58547 9.34224L7.34293 10.3124ZM7.26542 10.2936C7.25616 10.2936 7.25527 10.2924 7.2692 10.2951C7.28522 10.2981 7.30449 10.3028 7.34294 10.3124L7.58547 9.34224C7.52782 9.32782 7.40215 9.29359 7.26542 9.29359V10.2936ZM3.43789 10.2936H7.26542V9.29359H3.43789V10.2936ZM3.24621 10.2936H3.43789V9.29359H3.24621V10.2936ZM2.7436 9.72359C2.74525 9.75405 2.74621 9.77341 2.74621 9.79359H3.74621C3.74621 9.74264 3.74367 9.69785 3.74212 9.66927L2.7436 9.72359ZM2.74022 9.62587C2.74022 9.66405 2.7424 9.70152 2.7436 9.72359L3.74212 9.66927C3.74058 9.64098 3.74022 9.6318 3.74022 9.62587H2.74022ZM2.73722 8.97896C2.73722 9.19402 2.73722 9.41313 2.74027 9.63281L3.74017 9.61893C3.73723 9.40734 3.73722 9.19518 3.73722 8.97896L2.73722 8.97896ZM2.73428 8.339C2.73722 8.55058 2.73722 8.76275 2.73722 8.97896H3.73722C3.73722 8.7639 3.73723 8.5448 3.73418 8.32511L2.73428 8.339ZM3.19676 7.65041C3.10458 7.68626 2.95792 7.75715 2.85168 7.91138C2.74171 8.07101 2.729 8.24006 2.73485 8.35702L3.7336 8.30709C3.73362 8.30735 3.73385 8.31201 3.73336 8.32016C3.73287 8.32837 3.73158 8.34113 3.72817 8.35723C3.7209 8.3916 3.70521 8.4351 3.67518 8.47869C3.61536 8.56553 3.54357 8.5885 3.55921 8.58242L3.19676 7.65041ZM4.47694 7.15565C4.05126 7.3211 3.62629 7.48628 3.19951 7.64935L3.55646 8.58348C3.98634 8.41922 4.41397 8.253 4.83921 8.08772L4.47694 7.15565ZM5.39653 6.79928C5.0898 6.91745 4.78318 7.03662 4.47694 7.15565L4.83921 8.08772C5.14569 7.9686 5.45091 7.84997 5.75602 7.73243L5.39653 6.79928ZM5.46701 6.76998C5.45879 6.77512 5.44219 6.7835 5.41816 6.79151L5.73439 7.74019C5.81818 7.71226 5.9094 7.67273 5.99701 7.61797L5.46701 6.76998ZM5.38619 7.01079C5.37217 6.97496 5.36775 6.9256 5.3844 6.87506C5.40075 6.82542 5.43096 6.79375 5.45466 6.77795L6.00936 7.61C6.32115 7.40214 6.46111 7.01356 6.31743 6.64639L5.38619 7.01079ZM5.60845 7.1332C5.57001 7.14088 5.52155 7.13597 5.47608 7.11096C5.43119 7.08627 5.40092 7.04844 5.38619 7.01079L6.31743 6.64639C6.17601 6.28499 5.80206 6.07467 5.41233 6.15262L5.60845 7.1332ZM5.51639 7.16704C5.54816 7.15433 5.56787 7.14653 5.58571 7.14029C5.60264 7.13437 5.60894 7.1331 5.60844 7.1332L5.41233 6.15261C5.29931 6.17522 5.19589 6.21821 5.14499 6.23857L5.51639 7.16704ZM2.93344 8.16421C3.79737 7.83424 4.64901 7.50438 5.51191 7.16881L5.14947 6.2368C4.28728 6.5721 3.43779 6.90112 2.57664 7.23004L2.93344 8.16421ZM3.11727 7.90078C3.11727 7.86896 3.12466 7.94817 3.06692 8.04013C3.0031 8.14177 2.91891 8.16961 2.92789 8.1663L2.58218 7.22795C2.47736 7.26657 2.32428 7.34233 2.22003 7.50836C2.12186 7.66471 2.11727 7.82478 2.11727 7.90078H3.11727ZM3.11727 9.61988V7.90078H2.11727V9.61988H3.11727ZM3.11727 9.79359V9.61988H2.11727V9.79359H3.11727ZM9.80117 16.0574C9.81364 15.9826 9.81397 15.9337 9.81397 15.8973H8.81397C8.81397 15.904 8.81395 15.9054 8.81394 15.9062C8.81394 15.9062 8.81395 15.9056 8.81399 15.9046C8.81403 15.9035 8.81409 15.9021 8.81419 15.9005C8.8144 15.8972 8.81468 15.8943 8.81491 15.8924C8.81512 15.8906 8.81517 15.8906 8.81478 15.893L9.80117 16.0574ZM1.63376 16.4692C4.19212 16.4752 6.7444 16.4752 9.30798 16.4752V15.4752C6.74421 15.4752 4.1931 15.4752 1.6361 15.4692L1.63376 16.4692ZM1.13493 10.4046V15.9692H2.13493V10.4046H1.13493ZM1.79666 9.90456H1.63493V10.9046H1.79666V9.90456ZM3.54029 9.90589C2.95931 9.90522 2.37801 9.90456 1.79666 9.90456V10.9046C2.37734 10.9046 2.95807 10.9052 3.53914 10.9059L3.54029 9.90589ZM7.02411 9.90456C5.86341 9.90855 4.70252 9.90722 3.54029 9.90589L3.53914 10.9059C4.70099 10.9072 5.86417 10.9086 7.02755 10.9046L7.02411 9.90456ZM7.6508 10.1792C7.5842 10.1071 7.49602 10.0311 7.37724 9.97707C7.25729 9.92256 7.13723 9.90456 7.02583 9.90456V10.9046C7.02823 10.9046 7.00102 10.9045 6.96343 10.8874C6.92701 10.8709 6.91071 10.8518 6.91599 10.8575L7.6508 10.1792ZM8.61673 11.2018C8.29316 10.8602 7.97045 10.5196 7.64787 10.1761L6.91892 10.8607C7.24325 11.206 7.56745 11.5482 7.89078 11.8895L8.61673 11.2018ZM9.58859 12.2306C9.26427 11.8853 8.94006 11.5431 8.61673 11.2018L7.89078 11.8895C8.21436 12.2311 8.53706 12.5717 8.85965 12.9152L9.58859 12.2306ZM9.80798 12.7586C9.80798 12.6243 9.76489 12.5127 9.73301 12.4459C9.698 12.3725 9.65201 12.3026 9.60041 12.2436L8.84783 12.9021C8.83815 12.8911 8.8341 12.8841 8.83053 12.8766C8.82824 12.8718 8.8236 12.8613 8.81909 12.8451C8.81487 12.83 8.80798 12.7999 8.80798 12.7586H9.80798ZM9.81397 15.8968C9.81397 14.849 9.81397 13.8055 9.80797 12.7557L8.80799 12.7614C8.81397 13.8078 8.81397 14.8485 8.81397 15.8968H9.81397ZM9.81397 15.8973V15.8968H8.81397V15.8973H9.81397ZM9.81397 15.8973V15.8973H8.81397V15.8973H9.81397ZM7.59028 10.681C7.65917 10.7568 7.7209 10.8184 7.7744 10.8719L8.48151 10.1648C8.4272 10.1105 8.38112 10.0643 8.33022 10.0083L7.59028 10.681ZM13.5654 8.83654C11.5382 7.97153 9.17678 8.42762 7.60744 9.99036L8.31306 10.699C9.59491 9.42249 11.5223 9.05197 13.1729 9.75631L13.5654 8.83654ZM16.8641 13.7445C16.8774 11.8984 15.7647 9.78476 13.5671 8.83728L13.1712 9.75557C14.9748 10.5332 15.8747 12.2651 15.8641 13.7373L16.8641 13.7445ZM9.93692 14.2409H16.3641V13.2409H9.93692V14.2409ZM9.43469 13.6878C9.43632 13.7171 9.43692 13.7302 9.43692 13.7409H10.4369C10.4369 13.6978 10.4345 13.6569 10.4332 13.6323L9.43469 13.6878ZM9.43093 13.5792C9.43093 13.6223 9.43332 13.6632 9.43469 13.6878L10.4332 13.6323C10.4315 13.603 10.4309 13.59 10.4309 13.5792H9.43093ZM9.42501 12.5577C9.43091 12.894 9.43093 13.237 9.43093 13.5792H10.4309C10.4309 13.2385 10.4309 12.8867 10.4249 12.5402L9.42501 12.5577ZM9.46737 12.6655C9.45481 12.6514 9.44753 12.6401 9.44379 12.6338C9.43985 12.6271 9.43731 12.6216 9.43549 12.6169C9.43368 12.6123 9.43147 12.6057 9.4295 12.5965C9.42763 12.5877 9.42494 12.5715 9.42494 12.5489H10.4249C10.4249 12.3473 10.3391 12.1409 10.2148 12.0011L9.46737 12.6655ZM7.76556 10.8628C8.33954 11.4667 8.90769 12.0707 9.47687 12.6759L10.2053 11.9907C9.63639 11.3859 9.06646 10.78 8.49038 10.1739L7.76556 10.8628ZM7.78113 10.8785L7.78115 10.8785L8.47479 10.1582L8.47478 10.1582L7.78113 10.8785Z" fill="#ABABAB"/>
</svg>
