<svg width="19" height="19" viewBox="0 0 19 19" fill="none" xmlns="http://www.w3.org/2000/svg">
<path fill-rule="evenodd" clip-rule="evenodd" d="M17.9539 7.67382L17.9538 7.67385C17.9221 7.8676 17.8904 8.06141 17.8489 8.25344C17.6317 9.27338 17.2181 10.2197 16.7251 11.1319C15.6126 13.1907 14.179 15.0115 12.5906 16.7189C12.311 17.0193 11.9975 17.0193 11.716 16.7189C11.4365 16.4205 11.1645 16.1145 10.8944 15.8048C10.6791 15.5592 10.6961 15.2306 10.9228 15.0341C11.1494 14.8358 11.4724 14.8642 11.6915 15.1059C11.7977 15.2215 11.902 15.34 12.0064 15.4586L12.0064 15.4586C12.0487 15.5067 12.091 15.5548 12.1335 15.6027C12.1358 15.605 12.1389 15.6059 12.1463 15.6081C12.1508 15.6094 12.157 15.6111 12.1656 15.614C12.226 15.5457 12.2875 15.4772 12.3494 15.4083L12.3494 15.4083C12.4656 15.279 12.583 15.1483 12.6963 15.0153C13.6502 13.8858 14.5549 12.7185 15.3236 11.4511C15.9261 10.4558 16.4588 9.42448 16.7515 8.28932C17.1878 6.58753 16.8535 5.04818 15.7108 3.71282C14.7324 2.56822 13.4594 2.02991 11.954 2.07147C11.7151 2.07858 11.4761 2.12104 11.238 2.16335L11.238 2.16335C11.1599 2.17723 11.0819 2.19109 11.004 2.20368C10.6999 2.25279 10.4298 2.09224 10.3656 1.81459C10.2995 1.51994 10.4657 1.24229 10.7698 1.17052C12.2921 0.811653 13.737 1.01564 15.0837 1.81648C16.3908 2.59277 17.2615 3.72793 17.7148 5.17095C17.8053 5.46066 17.8534 5.76453 17.9013 6.06802L17.9013 6.06806C17.9234 6.20778 17.9455 6.34741 17.9717 6.48554L17.9859 6.56605L18 6.64609C17.9981 6.89918 17.9981 7.15417 17.9981 7.40915C17.9827 7.49725 17.9683 7.58553 17.9539 7.67382ZM6.57758 17.9029L6.57756 17.9029C6.48117 17.8311 6.38495 17.7595 6.30469 17.6728C4.76344 15.9993 3.36386 14.2182 2.2797 12.2085C1.73196 11.1924 1.27865 10.1403 1.08411 8.99193C0.889561 7.84733 1.03689 6.74051 1.48075 5.67713C1.90006 4.67796 2.5498 3.84879 3.4243 3.20094C4.19492 2.63053 5.05054 2.27166 5.9987 2.13C8.57311 1.74469 11.0115 3.14427 12.0919 5.43725C12.821 6.98227 12.8493 8.5594 12.3072 10.1649C11.8822 11.4209 11.2514 12.5712 10.5318 13.678C9.60438 15.1059 8.53533 16.4262 7.3794 17.6728C7.29914 17.7595 7.20291 17.8311 7.10653 17.9029L7.1065 17.9029C7.06226 17.9359 7.01798 17.9688 6.9752 18.0033H6.70889C6.6661 17.9688 6.62183 17.9359 6.57758 17.9029ZM6.85621 16.7189C7.04633 16.4835 7.23549 16.2526 7.42288 16.0238C7.82191 15.5366 8.21294 15.0592 8.58822 14.5695C9.67049 13.1624 10.6319 11.6797 11.2401 9.99676C11.5725 9.07693 11.7293 8.13631 11.5404 7.16171C11.2514 5.66202 10.4638 4.49475 9.13408 3.73735C7.91015 3.04039 6.60878 2.93273 5.27719 3.40304C4.11182 3.81479 3.24109 4.59108 2.65746 5.67713C2.14371 6.63474 1.95483 7.66034 2.11916 8.74261C2.25326 9.62656 2.57624 10.4482 2.97099 11.2434C3.73973 12.7922 4.74456 14.1861 5.83816 15.5195C6.07963 15.8119 6.32638 16.0999 6.58709 16.4043L6.58712 16.4044L6.58739 16.4047C6.67529 16.5073 6.76479 16.6118 6.85621 16.7189ZM9.4967 7.91914C9.50426 6.45723 8.30677 5.25219 6.84486 5.2503C5.3905 5.24652 4.19302 6.43645 4.18546 7.89459C4.17791 9.3565 5.37539 10.5615 6.8373 10.5634C8.29166 10.5653 9.48915 9.37728 9.4967 7.91914ZM6.82031 9.49816C5.94013 9.47738 5.22429 8.73887 5.24884 7.88136C5.27529 6.99931 6.0138 6.28535 6.86941 6.31368C7.75525 6.3439 8.46732 7.08241 8.43332 7.93803C8.39743 8.82009 7.67403 9.51894 6.82031 9.49816Z" fill="#B4B4B4"/>
<path d="M17.9538 7.67385L17.7078 7.62912L17.7071 7.63348L17.9538 7.67385ZM17.9539 7.67382L18.1999 7.71854L18.2006 7.71419L17.9539 7.67382ZM17.8489 8.25344L17.6046 8.2006L17.6044 8.20136L17.8489 8.25344ZM16.7251 11.1319L16.5051 11.0131V11.0131L16.7251 11.1319ZM12.5906 16.7189L12.7735 16.8893L12.7736 16.8892L12.5906 16.7189ZM11.716 16.7189L11.5336 16.8898L11.5336 16.8899L11.716 16.7189ZM10.8944 15.8048L11.0829 15.6405L11.0824 15.6399L10.8944 15.8048ZM10.9228 15.0341L11.0865 15.2231L11.0874 15.2223L10.9228 15.0341ZM11.6915 15.1059L11.5062 15.2738L11.5074 15.275L11.6915 15.1059ZM12.0064 15.4586L11.8187 15.6238L11.8195 15.6247L12.0064 15.4586ZM12.0064 15.4586L12.1941 15.2935L12.1932 15.2925L12.0064 15.4586ZM12.1335 15.6027L11.9464 15.7685L11.9514 15.7741L11.9567 15.7794L12.1335 15.6027ZM12.1463 15.6081L12.2158 15.3679L12.2157 15.3679L12.1463 15.6081ZM12.1656 15.614L12.0865 15.8512L12.2433 15.9034L12.3528 15.7796L12.1656 15.614ZM12.3494 15.4083L12.1724 15.2313L12.1635 15.2412L12.3494 15.4083ZM12.3494 15.4083L12.5265 15.5853L12.5354 15.5754L12.3494 15.4083ZM12.6963 15.0153L12.8866 15.1774L12.8873 15.1766L12.6963 15.0153ZM15.3236 11.4511L15.5374 11.5808L15.5375 11.5806L15.3236 11.4511ZM16.7515 8.28932L16.9936 8.35176L16.9937 8.35141L16.7515 8.28932ZM15.7108 3.71282L15.5208 3.87525L15.5209 3.87536L15.7108 3.71282ZM11.954 2.07147L11.9471 1.82156L11.9466 1.82158L11.954 2.07147ZM11.238 2.16335L11.2791 2.40996L11.2817 2.40949L11.238 2.16335ZM11.238 2.16335L11.1969 1.91674L11.1942 1.91721L11.238 2.16335ZM11.004 2.20368L11.0438 2.45048L11.0439 2.45048L11.004 2.20368ZM10.3656 1.81459L10.1216 1.86932L10.122 1.87093L10.3656 1.81459ZM10.7698 1.17052L10.7124 0.92719L10.7123 0.927206L10.7698 1.17052ZM15.0837 1.81648L14.956 2.03136L14.9561 2.03143L15.0837 1.81648ZM17.7148 5.17095L17.9534 5.09638L17.9533 5.09603L17.7148 5.17095ZM17.9013 6.06802L18.1494 6.03601L18.1483 6.02899L17.9013 6.06802ZM17.9013 6.06806L17.6533 6.10007L17.6544 6.10709L17.9013 6.06806ZM17.9717 6.48554L18.2179 6.44209L18.2173 6.43896L17.9717 6.48554ZM17.9859 6.56605L18.2321 6.5226L18.2321 6.5226L17.9859 6.56605ZM18 6.64609L18.25 6.64795L18.2502 6.62512L18.2462 6.60264L18 6.64609ZM17.9981 7.40915L18.2444 7.45213L18.2481 7.4308V7.40915H17.9981ZM6.57756 17.9029L6.73383 17.7076L6.72686 17.7024L6.57756 17.9029ZM6.57758 17.9029L6.42132 18.0983L6.42828 18.1034L6.57758 17.9029ZM6.30469 17.6728L6.12079 17.8421L6.1212 17.8426L6.30469 17.6728ZM2.2797 12.2085L2.05964 12.3271L2.05968 12.3272L2.2797 12.2085ZM1.08411 8.99193L1.33059 8.95017L1.33057 8.95004L1.08411 8.99193ZM1.48075 5.67713L1.25022 5.58038L1.25004 5.58083L1.48075 5.67713ZM3.4243 3.20094L3.27557 3L3.27548 3.00006L3.4243 3.20094ZM5.9987 2.13L6.03565 2.37726L6.03571 2.37725L5.9987 2.13ZM12.0919 5.43725L11.8657 5.54381L11.8658 5.54394L12.0919 5.43725ZM12.3072 10.1649L12.544 10.245L12.5441 10.2448L12.3072 10.1649ZM10.5318 13.678L10.3222 13.5417L10.3221 13.5418L10.5318 13.678ZM7.3794 17.6728L7.19608 17.5028L7.19591 17.503L7.3794 17.6728ZM7.10653 17.9029L6.95713 17.7023L6.95035 17.7077L7.10653 17.9029ZM7.1065 17.9029L7.2559 18.1036L7.26268 18.0981L7.1065 17.9029ZM6.9752 18.0033V18.2533H7.06337L7.13204 18.198L6.9752 18.0033ZM6.70889 18.0033L6.55205 18.198L6.62071 18.2533H6.70889V18.0033ZM7.42288 16.0238L7.22947 15.8654V15.8654L7.42288 16.0238ZM6.85621 16.7189L6.66604 16.8812L6.8615 17.1103L7.0507 16.876L6.85621 16.7189ZM8.58822 14.5695L8.39005 14.4171L8.38979 14.4174L8.58822 14.5695ZM11.2401 9.99676L11.0049 9.91179V9.91179L11.2401 9.99676ZM11.5404 7.16171L11.2949 7.20901L11.2949 7.20927L11.5404 7.16171ZM9.13408 3.73735L9.25781 3.52012L9.25779 3.5201L9.13408 3.73735ZM5.27719 3.40304L5.19393 3.16731L5.19391 3.16732L5.27719 3.40304ZM2.65746 5.67713L2.43724 5.55878L2.43716 5.55894L2.65746 5.67713ZM2.11916 8.74261L2.36633 8.70511L2.36632 8.70508L2.11916 8.74261ZM2.97099 11.2434L3.19493 11.1322L3.19492 11.1322L2.97099 11.2434ZM5.83816 15.5195L5.64485 15.6781L5.64542 15.6788L5.83816 15.5195ZM6.58709 16.4043L6.39721 16.567L6.39895 16.5689L6.58709 16.4043ZM6.58712 16.4044L6.77669 16.2414L6.77527 16.2397L6.58712 16.4044ZM6.58739 16.4047L6.77726 16.242L6.77695 16.2417L6.58739 16.4047ZM6.84486 5.2503L6.84421 5.5003L6.84454 5.5003L6.84486 5.2503ZM9.4967 7.91914L9.7467 7.92044L9.7467 7.92043L9.4967 7.91914ZM4.18546 7.89459L3.93546 7.89329V7.89329L4.18546 7.89459ZM6.8373 10.5634L6.83763 10.3134H6.83763L6.8373 10.5634ZM5.24884 7.88136L4.99895 7.87387L4.99895 7.87421L5.24884 7.88136ZM6.82031 9.49816L6.82639 9.24823L6.82621 9.24823L6.82031 9.49816ZM6.86941 6.31368L6.87794 6.06382L6.87769 6.06382L6.86941 6.31368ZM8.43332 7.93803L8.68311 7.94819L8.68312 7.94795L8.43332 7.93803ZM18.1998 7.71857L18.1998 7.71854L17.7079 7.6291L17.7079 7.62913L18.1998 7.71857ZM18.0933 8.30627C18.1363 8.10701 18.169 7.90694 18.2006 7.71422L17.7071 7.63348C17.6753 7.82827 17.6445 8.01581 17.6046 8.2006L18.0933 8.30627ZM16.945 11.2508C17.4441 10.3272 17.8694 9.35751 18.0934 8.30551L17.6044 8.20136C17.394 9.18925 16.992 10.1121 16.5051 11.0131L16.945 11.2508ZM12.7736 16.8892C14.371 15.1722 15.8192 13.3342 16.945 11.2508L16.5051 11.0131C15.406 13.0472 13.9871 14.8508 12.4075 16.5487L12.7736 16.8892ZM11.5336 16.8899C11.7045 17.0722 11.9148 17.1942 12.154 17.1942C12.3934 17.1942 12.6034 17.072 12.7735 16.8893L12.4076 16.5486C12.2981 16.6662 12.2116 16.6942 12.154 16.6942C12.0962 16.6942 12.009 16.666 11.8985 16.548L11.5336 16.8899ZM10.706 15.9691C10.977 16.2799 11.2512 16.5884 11.5336 16.8898L11.8985 16.548C11.6218 16.2527 11.352 15.9492 11.0829 15.6405L10.706 15.9691ZM10.759 14.8452C10.418 15.1408 10.4083 15.6296 10.7065 15.9696L11.0824 15.6399C10.9499 15.4888 10.9742 15.3204 11.0865 15.2231L10.759 14.8452ZM11.8767 14.938C11.5768 14.6071 11.099 14.5477 10.7581 14.846L11.0874 15.2223C11.1998 15.1239 11.368 15.1213 11.5062 15.2738L11.8767 14.938ZM12.194 15.2934C12.0899 15.1752 11.9839 15.0547 11.8756 14.9368L11.5074 15.275C11.6115 15.3884 11.714 15.5048 11.8187 15.6238L12.194 15.2934ZM12.1932 15.2925L12.1932 15.2925L11.8195 15.6247L11.8195 15.6247L12.1932 15.2925ZM12.3206 15.4368C12.2784 15.3893 12.2364 15.3416 12.1941 15.2935L11.8187 15.6238C11.861 15.6718 11.9036 15.7202 11.9464 15.7685L12.3206 15.4368ZM12.2157 15.3679C12.2132 15.3672 12.214 15.3674 12.2151 15.3677C12.2163 15.3681 12.222 15.3698 12.2296 15.3728C12.248 15.3801 12.2797 15.3954 12.3102 15.4259L11.9567 15.7794C11.9896 15.8123 12.024 15.8292 12.0464 15.838C12.056 15.8418 12.064 15.8444 12.0679 15.8455C12.0718 15.8467 12.0757 15.8479 12.0769 15.8482L12.2157 15.3679ZM12.2446 15.3768C12.2312 15.3723 12.2211 15.3694 12.2158 15.3679L12.0768 15.8482C12.0805 15.8493 12.0828 15.8499 12.0865 15.8512L12.2446 15.3768ZM12.1635 15.2412C12.1017 15.31 12.0395 15.3792 11.9783 15.4484L12.3528 15.7796C12.4125 15.7122 12.4734 15.6444 12.5354 15.5754L12.1635 15.2412ZM12.1727 15.2315L12.1727 15.2315L12.5262 15.5851L12.5262 15.5851L12.1727 15.2315ZM12.506 14.8531C12.3951 14.9833 12.28 15.1115 12.1635 15.2412L12.5354 15.5754C12.6512 15.4465 12.7708 15.3134 12.8866 15.1774L12.506 14.8531ZM15.1099 11.3215C14.3506 12.5732 13.4551 13.7293 12.5053 14.854L12.8873 15.1766C13.8452 14.0423 14.7591 12.8638 15.5374 11.5808L15.1099 11.3215ZM16.5094 8.22689C16.2256 9.32741 15.7073 10.3344 15.1097 11.3217L15.5375 11.5806C16.1449 10.5771 16.6919 9.52154 16.9936 8.35176L16.5094 8.22689ZM15.5209 3.87536C16.6088 5.14677 16.9261 6.6017 16.5094 8.22724L16.9937 8.35141C17.4496 6.57337 17.0982 4.94959 15.9008 3.55027L15.5209 3.87536ZM11.9609 2.32137C13.3942 2.28181 14.5936 2.79057 15.5208 3.87525L15.9008 3.55038C14.8712 2.34586 13.5246 1.77802 11.9471 1.82156L11.9609 2.32137ZM11.2817 2.40949C11.5231 2.36661 11.7439 2.32783 11.9615 2.32136L11.9466 1.82158C11.6862 1.82933 11.4292 1.87547 11.1943 1.91721L11.2817 2.40949ZM11.2791 2.40995L11.2791 2.40995L11.1969 1.91675L11.1969 1.91675L11.2791 2.40995ZM11.0439 2.45048C11.124 2.43752 11.2039 2.42331 11.2817 2.4095L11.1942 1.91721C11.1158 1.93114 11.0397 1.94466 10.9641 1.95689L11.0439 2.45048ZM10.122 1.87093C10.2206 2.29738 10.6319 2.51701 11.0438 2.45048L10.9641 1.95688C10.7679 1.98857 10.6389 1.88711 10.6091 1.75826L10.122 1.87093ZM10.7123 0.927206C10.2726 1.03098 10.026 1.44329 10.1216 1.86932L10.6095 1.75986C10.5729 1.5966 10.6587 1.4536 10.8272 1.41383L10.7123 0.927206ZM15.2115 1.60161C13.8073 0.766557 12.2957 0.55395 10.7124 0.92719L10.8271 1.41385C12.2885 1.06936 13.6668 1.26472 14.956 2.03136L15.2115 1.60161ZM17.9533 5.09603C17.4823 3.59675 16.5736 2.41056 15.2114 1.60154L14.9561 2.03143C16.208 2.77498 17.0407 3.8591 17.4763 5.24588L17.9533 5.09603ZM18.1483 6.02899C18.1008 5.72874 18.0503 5.40652 17.9534 5.09638L17.4762 5.24552C17.5603 5.51479 17.6059 5.80032 17.6544 6.10704L18.1483 6.02899ZM18.1493 6.03607L18.1493 6.03603L17.6534 6.10001L17.6534 6.10006L18.1493 6.03607ZM18.2173 6.43896C18.1919 6.30523 18.1705 6.1694 18.1483 6.02904L17.6544 6.10709C17.6764 6.24616 17.699 6.38959 17.7261 6.53212L18.2173 6.43896ZM18.2321 6.5226L18.2179 6.44209L17.7255 6.52899L17.7397 6.60949L18.2321 6.5226ZM18.2462 6.60264L18.2321 6.5226L17.7397 6.60949L17.7538 6.68953L18.2462 6.60264ZM18.2481 7.40915C18.2481 7.15401 18.2481 6.89996 18.25 6.64795L17.75 6.64422C17.7481 6.89841 17.7481 7.15433 17.7481 7.40915H18.2481ZM18.2006 7.71419C18.2151 7.62568 18.2293 7.5387 18.2444 7.45213L17.7518 7.36618C17.7362 7.45579 17.7215 7.54537 17.7071 7.63344L18.2006 7.71419ZM6.42139 18.0981L6.42141 18.0981L6.73376 17.7077L6.73374 17.7077L6.42139 18.0981ZM6.1212 17.8426C6.21981 17.9491 6.33525 18.0342 6.42826 18.1034L6.72686 17.7024C6.6271 17.6281 6.55008 17.5699 6.48818 17.503L6.1212 17.8426ZM2.05968 12.3272C3.15707 14.3614 4.5712 16.1596 6.1208 17.8421L6.48858 17.5034C4.95569 15.839 3.57065 14.0749 2.49973 12.0898L2.05968 12.3272ZM0.837617 9.03369C1.03859 10.22 1.50565 11.2994 2.05964 12.3271L2.49977 12.0899C1.95826 11.0853 1.51871 10.0606 1.33059 8.95017L0.837617 9.03369ZM1.25004 5.58083C0.789164 6.68497 0.634663 7.83961 0.83764 9.03382L1.33057 8.95004C1.14446 7.85506 1.28461 6.79605 1.71146 5.77343L1.25004 5.58083ZM3.27548 3.00006C2.36488 3.67465 1.68692 4.5398 1.25023 5.58038L1.71127 5.77387C2.1132 4.81613 2.73471 4.02293 3.57312 3.40182L3.27548 3.00006ZM5.96176 1.88275C4.97236 2.03057 4.07849 2.40568 3.27557 3L3.57304 3.40188C4.31136 2.85538 5.12872 2.51275 6.03565 2.37726L5.96176 1.88275ZM12.3181 5.33069C11.193 2.94287 8.65063 1.4803 5.9617 1.88276L6.03571 2.37725C8.49559 2.00908 10.8301 3.34568 11.8657 5.54381L12.3181 5.33069ZM12.5441 10.2448C13.1046 8.58473 13.0775 6.9401 12.318 5.33056L11.8658 5.54394C12.5644 7.02444 12.594 8.53407 12.0704 10.0849L12.5441 10.2448ZM10.7414 13.8143C11.4673 12.6977 12.1099 11.528 12.544 10.245L12.0704 10.0847C11.6546 11.3138 11.0354 12.4447 10.3222 13.5417L10.7414 13.8143ZM7.56272 17.8427C8.72613 16.5881 9.80463 15.2566 10.7414 13.8142L10.3221 13.5418C9.40413 14.9552 8.34453 16.2642 7.19608 17.5028L7.56272 17.8427ZM7.25583 18.1034C7.34884 18.0342 7.46428 17.9491 7.56289 17.8426L7.19591 17.503C7.13401 17.5699 7.05699 17.6281 6.95722 17.7024L7.25583 18.1034ZM7.26268 18.0981L7.2627 18.0981L6.95035 17.7077L6.95033 17.7077L7.26268 18.0981ZM7.13204 18.198C7.17049 18.167 7.21091 18.1369 7.25581 18.1034L6.9572 17.7024C6.91361 17.7349 6.86548 17.7706 6.81837 17.8086L7.13204 18.198ZM6.70889 18.2533H6.9752V17.7533H6.70889V18.2533ZM6.42828 18.1034C6.47318 18.1369 6.5136 18.167 6.55205 18.198L6.86572 17.8086C6.8186 17.7706 6.77048 17.7349 6.72688 17.7024L6.42828 18.1034ZM7.22947 15.8654C7.04216 16.0941 6.85247 16.3257 6.66172 16.5618L7.0507 16.876C7.24019 16.6414 7.42881 16.4111 7.61629 16.1822L7.22947 15.8654ZM8.38979 14.4174C8.01738 14.9033 7.62894 15.3776 7.22947 15.8654L7.61629 16.1822C8.01488 15.6955 8.40849 15.215 8.78665 14.7216L8.38979 14.4174ZM11.0049 9.91179C10.4092 11.5602 9.46506 13.0194 8.39005 14.4171L8.78639 14.7219C9.87592 13.3053 10.8545 11.7992 11.4752 10.0817L11.0049 9.91179ZM11.2949 7.20927C11.4726 8.12618 11.3275 9.0194 11.0049 9.91179L11.4752 10.0817C11.8175 9.13445 11.9859 8.14644 11.7858 7.11414L11.2949 7.20927ZM9.01034 3.95458C10.2722 4.67335 11.0187 5.77593 11.2949 7.20901L11.7859 7.1144C11.484 5.5481 10.6553 4.31615 9.25781 3.52012L9.01034 3.95458ZM5.36045 3.63877C6.62488 3.19218 7.85062 3.29419 9.01037 3.9546L9.25779 3.5201C7.96968 2.7866 6.59268 2.67328 5.19393 3.16731L5.36045 3.63877ZM2.87767 5.79547C3.43349 4.76118 4.25694 4.02866 5.36048 3.63876L5.19391 3.16732C3.96669 3.60092 3.04869 4.42098 2.43724 5.55878L2.87767 5.79547ZM2.36632 8.70508C2.21038 7.678 2.38872 6.70686 2.87776 5.79531L2.43716 5.55894C1.8987 6.56261 1.69929 7.64269 1.87199 8.78014L2.36632 8.70508ZM3.19492 11.1322C2.80599 10.3488 2.495 9.55329 2.36633 8.70511L1.87198 8.78011C2.01151 9.69983 2.34649 10.5476 2.74707 11.3545L3.19492 11.1322ZM6.03147 15.361C4.94384 14.0348 3.95191 12.6573 3.19493 11.1322L2.74706 11.3545C3.52754 12.927 4.54528 14.3373 5.64485 15.6781L6.03147 15.361ZM6.77696 16.2417C6.51599 15.937 6.27071 15.6506 6.0309 15.3603L5.64542 15.6788C5.88855 15.9731 6.13677 16.2629 6.39722 16.567L6.77696 16.2417ZM6.77527 16.2397L6.77524 16.2397L6.39895 16.5689L6.39898 16.569L6.77527 16.2397ZM6.77695 16.2417L6.77669 16.2414L6.39756 16.5673L6.39782 16.5677L6.77695 16.2417ZM7.04638 16.5566C6.95479 16.4493 6.86515 16.3446 6.77726 16.242L6.39751 16.5673C6.48544 16.67 6.57479 16.7743 6.66604 16.8812L7.04638 16.5566ZM6.84454 5.5003C8.16803 5.50201 9.25355 6.59441 9.24671 7.91785L9.7467 7.92043C9.75497 6.32005 8.44552 5.00236 6.84518 5.0003L6.84454 5.5003ZM4.43546 7.89588C4.4423 6.57512 5.52811 5.49688 6.84421 5.5003L6.84551 5.0003C5.25289 4.99616 3.94373 6.29778 3.93546 7.89329L4.43546 7.89588ZM6.83763 10.3134C5.51414 10.3117 4.42862 9.21932 4.43546 7.89588L3.93546 7.89329C3.92719 9.49368 5.23664 10.8114 6.83698 10.8134L6.83763 10.3134ZM9.24671 7.91785C9.23986 9.23831 8.15427 10.3151 6.83763 10.3134L6.83698 10.8134C8.42905 10.8155 9.73843 9.51624 9.7467 7.92044L9.24671 7.91785ZM4.99895 7.87421C4.97027 8.87561 5.80116 9.72417 6.81441 9.74809L6.82621 9.24823C6.07911 9.23059 5.47831 8.60213 5.49874 7.88852L4.99895 7.87421ZM6.87769 6.06382C5.87681 6.03067 5.02933 6.86056 4.99896 7.87387L5.49873 7.88886C5.52124 7.13805 6.15078 6.54002 6.86114 6.56354L6.87769 6.06382ZM8.68312 7.94795C8.72296 6.94532 7.89365 6.09848 6.87794 6.06382L6.86089 6.56353C7.61685 6.58932 8.21167 7.2195 8.18352 7.9281L8.68312 7.94795ZM6.81422 9.74808C7.81165 9.77236 8.64198 8.95925 8.68311 7.94819L8.18353 7.92787C8.15289 8.68093 7.53642 9.26551 6.82639 9.24823L6.81422 9.74808Z" fill="#B4B4B4"/>
</svg>
