<?xml version="1.0" encoding="utf-8"?>
<!-- Generator: Adobe Illustrator 25.2.1, SVG Export Plug-In . SVG Version: 6.00 Build 0)  -->
<svg version="1.1" id="Слой_1" xmlns="http://www.w3.org/2000/svg" xmlns:xlink="http://www.w3.org/1999/xlink" x="0px" y="0px"
	 viewBox="0 0 1080 1080" style="enable-background:new 0 0 1080 1080;" xml:space="preserve">
<style type="text/css">
	.st0{fill:#FFFFFF;stroke:#FFFFFF;stroke-width:15;}
</style>
<path class="st0" d="M540.9,106c239.7,0.3,434.9,196,434.2,435.3c-0.7,239.6-195.7,434.1-434.8,433.8
	c-239.7-0.3-434.9-196-434.2-435.3C106.8,300.3,301.8,105.7,540.9,106z M540.2,902.6c199.2,0.3,362-162.2,362.4-361.6
	c0.3-199.3-162.1-362.1-361.6-362.4c-199.2-0.3-362,162.2-362.4,361.6C178.3,739.5,340.8,902.3,540.2,902.6z"/>
<path class="st0" d="M576.7,504.5c4.6,0,8.1,0,11.6,0c43.1,0,86.3-0.1,129.4,0.1c18.9,0.1,32.1,8.9,37.3,24.3
	c8.3,24.4-9,47.5-36.3,47.8c-40.2,0.4-80.4,0.1-120.5,0.1c-21.4,0-21.4,0-21.4,21.1c0,39.9,0.1,79.8-0.1,119.7
	c-0.1,19-8.8,32.2-24,37.4c-24.3,8.4-47.7-8.8-47.9-36.1c-0.4-36.6-0.1-73.3-0.1-109.9c0-8-0.4-16,0.1-23.9c0.5-6.8-2.1-8.5-8.6-8.4
	c-40.5,0.3-81,0.1-121.4,0.1c-5.9,0-11.8,0.1-17.7-0.4c-18.6-1.5-32.6-17-32.6-35.6c0-18.6,14-35.1,32.6-35.5
	c35.1-0.9,70.3-0.5,105.5-0.6c10.6,0,21.3-0.5,31.9,0.1c7.9,0.5,10.6-1.8,10.5-10.2c-0.4-43.4-0.3-86.9-0.2-130.3
	c0.1-19.9,9.1-33.2,25.3-38.2c22.4-6.8,45.5,8.2,46.2,31.5c1,34.8,0.5,69.7,0.6,104.6C576.7,475.6,576.7,489.2,576.7,504.5z"/>
</svg>
