<?xml version="1.0" encoding="utf-8"?>
<!-- Generator: Adobe Illustrator 25.2.1, SVG Export Plug-In . SVG Version: 6.00 Build 0)  -->
<svg version="1.1" id="Слой_1" xmlns="http://www.w3.org/2000/svg" xmlns:xlink="http://www.w3.org/1999/xlink" x="0px" y="0px"
	 viewBox="0 0 1080 1080" style="enable-background:new 0 0 1080 1080;" xml:space="preserve">
<style type="text/css">
	.st0{fill:#FFFFFF;stroke:#FFFFFF;stroke-width:26;}
</style>
<path class="st0" d="M359.4,907.1c-14.9-3.3-30.1-5.5-44.5-10.2c-81.1-26.4-133.7-109.7-123.7-194.5c5.1-43.4,22.9-80.4,53.7-111.3
	c125.8-125.9,251.7-251.7,377.6-377.6c22-22,48.3-35.5,79.3-39.4c1.1-0.1,2.2-0.8,3.3-1.2c9.6,0,19.1,0,28.7,0
	c10.1,2.5,20.5,4.3,30.3,7.7c93.8,33.3,121,151.4,51,222.5c-58.7,59.6-118.2,118.4-177.3,177.5C580.8,637.4,524,694.2,467.2,751
	c-13.6,13.6-28.6,24.3-48.2,27.6c-31.6,5.3-63.7-10-79.8-38.7c-15.5-27.7-11.7-63.2,9.3-86.9c1.9-2.1,3.9-4.2,5.9-6.3
	c58.8-58.8,117.5-117.7,176.5-176.3c3.8-3.8,9.3-6.9,14.5-8c7.4-1.6,13.6,2.3,17.1,9c3.5,6.7,3,13.4-1.6,19.6
	c-1.7,2.3-3.9,4.2-5.9,6.3c-58.5,58.5-116.9,117-175.4,175.4c-12.1,12.1-16.7,26.1-11.7,42.4c8.4,27.4,41.8,37.2,63.9,19
	c2.2-1.8,4.2-3.9,6.3-5.9c116.3-116.2,232.7-232.3,349-348.5c31.1-31.1,39.5-74.6,21.9-112.6c-29-62.9-110.9-77.6-160.3-28.4
	c-126,125.7-251.8,251.7-377.7,377.6c-3.5,3.5-7,7.2-10.2,11.1c-35.9,45.3-45,95.7-24,149.3c20.8,53.2,61.5,84.5,118,92.5
	c49,6.9,91.4-8.7,126.5-43.7c49.7-49.6,99.4-99.3,149-149c74.7-74.7,149.4-149.4,224.1-224c2-2,4-4.1,6.2-5.9
	c7.4-5.7,16.9-5.3,23.5,1c6.8,6.4,7.6,16.4,1.8,24.1c-1.6,2.1-3.5,3.9-5.3,5.8C757,601.3,633,725,509.3,849
	c-32,32.1-69.7,52-115.1,56.9c-1.1,0.1-2.2,0.8-3.4,1.2C380.4,907.1,369.9,907.1,359.4,907.1z"/>
</svg>
