<?xml version="1.0" encoding="utf-8"?>
<!-- Generator: Adobe Illustrator 25.2.1, SVG Export Plug-In . SVG Version: 6.00 Build 0)  -->
<svg version="1.1" id="Слой_1" xmlns="http://www.w3.org/2000/svg" xmlns:xlink="http://www.w3.org/1999/xlink" x="0px" y="0px"
	 viewBox="0 0 1080 1080" style="enable-background:new 0 0 1080 1080;" xml:space="preserve">
<style type="text/css">
	.st0{fill:#FFFFFF;stroke:#FFFFFF;stroke-width:26;}
</style>
<path class="st0" d="M539.6,586.7c-4.1,5.6-6.2,9.1-9,11.9c-92.5,92.6-185.1,185.1-277.5,277.7c-11.2,11.2-23.6,16.9-39.4,11.6
	c-22.9-7.8-31.2-35.4-16.2-54.5c2.5-3.1,5.5-5.9,8.3-8.7c91.5-91.5,183-183.1,274.5-274.5c3.1-3.1,6.7-5.6,10.9-9.1
	c-4.2-4.4-7-7.5-10-10.5c-92.5-92.6-185-185.1-277.6-277.6c-10.9-10.9-16.7-22.9-11.9-38.3c7.5-24.2,36.1-32.7,55.6-16.6
	c3.1,2.5,5.8,5.5,8.7,8.3c91.5,91.5,183,183,274.5,274.6c2.8,2.8,5.1,6.2,8.3,10.2c4.4-4.2,7.5-7,10.5-10
	c92.5-92.5,185.1-185.1,277.6-277.7c10.9-10.9,22.9-16.7,38.3-11.9c24.2,7.5,32.7,36.1,16.6,55.7c-2.5,3.1-5.5,5.8-8.3,8.7
	c-91.2,91.3-182.5,182.5-273.8,273.8c-3.1,3.1-6.5,5.8-10.6,9.4c3.9,4.1,6.7,7.2,9.7,10.2c92.5,92.6,185,185.2,277.6,277.6
	c10.6,10.5,16.4,22.3,12.2,37.3c-7,24.9-36.1,34-56,17.6c-3.1-2.5-5.8-5.5-8.6-8.4c-91.2-91.2-182.5-182.5-273.7-273.8
	C547.2,596.5,544.7,592.9,539.6,586.7z"/>
</svg>
