<?xml version="1.0" encoding="utf-8"?>
<!-- Generator: Adobe Illustrator 25.2.1, SVG Export Plug-In . SVG Version: 6.00 Build 0)  -->
<svg version="1.1" id="Слой_1" xmlns="http://www.w3.org/2000/svg" xmlns:xlink="http://www.w3.org/1999/xlink" x="0px" y="0px"
	 viewBox="0 0 1080 1080" style="enable-background:new 0 0 1080 1080;" xml:space="preserve">
<style type="text/css">
	.st0{fill:#FFFFFF;}
</style>
<path class="st0" d="M484.3,560.5c0-7.7,0-12.8,0-17.8c0-143.5,0-287,0-430.6c0-31.4,15.8-52.5,43.6-59.1
	c32.3-7.7,65,16.2,67.4,49.3c0.4,5.7,0.3,11.4,0.3,17.1c0,140.4,0,280.9,0,421.3c0,4.7,0,9.3,0,16.9c6.1-4.3,9.9-6.9,13.5-9.6
	c40.7-30.6,81-61.7,122.1-91.6c36.1-26.2,84-4.8,88.9,39.2c2.2,19.7-4.7,36.8-20.5,48.7C724,601.5,648.4,658.5,572.2,714.8
	c-20.8,15.4-43.9,14.9-65.1,0c-75.1-52.5-150.1-105.3-224.7-158.6c-25.7-18.3-30.6-52.1-13-77.1c17.5-24.9,50.9-31.7,76.9-14
	c41.4,28,82.1,57.1,123.1,85.7C473.5,553.7,477.8,556.4,484.3,560.5z"/>
<path class="st0" d="M202.6,893.9c225.9,0,449.6,0,674.8,0c0-19.8-0.6-39,0.1-58.2c1-27.4,20.8-48.6,48-52.8c26.1-4,51.5,11,60,36.4
	c2.6,7.7,3.6,16.3,3.7,24.5c0.6,34.7,0.6,69.4,0.7,104c0.1,34.5-25.4,59.4-60.1,59.3c-254.6-0.2-509.2-0.4-763.8-0.6
	c-10.5,0-21.2,0.6-31.3-1.5c-27.2-5.7-44.7-27.9-44.8-55.6c-0.1-36,0.1-72,0.5-108c0.4-34.9,24.9-60.1,56.9-59.4
	c32,0.7,54.9,25.5,55.1,59.9C202.7,859,202.6,876.1,202.6,893.9z"/>
</svg>
