<?xml version="1.0" encoding="utf-8"?>
<!-- Generator: Adobe Illustrator 25.2.1, SVG Export Plug-In . SVG Version: 6.00 Build 0)  -->
<svg version="1.1" id="Слой_1" xmlns="http://www.w3.org/2000/svg" xmlns:xlink="http://www.w3.org/1999/xlink" x="0px" y="0px"
	 viewBox="0 0 1080 1080" style="enable-background:new 0 0 1080 1080;" xml:space="preserve">
<style type="text/css">
	.st0{fill:#FFFFFF;}
</style>
<path class="st0" d="M194.1,539.9c0-110.7,0-221.3,0-332c0-32,21.4-57.2,52.9-62.4c3.3-0.5,6.6-0.6,10-0.6
	c126.8,0,253.6,0,380.5-0.1c11,0,21.3,2.6,30.7,7.7c12.6,6.8,25.2,13.7,36.7,22.1c58.6,43.2,109.7,94.2,152.5,153.1
	c9.4,13,16.9,27.5,23.6,42.1c3.4,7.4,4.7,16.4,4.7,24.7c0.3,158.8,0.2,317.6,0.2,476.4c0,37.6-26.6,64.2-64.2,64.2
	c-187.8,0-375.6,0-563.4,0c-37.5,0-64.1-26.7-64.1-64.3C194.1,760.6,194.1,650.2,194.1,539.9z M638.9,194.2c-2.5,0-4.2,0-5.8,0
	c-124.5,0-249,0-373.5,0c-11.6,0-15.9,4.3-15.9,16c0,220,0,440,0,659.9c0,11.4,4.3,15.7,15.7,15.7c187.1,0,374.3,0,561.4,0
	c11.1,0,15.5-4.4,15.5-15.4c0-157.7,0-315.3,0-473c0-1.8-0.2-3.5-0.3-5.6c-2.5,0-4.4,0-6.4,0c-54.3,0-108.7,0-163,0
	c-18.1,0-27.8-9.7-27.8-27.7c0-54.5,0-109,0-163.5C638.9,198.7,638.9,196.8,638.9,194.2z M807,342.1
	c-35.5-44.2-74.3-83.3-118.4-118.4c0,40.1,0,79.1,0,118.4C727.7,342.1,766.6,342.1,807,342.1z"/>
<path class="st0" d="M361.7,441.2c2.6,0,4,0,5.5,0c31.5,0,63,0.1,94.5-0.1c3.5,0,5.4,1.3,7.2,4c22.5,33.3,45,66.5,67.6,99.7
	c1,1.5,2.1,3,3.6,5.2c1.2-1.7,2.2-3.1,3.2-4.5c22.6-33.4,45.3-66.7,67.8-100.1c2.1-3.2,4.3-4.3,8.1-4.2c32.7,0.2,65.3,0.1,99,0.1
	c-1.3,2.1-2.3,3.7-3.3,5.3c-39.5,59.1-79.1,118.3-118.7,177.3c-2.3,3.4-2.4,5.6,0,9.1c44.8,65.8,89.5,131.7,134.2,197.6
	c1.1,1.6,2.1,3.3,3.6,5.6c-2.1,0.1-3.7,0.3-5.2,0.3c-32.7,0-65.3,0-98,0.1c-3.7,0-5.7-1.3-7.6-4.2c-26.5-39.8-53.1-79.5-79.7-119.3
	c-1-1.5-2.1-2.9-3.5-5c-12.9,19.2-25.4,38-38.4,57.5c13,0,25.4,0,38.1,0c0,23.8,0,47,0,70.5c-64.3,0-128.5,0-193.7,0
	c47.2-69.5,94-138.5,140.9-207.7C445.4,566.3,403.9,504.2,361.7,441.2z"/>
</svg>
