<?xml version="1.0" encoding="utf-8"?>
<!-- Generator: Adobe Illustrator 25.2.1, SVG Export Plug-In . SVG Version: 6.00 Build 0)  -->
<svg version="1.1" id="Слой_1" xmlns="http://www.w3.org/2000/svg" xmlns:xlink="http://www.w3.org/1999/xlink" x="0px" y="0px"
	 viewBox="0 0 1080 1080" style="enable-background:new 0 0 1080 1080;" xml:space="preserve">
<style type="text/css">
	.st0{fill:#FFFFFF;}
</style>
<path class="st0" d="M242.7,273.1c0,188.8,0,376.1,0,564c188,0,375.5,0,564,0c0-4.4,0-8.3,0-12.3c0-57.7-0.1-115.4,0-173.1
	c0.1-35,24.9-54.9,59.1-47.9c17.5,3.6,30.3,16.3,33.5,33.8c1.1,6.1,1.6,12.4,1.6,18.6c0.1,58.1,0.1,116.1,0.1,174.2
	C900.9,892.1,861.2,932,799.7,932c-183.3,0.1-366.7,0-550,0C188,932,148,892.3,148,830.9c-0.1-183.7-0.1-367.5,0-551.2
	c0-60.8,40-100.7,100.9-100.7c59.5-0.1,119-0.2,178.6,0.1c35.5,0.2,55.3,24.3,48.7,58.6c-4.3,22-21.5,35.5-46.4,35.6
	c-58.1,0.2-116.1,0.1-174.2,0.1C251.6,273.1,247.6,273.1,242.7,273.1z"/>
<path class="st0" d="M784.6,226.3c-3.9,0-7.8,0-11.7,0c-35.3,0-70.5,0.3-105.8-0.1c-31.4-0.4-49.4-19.4-48.2-50.1
	c1-25.6,18.4-43.7,44.3-43.8c80.8-0.4,161.6-0.4,242.4,0c22.9,0.1,42,19.7,42.1,42.7c0.3,80.5,0.3,160.9,0,241.4
	c-0.1,26.1-17.9,43.6-43.4,44.7c-28,1.2-47.3-13.3-49.7-40.1c-1.8-20.4-0.8-41.1-0.9-61.7c-0.1-21.3,0-42.5,0-66.7
	c-4.6,4.4-7.4,6.9-10,9.6C764.8,380.9,686.3,459.8,607.1,538c-7.9,7.8-19.1,14.2-29.9,16.6c-19.5,4.4-38.5-7.4-47.8-25.9
	c-8.6-17-5.9-36.2,7.3-51.2c2.7-3,5.6-5.8,8.4-8.7c77.1-77.2,154.3-154.3,231.5-231.4c2.8-2.8,6.2-5.1,9.4-7.7
	C785.5,228.6,785,227.4,784.6,226.3z"/>
</svg>
