<?xml version="1.0" encoding="utf-8"?>
<!-- Generator: Adobe Illustrator 25.2.1, SVG Export Plug-In . SVG Version: 6.00 Build 0)  -->
<svg version="1.1" id="Слой_1" xmlns="http://www.w3.org/2000/svg" xmlns:xlink="http://www.w3.org/1999/xlink" x="0px" y="0px"
	 viewBox="0 0 1080 1080" style="enable-background:new 0 0 1080 1080;" xml:space="preserve">
<style type="text/css">
	.st0{fill:#FFFFFF;}
</style>
<path class="st0" d="M890,368.8c-1,6.8-1.8,13.5-3,20.2c-4.9,28.2-16.4,53.6-35.4,75c-14.6,16.5-30.7,31.7-46.3,47.3
	c-27.3,27.2-54.6,54.4-82.2,81.3c-14.7,14.3-29.2,28.9-45,42c-25,20.8-53.2,36.1-85.9,41.2c-35.3,5.6-67.4-2.5-96.3-23.1
	c-7.3-5.2-14.2-11.1-20.8-17.1c-18.1-16.6-18.8-44.4-1.8-62.3c16.4-17.3,44.4-17.3,61.7-0.2c7.4,7.3,15.3,13.7,25.6,16.4
	c13.5,3.6,26,0.2,38.2-5.6c16.1-7.8,29.4-19.3,42-31.7c40.9-40.4,81.6-80.8,122.4-121.3c6.5-6.4,13.2-12.6,19.4-19.3
	c30.2-32.7,26.9-82-7.3-111.7c-12.7-11.1-27-19.3-43.9-21.9c-22.2-3.5-40.4,4.3-55.9,20c-14,14.3-28.2,28.4-42.7,42.3
	c-17.4,16.7-44.8,15.9-61.4-1.6c-15.8-16.6-15.9-43.1,0.2-59.5c16-16.3,32-32.5,48.6-48.2c23.1-21.8,50.4-35.4,82-39.6
	c3.3-0.5,6.5-0.9,9.7-1.4c6.1,0,12.2,0,18.3,0c1.4,0.2,2.7,0.6,4,0.7c12.9,0.9,25.3,3.7,37.4,7.8c25,8.8,46.8,22.6,66,40.8
	c25.7,24.3,42.3,53.7,49.2,88.4c1.4,7,2.1,14.2,3.1,21.3C890,355.6,890,362.2,890,368.8z"/>
<path class="st0" d="M190,715.8c1-7,1.8-14,3-21c4.7-25.6,14.6-49.2,31.5-69c14-16.4,29.7-31.6,44.9-46.9
	c22.1-22.2,44.4-44.2,66.6-66.2c14.6-14.5,29-29.1,44.1-43c23.9-22.1,50.8-40,82-50.3c50.6-16.8,97.1-9.9,138.1,25.8
	c9.2,8,16.1,17.3,18.1,29.8c2.7,17.8-6.2,36.1-22.2,44.7c-16.1,8.6-36.6,6.4-49.5-6c-11-10.7-23.5-17-39.1-16.2
	c-11.5,0.6-22.1,4.3-32.1,9.7c-17.9,9.4-33,22.4-47.3,36.6c-35.5,35.2-71.1,70.5-106.6,105.8c-8.8,8.7-17.8,17-25.9,26.3
	c-32.9,37.4-20.6,96.9,24,119.2c27.8,13.9,66.3,11.9,93.9-16.6c11-11.3,22.2-22.6,33.7-33.5c17.2-16.4,43.7-16,60.4,0.5
	c16.6,16.3,17.8,43.1,1.4,60c-17.2,17.7-34.7,35.2-53.6,51.1c-21.2,17.7-46.4,27.5-73.8,31.6c-5.5,0.8-11,1.5-16.4,2.2
	c-6.6,0-13.2,0-19.8,0c-1.2-0.2-2.4-0.6-3.7-0.7c-13.8-0.9-27.3-3.7-40.3-8.3c-33.3-11.6-60.4-31.8-81-60.6
	c-14-19.6-23.4-41.2-27.4-65.1c-1.1-6.5-1.9-13.2-2.8-19.8C190,728.9,190,722.4,190,715.8z"/>
</svg>
