<?xml version="1.0" encoding="utf-8"?>
<!-- Generator: Adobe Illustrator 25.2.1, SVG Export Plug-In . SVG Version: 6.00 Build 0)  -->
<svg version="1.1" id="Слой_1" xmlns="http://www.w3.org/2000/svg" xmlns:xlink="http://www.w3.org/1999/xlink" x="0px" y="0px"
	 viewBox="0 0 1080 1080" style="enable-background:new 0 0 1080 1080;" xml:space="preserve">
<style type="text/css">
	.st0{fill:#FFFFFF;}
</style>
<path class="st0" d="M1000,315c-1.3,8.9-2.3,17.7-3.9,26.6c-6.4,37.1-21.6,70.4-46.5,98.5c-19.2,21.7-40.3,41.7-60.8,62.1
	c-35.9,35.8-71.8,71.5-108,106.9c-19.3,18.8-38.4,38-59.1,55.2c-32.9,27.4-69.9,47.4-112.9,54.2c-46.4,7.4-88.6-3.3-126.6-30.4
	c-9.6-6.8-18.6-14.6-27.3-22.5c-23.8-21.8-24.7-58.4-2.3-81.9c21.6-22.7,58.3-22.8,81.1-0.3c9.7,9.6,20.1,18,33.6,21.5
	c17.8,4.7,34.2,0.3,50.2-7.4c21.1-10.2,38.7-25.3,55.2-41.6c53.7-53.1,107.2-106.2,160.8-159.4c8.5-8.4,17.3-16.6,25.5-25.4
	c39.7-43,35.4-107.7-9.6-146.8c-16.7-14.6-35.5-25.3-57.7-28.8c-29.2-4.6-53.1,5.6-73.4,26.3c-18.4,18.8-37.1,37.3-56.1,55.6
	c-22.9,22-58.9,20.9-80.7-2.1c-20.8-21.8-20.9-56.7,0.2-78.2c21-21.4,42.1-42.7,63.9-63.3c30.3-28.7,66.2-46.5,107.8-52
	c4.3-0.6,8.5-1.2,12.7-1.9c8,0,16,0,24,0c1.8,0.3,3.5,0.8,5.3,0.9c16.9,1.2,33.3,4.8,49.2,10.3c32.8,11.5,61.5,29.7,86.8,53.6
	c33.8,32,55.6,70.6,64.7,116.2c1.8,9.2,2.7,18.7,4.1,28C1000,297.7,1000,306.3,1000,315z"/>
<path class="st0" d="M80,771c1.3-9.2,2.3-18.4,4-27.6c6.2-33.7,19.2-64.7,41.4-90.7c18.4-21.6,39-41.5,59-61.7
	c29-29.2,58.3-58.1,87.5-87c19.2-19,38.1-38.2,57.9-56.5c31.4-29.1,66.7-52.6,107.7-66.1c66.5-22.1,127.6-13,181.5,33.9
	c12.1,10.5,21.2,22.7,23.8,39.2c3.6,23.4-8.1,47.5-29.2,58.8c-21.1,11.3-48.1,8.4-65.1-7.9c-14.5-14-30.9-22.4-51.4-21.3
	c-15.1,0.8-29,5.7-42.2,12.7c-23.5,12.4-43.4,29.5-62.2,48.1c-46.7,46.3-93.4,92.7-140.1,139.1c-11.5,11.4-23.4,22.4-34,34.5
	c-43.2,49.2-27.1,127.3,31.6,156.6c36.6,18.3,87.1,15.6,123.4-21.8c14.5-14.9,29.2-29.7,44.3-44c22.6-21.5,57.4-21,79.4,0.6
	c21.8,21.4,23.4,56.6,1.8,78.8c-22.6,23.3-45.6,46.3-70.5,67.1c-27.8,23.3-61,36.2-97,41.5c-7.2,1.1-14.4,2-21.6,2.9
	c-8.7,0-17.3,0-26,0c-1.6-0.3-3.2-0.8-4.8-0.9c-18.2-1.2-35.9-4.9-53-10.9c-43.8-15.3-79.4-41.8-106.5-79.6
	c-18.4-25.8-30.7-54.2-36-85.6c-1.4-8.6-2.5-17.3-3.7-26C80,788.3,80,779.7,80,771z"/>
<path class="st0" d="M1000,289c-1.3-9.3-2.2-18.8-4.1-28c-9.1-45.6-30.8-84.2-64.7-116.2c-25.3-23.9-54-42.1-86.8-53.6
	c-15.9-5.6-32.3-9.1-49.2-10.3c-1.8-0.1-3.6-0.6-5.3-0.9c70,0,140,0,210,0C1000,149.7,1000,219.3,1000,289z"/>
<path class="st0" d="M80,797c1.2,8.7,2.3,17.4,3.7,26c5.2,31.3,17.5,59.8,36,85.6c27,37.8,62.7,64.3,106.5,79.6
	c17.1,6,34.8,9.7,53,10.9c1.6,0.1,3.2,0.6,4.8,0.9c-68,0-136,0-204,0C80,932.3,80,864.7,80,797z"/>
</svg>
