<?xml version="1.0" encoding="utf-8"?>
<!-- Generator: Adobe Illustrator 25.2.1, SVG Export Plug-In . SVG Version: 6.00 Build 0)  -->
<svg version="1.1" id="Слой_1" xmlns="http://www.w3.org/2000/svg" xmlns:xlink="http://www.w3.org/1999/xlink" x="0px" y="0px"
	 viewBox="0 0 1080 1080" style="enable-background:new 0 0 1080 1080;" xml:space="preserve">
<style type="text/css">
	.st0{fill:#FFFFFF;}
</style>
<path class="st0" d="M194.1,540c0-110.7,0-221.3,0-332c0-32.1,21.3-57.3,52.9-62.5c3.4-0.6,7-0.6,10.5-0.6c126.5,0,253,0,379.5-0.1
	c11.3,0,21.7,3.1,31.7,7.7c17.3,8.1,33,18.8,47.9,30.5c53.3,41.9,101.1,89.4,140.7,144.6c9.4,13,16.9,27.5,23.7,42.1
	c3.4,7.4,4.7,16.4,4.7,24.7c0.3,159,0.2,318,0.2,476.9c0,37-26.7,63.7-63.6,63.7c-188.1,0-376.3,0-564.4,0
	c-36.9,0-63.7-26.8-63.7-63.7C194.1,761,194.1,650.5,194.1,540z M638.9,194.2c-2.4,0-4,0-5.7,0c-124.7,0-249.3,0-374,0
	c-11.1,0-15.5,4.4-15.5,15.3c0,220.3,0,440.6,0,660.9c0,11,4.4,15.4,15.5,15.4c187.1,0,374.3,0,561.4,0c11.4,0,15.7-4.3,15.7-15.7
	c0-157.5,0-315,0-472.5c0-1.8,0-3.5,0-5.8c-2.6,0-4.5,0-6.5,0c-54.5,0-109,0-163.5,0c-17.7,0-27.5-9.8-27.5-27.5
	c0-54.5,0-109,0-163.5C638.9,198.9,638.9,196.9,638.9,194.2z M806.9,342.1c-35.4-44.2-74.3-83.3-118.4-118.4c0,40.1,0,79.1,0,118.4
	C727.7,342.1,766.6,342.1,806.9,342.1z"/>
<path class="st0" d="M548.8,339.6c-2.6,36.4-7.2,74.3-14.8,111.7c-0.4,1.8-0.4,4,0.3,5.7c14.2,37.3,34.5,70.9,62.4,99.6
	c12.6,12.9,27.4,22.7,42.9,31.6c1.6,0.9,3.8,1,5.7,0.8c30.5-3.8,61-6.5,91.7-5.1c14.3,0.7,28.6,2,42.2,7c4.2,1.5,8.3,3.5,12,6.1
	c7.4,5.2,12.3,12.2,12,21.8c-0.2,6.3,0,12.7-1.2,18.9c-3.3,17.7-13.7,26.4-31.7,27.3c-20.4,1-40.1-3.1-59.6-8.5
	c-28-7.8-54.7-19-80.3-32.6c-2.3-1.2-5.4-1.9-8-1.5c-61,9.5-120.8,23.9-179.6,42.5c-3.4,1.1-5.6,2.8-7.4,5.9
	c-17.2,29.7-35,59.1-57.3,85.4c-7.9,9.4-16.8,18.1-26.1,26.1c-5.7,4.9-12.6,8.7-19.5,11.9c-12,5.6-24.2,5.1-36.1-1.2
	c-2.2-1.2-4.5-2.2-6.7-3.3c-12-6.1-16.2-14.4-11.9-27.4c2.6-7.8,6.5-15.3,11.1-22.2c9.6-14.2,22.5-25.3,35.9-35.9
	c21.9-17.4,46.7-30.1,71.2-43.2c2.9-1.5,5.7-4.1,7.3-7c33.4-59,65.1-118.9,91-181.6c1.2-2.8,1.3-6.5,0.6-9.5
	c-6.3-31.1-13.5-62.1-19.2-93.4c-3.7-20-4.2-40.5-0.2-60.7c3.5-17.3,13.9-26.1,31.6-26.7c4.2-0.1,8.3,0,12.5,0.3
	c7.8,0.5,13.8,4.4,18.6,10.4c7.1,9,10.2,19.3,10.6,30.6C548.9,328.3,548.8,333.2,548.8,339.6z M453.8,635.9
	c44.4-16.3,89.9-28,135.1-37.1c-13.4-13.6-27.8-26.6-40.2-41.3c-12.5-14.8-22.9-31.3-34.3-47.2C498,553.4,476.5,594.8,453.8,635.9z
	 M518.6,405.1c1.6-3.2,2.6-5,3.4-7c9.9-21.9,10.9-44.8,7.2-68.1c-1.3-8.4-4.2-16.7-7.3-24.7c-1-2.7-5-4.2-7.6-6.3
	c-1.1,2.8-3.1,5.6-3.2,8.4c-0.6,14.8-1.3,29.6-0.8,44.4C511,369.4,513.3,386.7,518.6,405.1z M692.2,614c1,0.9,1.3,1.4,1.7,1.5
	c16.9,6.2,33.6,12.7,50.6,18.3c11.2,3.7,22.9,4.5,34.6,1.8c2.5-0.6,6.4-2.5,6.5-4c0.2-2.6-1.4-6.5-3.6-7.9c-4.3-2.9-9.3-5-14.3-6.6
	c-18-5.6-36.6-4.5-55.1-4.2C706.1,613.1,699.5,613.6,692.2,614z M382.7,687.9c-29.1,24.1-57,49.3-73.4,84.4
	C342.5,751.7,361.9,719.2,382.7,687.9z"/>
</svg>
