<?xml version="1.0" encoding="utf-8"?>
<!-- Generator: Adobe Illustrator 25.2.1, SVG Export Plug-In . SVG Version: 6.00 Build 0)  -->
<svg version="1.1" id="Слой_1" xmlns="http://www.w3.org/2000/svg" xmlns:xlink="http://www.w3.org/1999/xlink" x="0px" y="0px"
	 viewBox="0 0 1080 1080" style="enable-background:new 0 0 1080 1080;" xml:space="preserve">
<style type="text/css">
	.st0{fill:#FFFFFF;}
</style>
<path class="st0" d="M194.1,540c0-110.7,0-221.3,0-332c0-32.1,21.4-57.3,52.9-62.5c3.4-0.6,7-0.6,10.5-0.6c126.5,0,253,0,379.5-0.1
	c11.3,0,21.7,3.1,31.7,7.7c17.3,8.1,33,18.8,47.9,30.5c53.3,41.9,101.1,89.4,140.7,144.6c9.4,13,16.9,27.5,23.6,42.1
	c3.4,7.4,4.7,16.4,4.7,24.7c0.3,159,0.2,318,0.2,476.9c0,36.9-26.7,63.7-63.6,63.7c-188.1,0-376.3,0-564.4,0
	c-36.9,0-63.7-26.8-63.7-63.8C194.1,761,194.1,650.5,194.1,540z M638.9,194.2c-2.5,0-4.2,0-5.8,0c-124.5,0-249,0-373.5,0
	c-11.6,0-15.9,4.3-15.9,16c0,220,0,440,0,659.9c0,11.4,4.3,15.7,15.7,15.7c187.1,0,374.3,0,561.4,0c11.1,0,15.5-4.4,15.5-15.4
	c0-157.7,0-315.3,0-473c0-1.8-0.2-3.5-0.3-5.6c-2.5,0-4.4,0-6.4,0c-54.3,0-108.7,0-163,0c-18.1,0-27.8-9.7-27.8-27.7
	c0-54.5,0-109,0-163.5C638.9,198.7,638.9,196.8,638.9,194.2z M688.5,342.1c39.3,0,78.2,0,117.4,0c-10-20.1-102.8-112.5-117.4-117
	C688.5,263.9,688.5,302.8,688.5,342.1z"/>
<path class="st0" d="M293.1,836c0-13.9,0-27.2,0-40.5c0-18-0.1-36,0.1-54c0-2.2,0.5-4.7,1.6-6.6c48.2-80.6,96.6-161.1,144.9-241.6
	c0.4-0.7,0.9-1.4,1.7-2.6c67.6,82.3,135,164.3,202.8,246.9c47.4-32.8,94.7-65.5,142.6-98.6c0,66.1,0,131.3,0,196.9
	C622.3,836,458,836,293.1,836z"/>
<path class="st0" d="M712.7,589.4c-41.2-0.2-74-33.4-73.8-74.7c0.2-40.7,33.7-73.8,74.6-73.5c40.8,0.3,73.7,33.6,73.6,74.5
	C786.9,556.6,753.6,589.6,712.7,589.4z"/>
</svg>
