<?xml version="1.0" encoding="utf-8"?>
<!-- Generator: Adobe Illustrator 25.2.1, SVG Export Plug-In . SVG Version: 6.00 Build 0)  -->
<svg version="1.1" id="Слой_1" xmlns="http://www.w3.org/2000/svg" xmlns:xlink="http://www.w3.org/1999/xlink" x="0px" y="0px"
	 viewBox="0 0 1080 1080" style="enable-background:new 0 0 1080 1080;" xml:space="preserve">
<style type="text/css">
	.st0{fill:#FFFFFF;}
</style>
<path class="st0" d="M194,539.8c0-108.8,0-217.6,0-326.4c0-44.3,24.5-68.5,69.1-68.5c121.3,0,242.7,0.3,364-0.3
	c20.5-0.1,38.6,5,55.7,15.4c47,28.8,87.2,65.8,123.7,106.5c23,25.6,43.5,53.7,63.9,81.5c11.8,16.1,15.6,35.1,15.6,55.5
	c-0.5,154.2-0.2,308.4-0.3,462.7c0,45.4-24,69.4-69.4,69.4c-184.3,0-368.6,0-552.9,0c-45.3,0-69.4-24.1-69.4-69.4
	C194,757.3,194,648.5,194,539.8z M638.8,194.5c-5.9,0-10,0-14.1,0c-120,0-240.1,0-360.1,0c-19.2,0-21.4,2.3-21.4,21.7
	c0,215.8,0,431.6,0,647.5c0,20.2,2.1,22.3,22,22.3c183,0,365.9,0,548.9,0c20.3,0,22.5-2.1,22.5-21.9c0-152.5,0-305,0-457.5
	c0-4.5,0-8.9,0-14.4c-6.2,0-10.7,0-15.3,0c-50.8,0-101.7,0.1-152.5,0c-20.8,0-29.8-8.9-29.9-29.6c-0.2-40-0.1-80-0.1-120
	C638.8,227.2,638.8,211.8,638.8,194.5z M806.8,341.9C771.1,297.7,733,259.3,689,224.1c0,41,0,79.3,0,117.7
	C728,341.9,766.1,341.9,806.8,341.9z"/>
<path class="st0" d="M540,737.9c55.8,0,111.6,0,167.4,0c18.7,0,29.9,9,30.2,24.2c0.3,15.5-11.2,25.3-30.3,25.3
	c-111.6,0-223.2,0-334.8,0c-18.6,0-29.9-9.2-30.2-24.2c-0.3-15.5,11.3-25.3,30.3-25.3C428.4,737.9,484.2,737.9,540,737.9z"/>
<path class="st0" d="M540,540.3c55.8,0,111.6,0,167.4,0c18.7,0,29.8,9,30.1,24.2c0.3,15.5-11.2,25.3-30.4,25.3
	c-111.6,0-223.2,0-334.8,0c-18.6,0-29.8-9.2-30.1-24.3c-0.3-15.5,11.2-25.2,30.4-25.2C428.4,540.2,484.2,540.3,540,540.3z"/>
<path class="st0" d="M538.6,688.3c-54.6,0-109.2,0-163.8,0c-4.2,0-8.4,0.2-12.5-0.5c-11.5-1.8-19.9-12-20-23.7
	c-0.1-11.7,8-22.1,19.5-24.1c4.9-0.9,10-0.7,15-0.7c108.8,0,217.6,0,326.4,0c23,0,34.6,8.4,34.4,24.9c-0.2,16.1-11.4,24.1-33.8,24.1
	C648.6,688.3,593.6,688.3,538.6,688.3z"/>
</svg>
