<?xml version="1.0" encoding="utf-8"?>
<!-- Generator: Adobe Illustrator 25.2.1, SVG Export Plug-In . SVG Version: 6.00 Build 0)  -->
<svg version="1.1" id="Слой_1" xmlns="http://www.w3.org/2000/svg" xmlns:xlink="http://www.w3.org/1999/xlink" x="0px" y="0px"
	 viewBox="0 0 1080 1080" style="enable-background:new 0 0 1080 1080;" xml:space="preserve">
<style type="text/css">
	.st0{fill:#FFFFFF;stroke:#FFFFFF;stroke-width:13;}
	.st1{fill:#FFFFFF;stroke:#FFFFFF;stroke-width:24;}
</style>
<path class="st0" d="M469.1,1006.1c-5.8-1.5-11.6-2.9-17.4-4.5c-51.5-14.8-86.1-60.8-86.2-115.2c-0.1-135.9,0-271.8-0.1-407.6
	c0-3.2,0-6.5,0-11.5c-3.3,2.9-5.3,4.6-7.1,6.4c-20,19.9-39.8,39.9-59.9,59.8c-13.9,13.8-29.1,13.7-43-0.1c-15.1-15-30.1-29.9-45-45
	c-27.3-27.6-27.3-65.7,0-93.2c16-16.1,32.1-32.1,49.6-49.5c-8.3-7.8-16.3-14.7-23.7-22.2c-32.7-32.8-32.6-76,0.2-108.9
	c31.5-31.6,63-63.1,94.6-94.6c32.4-32.3,75.8-32.4,108.3-0.3c7.5,7.5,14.7,15.3,23,24c10.7-10.9,20.5-21,30.5-30.9
	c8.1-8.2,15.6-17.3,24.9-23.9c8.9-6.3,19.7-10,29.7-14.8c7.3,0,14.6,0,21.9,0c20.4,5,34.8,18.6,48.6,33.3c9.4,9.9,19.3,19.4,28.9,29
	c17.6,17.6,17.7,31.3,0.2,48.9C587,245,527.2,304.8,467.3,364.7c-2.2,2.2-4.3,4.5-7.5,7.8c56.9,0,112,0,166.8,0
	c0.4-1.1,0.8-1.7,0.8-2.2c0.1-15.2,0-30.3,0.2-45.5c0.3-22,13.1-39.1,34.1-45.1c56.2-16.2,112.4-32.3,168.6-48.2
	c31.6-8.9,59.4,11.8,59.4,44.7c0.1,204.5,0.2,409-0.1,613.5c-0.1,52.4-35.9,98.1-86.4,112.2c-5.8,1.6-11.7,2.9-17.5,4.4
	C680.3,1006.1,574.7,1006.1,469.1,1006.1z M420.1,428.2c0,3.8,0,6.6,0,9.3c0,148.6,0,297.3,0,445.9c0,41.3,27,68.1,68.6,68.1
	c92.8,0,185.7,0,278.5,0c41.6,0,68.1-26.5,68.1-68.4c0-148.3,0-296.7,0-445c0-3.2,0-6.4,0-9.9C696.4,428.2,558.8,428.2,420.1,428.2z
	 M593.6,159.3c-7.7-7.4-15.7-14.9-23.5-22.5c-11.5-11.3-12.9-11.4-24.1-0.2C448.2,234.4,350.4,332.2,252.6,430
	c-1.5,1.5-3.1,3-4.5,4.5c-4.1,4.5-4.6,9.4-0.3,13.8c9.5,9.8,19.2,19.3,28.4,28.5C381.8,371.1,487,265.9,593.6,159.3z M835,287.3
	c-50.2,14.1-99.4,27.9-148.6,41.9c-1.7,0.5-3.9,3.2-3.9,5c-0.3,12.6-0.2,25.3-0.2,39.1c51.5,0,101.9,0,152.7,0
	C835,345.1,835,317,835,287.3z M296.2,306.6c42.7-42.7,84.3-84.3,126.6-126.6c-7.9-7.8-16.3-16.6-25.2-24.7
	c-8-7.2-17.4-7.1-25.3,0.7c-33.4,33-66.6,66.2-99.7,99.6c-8.3,8.4-8.1,18.1,0,26.7C280.4,290.8,288.6,298.9,296.2,306.6z"/>
<path class="st1" d="M722.1,689.1c0-53.7-0.1-107.4,0-161.1c0-20.6,17.6-33.9,36-27.7c11.6,3.9,18.5,14.3,18.5,28.4
	c0.1,33.1,0,66.1,0,99.2c0,73.1,0,146.2,0,219.3c0,3.3,0.2,6.7-0.4,10c-2.4,14.3-15.2,24.4-29.1,23.3c-14.5-1.2-25-12.9-25.1-28.4
	C722,797.7,722.1,743.4,722.1,689.1z"/>
<path class="st1" d="M655,689.5c0,54,0.1,108-0.1,162c-0.1,21.7-20,35.3-38.6,26.3c-11.3-5.4-16-15-16-27.3c0.1-27.6,0-55.2,0-82.8
	c0-79.5,0-158.9,0-238.4c0-20.8,15.7-34.1,34.2-29.4c12.8,3.3,20.4,13.7,20.4,28.6C655,582.1,655,635.8,655,689.5z"/>
<path class="st1" d="M533.5,690.2c0,52.2,0,104.3-0.1,156.5c0,4.8-0.1,9.8-1.3,14.4c-3.1,11.7-14.6,19.7-26.7,19.3
	c-12.1-0.4-22.8-9-25.5-20.9c-0.8-3.8-1.1-7.8-1.1-11.7c-0.1-105.5-0.1-211.1,0-316.6c0-21.3,13.5-35,31.3-32
	c13.8,2.3,22.9,12.5,23.1,27.2c0.4,20.6,0.1,41.2,0.1,61.9C533.5,622.3,533.5,656.3,533.5,690.2z"/>
</svg>
