<?xml version="1.0" encoding="utf-8"?>
<!-- Generator: Adobe Illustrator 25.2.1, SVG Export Plug-In . SVG Version: 6.00 Build 0)  -->
<svg version="1.1" id="Слой_1" xmlns="http://www.w3.org/2000/svg" xmlns:xlink="http://www.w3.org/1999/xlink" x="0px" y="0px"
	 viewBox="0 0 1080 1080" style="enable-background:new 0 0 1080 1080;" xml:space="preserve">
<style type="text/css">
	.st0{fill:#FFFFFF;}
</style>
<path class="st0" d="M201.2,540c0-116.8,0-233.6,0-350.4c0-12.4,3.4-23.3,12.3-32.2c8.2-8.2,18-12.4,29.6-12.5c18,0,36,0,54,0
	c112.6,0,225.3-0.1,337.9,0c30.6,0,57,11,78.7,32.5c44.5,44.1,88.8,88.4,132.9,132.9c21.2,21.4,32.1,47.7,32.2,77.8
	c0.2,167.5,0.1,334.9,0.1,502.4c0,20.8-11.3,37.2-29.6,42.6c-4.1,1.2-8.5,1.8-12.8,1.8c-197.6,0.1-395.3,0.1-592.9,0
	c-24.1,0-42.1-18.3-42.2-42.7c-0.2-25.7,0-51.3,0-77C201.2,723.7,201.2,631.8,201.2,540z M258.1,878.5c188.3,0,376,0,563.8,0
	c0-150.6,0-300.8,0-451.4c-2.3,0-4.3,0-6.2,0c-58.7,0-117.3,0-176,0c-12.7,0-23.4-4.4-32.1-13.7c-8.2-8.8-11.1-19.3-11.1-31.2
	c0.1-58,0-116,0-174c0-2.2-0.2-4.5-0.3-6.8c-113,0-225.4,0-338.1,0C258.1,427.3,258.1,652.7,258.1,878.5z M818.7,370.5
	c-2.6-7.2-5.3-13.6-10.3-18.6c-45.6-45.6-91.1-91.3-136.9-136.6c-4.8-4.7-11.5-7.4-18.2-11.6c0,56.7,0,111.6,0,166.8
	C708.2,370.5,763,370.5,818.7,370.5z"/>
</svg>
