<?xml version="1.0" encoding="utf-8"?>
<!-- Generator: Adobe Illustrator 25.2.1, SVG Export Plug-In . SVG Version: 6.00 Build 0)  -->
<svg version="1.1" id="Слой_1" xmlns="http://www.w3.org/2000/svg" xmlns:xlink="http://www.w3.org/1999/xlink" x="0px" y="0px"
	 viewBox="0 0 1080 1080" style="enable-background:new 0 0 1080 1080;" xml:space="preserve">
<style type="text/css">
	.st0{fill:#FFFFFF;stroke:#FFFFFF;stroke-width:16;stroke-miterlimit:10;}
</style>
<path class="st0" d="M859.2,497.1c10.2,1.4,20.3,2.1,30.2,4.1c51.5,10.3,92,37.4,121.2,80.8c22.7,33.7,33.7,71.3,31,111.7
	c-5.2,79.1-44.9,134.8-117.3,166.9c-23.1,10.2-47.6,13.9-72.8,13.9c-195.1,0-390.1,0-585.2,0c-91.8,0-174.6-54.8-210.4-139.3
	c-35.4-83.5-17.7-181,45.3-246.2c46.8-48.4,104.4-71.5,171.6-70.5c3.3,0.1,4.4-1.1,5.3-4c30.1-91,89.3-155.3,178.8-189.5
	c78.9-30.2,157.6-26.2,233.8,10.1c62.4,29.7,108.5,76.6,138.9,138.7c18.5,37.7,27.9,77.9,29.3,119.9c0,0.9,0.1,1.7,0.1,2.6
	C859,496.6,859.2,496.9,859.2,497.1z M558.6,838.6c98.2,0,196.4,0,294.7,0c93.4,0,164.8-82.7,151.1-175.1
	c-11.5-77.9-81.5-134.6-160.2-129.6c-13.7,0.9-21.7-6.9-21.3-20.5c1-30.2-2.5-60-11.8-88.7c-22.4-68.8-65.6-120.7-129.9-153.9
	c-63.2-32.6-129.9-38.9-197.4-16.8c-91.7,30-150,93.2-175.5,186.3c-3.1,11.3-10.3,16.4-22,15.3c-51.7-4.9-98.2,8.3-139.1,40.3
	c-62.5,48.8-88.3,132.6-64.3,208.3c25.4,80.3,99.5,134.5,183.8,134.5C363.9,838.6,461.3,838.6,558.6,838.6z"/>
<path class="st0" d="M558,492.4c0,1.3,0,2.7,0,4c0,78.9,0,157.8,0,236.8c0,11.8-8.5,20.2-19.4,19.3c-8.8-0.7-15.8-7.7-16.5-16.5
	c-0.1-1.4-0.1-2.7-0.1-4.1c0-78.7,0-157.3,0-236c0-1.2,0-2.4,0-4.5c-1.6,1.5-2.6,2.3-3.5,3.2c-25.8,25.8-51.6,51.6-77.4,77.4
	c-4.9,4.9-10.7,7.2-17.6,5.7c-6.7-1.5-11.3-5.7-13.2-12.4c-2-6.9-0.3-13.1,4.8-18.2c16.7-16.8,33.4-33.5,50.2-50.2
	c20.4-20.4,40.8-40.8,61.2-61.3c7.8-7.8,18.9-8,26.6-0.3c37.1,37.1,74.1,74.1,111.1,111.2c6.1,6.1,7.7,14.2,4.4,21.2
	c-5.5,11.7-20.2,14-29.7,4.5c-20.5-20.5-41-41-61.5-61.5c-6.2-6.2-12.4-12.5-18.6-18.8C558.6,492.1,558.3,492.2,558,492.4z"/>
</svg>
