<?xml version="1.0" encoding="utf-8"?>
<!-- Generator: Adobe Illustrator 25.2.1, SVG Export Plug-In . SVG Version: 6.00 Build 0)  -->
<svg version="1.1" id="Слой_1" xmlns="http://www.w3.org/2000/svg" xmlns:xlink="http://www.w3.org/1999/xlink" x="0px" y="0px"
	 viewBox="0 0 1080 1080" style="enable-background:new 0 0 1080 1080;" xml:space="preserve">
<style type="text/css">
	.st0{fill:#FFFFFF;}
</style>
<path class="st0" d="M540.1,797.2c-77.7-2.9-147.1-28.7-211.5-68.9c-61.2-38.2-115.6-84.7-162.1-140c-17.8-21.1-20.7-38.6-5-56.9
	c77.9-90.8,167.9-165.2,285.2-199.2c109.6-31.7,210.5-5.7,304.7,52.6c60,37.2,113,83.1,159.2,136.6c23.4,27.1,24.1,43,0.8,69.2
	C834,677.8,745.6,749.3,631.1,781.3C601.6,789.6,570.5,792.1,540.1,797.2z M840.4,553.4c-40.8-32.9-77.7-66.7-118.6-94.6
	c-58.2-39.7-122.4-67-195-61.4c-118.4,9.1-203.9,78.1-284.2,158.7c53.5,56.9,111.6,103.8,182.1,134.7c69.7,30.6,140,34.6,211.5,8
	C714.9,669.4,778.9,618.7,840.4,553.4z"/>
<path class="st0" d="M655.9,555.9c0.3,64.7-51.3,116.9-115.7,117c-64,0.1-116.7-52.7-116.4-116.8c0.2-63,51.8-115,115-116.1
	C602.4,439,655.5,491.5,655.9,555.9z"/>
</svg>
