<?xml version="1.0" encoding="utf-8"?>
<!-- Generator: Adobe Illustrator 25.2.1, SVG Export Plug-In . SVG Version: 6.00 Build 0)  -->
<svg version="1.1" id="Слой_1" xmlns="http://www.w3.org/2000/svg" xmlns:xlink="http://www.w3.org/1999/xlink" x="0px" y="0px"
	 viewBox="0 0 1080 1080" style="enable-background:new 0 0 1080 1080;" xml:space="preserve">
<style type="text/css">
	.st0{fill:#FFFFFF;}
</style>
<path class="st0" d="M194.1,540c0-110.7,0-221.3,0-332c0-32.1,21.4-57.3,52.9-62.5c3.4-0.6,7-0.6,10.5-0.6c126.5,0,253,0,379.5-0.1
	c11.3,0,21.7,3.1,31.7,7.7c17.3,8.1,33,18.8,47.9,30.5c53.3,41.9,101.1,89.4,140.7,144.6c9.4,13,16.9,27.5,23.7,42.1
	c3.4,7.4,4.7,16.4,4.7,24.7c0.3,159,0.2,318,0.2,476.9c0,37-26.7,63.7-63.6,63.7c-188.1,0-376.3,0-564.4,0
	c-36.9,0-63.7-26.8-63.7-63.8C194.1,761,194.1,650.5,194.1,540z M638.9,194.2c-2.5,0-4.2,0-5.8,0c-124.5,0-249,0-373.5,0
	c-11.6,0-15.9,4.3-15.9,16c0,220,0,440,0,659.9c0,11.4,4.3,15.7,15.7,15.7c187.1,0,374.3,0,561.4,0c11.1,0,15.5-4.4,15.5-15.4
	c0-157.7,0-315.3,0-473c0-1.8-0.2-3.5-0.3-5.6c-2.5,0-4.4,0-6.4,0c-54.3,0-108.7,0-163,0c-18.1,0-27.8-9.7-27.8-27.7
	c0-54.5,0-109,0-163.5C638.9,198.7,638.9,196.8,638.9,194.2z M807,342.2c-35.5-44.3-74.4-83.4-118.5-118.4c0,40.1,0,79.1,0,118.4
	C727.8,342.2,766.7,342.2,807,342.2z"/>
<path class="st0" d="M310.1,441.5c28.6,0,56.9,0,85.8,0c14.7,81,29.4,162,44.2,243c0.3,0,0.5,0.1,0.8,0.1c1-4,2.1-7.9,3-11.9
	c18.3-75.5,36.7-151.1,54.9-226.7c0.9-3.9,2.5-4.9,6.3-4.9c24,0.2,48,0.2,72,0c3.8,0,5.4,0.8,6.3,4.9
	c16.1,77.9,32.4,155.8,48.7,233.7c0.3,1.6,0.7,3.2,1.9,4.9c12.9-57.3,25.8-114.5,38.9-172.4c-11.4,0-22.3,0-33.6,0
	c0-23.8,0-47.2,0-70.8c43.6,0,87,0,130.9,0c-3.5,13.9-6.9,27.4-10.3,40.9c-29.3,115.9-58.7,231.7-87.9,347.6c-1.2,4.8-3,6.6-8.2,6.5
	c-21.5-0.4-43-0.4-64.5,0c-5.4,0.1-7-1.7-8.1-6.6c-16.6-74.2-33.3-148.4-50.1-222.7c-0.1-0.6-0.3-1.3-1.4-2.2
	c-0.5,1.5-1,3.1-1.4,4.6c-18.5,73.4-37,146.9-55.3,220.4c-1.2,5-3.1,6.5-8.3,6.4c-24.2-0.3-48.3-0.2-72.5,0c-4,0-5.3-1.2-6.2-5
	c-28.1-127.8-56.4-255.5-84.6-383.3C310.9,446.1,310.5,444,310.1,441.5z"/>
</svg>
