<?xml version="1.0" encoding="utf-8"?>
<!-- Generator: Adobe Illustrator 25.2.1, SVG Export Plug-In . SVG Version: 6.00 Build 0)  -->
<svg version="1.1" id="Слой_1" xmlns="http://www.w3.org/2000/svg" xmlns:xlink="http://www.w3.org/1999/xlink" x="0px" y="0px"
	 viewBox="0 0 1080 1080" style="enable-background:new 0 0 1080 1080;" xml:space="preserve">
<style type="text/css">
	.st0{fill:#FFFFFF;}
</style>
<path class="st0" d="M194.1,539.5c0-110.5,0-221,0-331.5c0-32.1,21.4-57.3,52.9-62.5c3.4-0.6,7-0.6,10.5-0.6
	c126.5,0,253,0,379.5-0.1c11.3,0,21.7,3.1,31.7,7.7c17.3,8.1,33,18.8,47.9,30.5c53.3,41.9,101.1,89.4,140.7,144.6
	c9.4,13,16.9,27.5,23.6,42.1c3.4,7.4,4.7,16.4,4.7,24.7c0.3,159,0.2,318,0.2,476.9c0,36.9-26.7,63.7-63.6,63.7
	c-188.1,0-376.3,0-564.4,0c-36.9,0-63.7-26.8-63.7-63.8C194.1,760.8,194.1,650.2,194.1,539.5z M440.7,244.4c-2-0.2-3.9-0.5-5.9-0.5
	c-28.8,0-57.7,0-86.5,0c-1.8,0-3.5,0-6,0c0-16.8,0-33,0-49.6c-2.5,0-4.3,0-6.1,0c-25.5,0-51,0-76.5,0c-11.7,0-15.9,4.3-15.9,16
	c0,220,0,440,0,659.9c0,11.4,4.3,15.8,15.6,15.8c187.1,0,374.3,0,561.4,0c11.3,0,15.6-4.4,15.6-15.8c0-157.5,0-315,0-472.5
	c0-1.8-0.2-3.5-0.3-5.7c-2.4,0-4.4,0-6.3,0c-54.2,0-108.3,0-162.5,0c-18.8,0-28.4-9.5-28.4-28.2c0-54.5,0-109,0-163.5
	c0-1.9,0-3.8,0-5.6c-66.4,0-131.9,0-197.7,0c0,11.9,0.1,23.4,0,34.9C441.1,234.5,440.8,239.5,440.7,244.4
	C440.6,244.5,440.7,244.4,440.7,244.4z M807,342.1c-35.6-44.3-74.4-83.4-118.4-118.3c0,40.1,0,79.1,0,118.3
	C727.9,342.1,766.8,342.1,807,342.1z"/>
<path class="st0" d="M440.6,588.5c0.2,7.5,0.4,14.9,0.5,22.4c0.1,9.1,0,18.2,0,28c2.3,0,4,0,5.8,0c18.3,0,36.6,0,55,0
	c22.1,0.1,38,16,38.1,38.2c0.1,40.3,0.1,80.6,0,120.9c0,22.3-15.7,38.2-38,38.3c-40.5,0.1-81,0.1-121.4,0
	c-22.1-0.1-38-15.7-38.1-37.7c-0.2-68.3-0.1-136.6-0.1-204.9c0-1.3,0.2-2.6,0.4-4.4c2.2,0,4.1,0,6.1,0c28.7,0,57.3,0,86,0
	C436.8,589.3,438.7,588.8,440.6,588.5C440.6,588.6,440.6,588.5,440.6,588.5z M490.5,738.1c-32.9,0-65.6,0-98.3,0
	c0,16.4,0,32.5,0,48.7c32.9,0,65.4,0,98.3,0C490.5,770.5,490.5,754.4,490.5,738.1z"/>
<path class="st0" d="M441.1,341.8c2,0.2,3.9,0.5,5.9,0.5c28.8,0,57.6,0,86.4,0c2,0,3.9,0,6.3,0c0,16.6,0,32.8,0,49.3
	c-33.1,0-66,0-99,0l0.2,0.2c0.1-16.7,0.2-33.5,0.4-50.2C441.2,341.7,441.1,341.8,441.1,341.8z"/>
<path class="st0" d="M440.9,441c30.8,0.1,61.6,0.1,92.3,0.2c2,0,4,0,6.3,0c0,16.5,0,32.7,0,49.6c-1.9,0-3.9,0-5.8,0
	c-29,0-57.9,0-86.9,0c-2,0-4,0.2-6,0.3l0.1,0.1c0-16.8-0.1-33.5-0.1-50.3C441.1,440.9,440.9,441,440.9,441z"/>
<path class="st0" d="M440.7,292.7c0.2-9.1,0.4-18.1,0.5-27.2c0-7.1-0.3-14.1-0.5-21.2c0,0-0.1,0.1-0.1,0.1c1.3-0.2,2.6-0.7,3.9-0.7
	c30.8,0,61.6,0,92.5,0c0.8,0,1.6,0.1,2.8,0.2c0,16.2,0,32.2,0,48.6c-1,0.1-2.1,0.4-3.2,0.4c-30.7,0-61.3,0-92,0
	c-1.3,0-2.6-0.3-3.9-0.5L440.7,292.7z"/>
<path class="st0" d="M440.7,391.7c0.1,16.4,0.2,32.9,0.2,49.3c0,0,0.1-0.1,0.1-0.1c-4,0.1-8,0.3-11.9,0.3c-26.8,0-53.6,0-80.4,0
	c-1.8,0-3.6,0-5.9,0c0-16.5,0-32.7,0-49.3c32.8,0,65.4,0,98,0C440.9,391.9,440.7,391.7,440.7,391.7z"/>
<path class="st0" d="M441,491.1c0,15.6,0.1,31.3,0.1,46.9c0,0.8-0.4,1.6-0.6,2.4l0.1-0.1c-29.1-0.1-58.2-0.2-87.4-0.2
	c-3.5,0-6.9,0-10.6,0c0-16.6,0-32.6,0-48.9c1.4-0.1,2.5-0.4,3.6-0.4c30.6,0,61.2,0,91.9,0c1,0,2,0.3,2.9,0.4
	C441.1,491.2,441,491.1,441,491.1z"/>
<path class="st0" d="M440.5,540.4c5-0.1,10-0.3,15-0.3c26.2,0,52.3,0,78.5,0c1.8,0,3.6,0,5.7,0c0,16.5,0,32.6,0,49
	c-1.5,0.1-2.9,0.4-4.4,0.4c-29.8,0-59.7,0-89.5,0c-1.8,0-3.5-0.6-5.3-0.9c0,0,0.1,0.1,0,0.1c0.2-5.7,0.5-11.5,0.5-17.2
	c0-10.4-0.3-20.7-0.4-31.1C440.7,540.3,440.5,540.4,440.5,540.4z"/>
<path class="st0" d="M440.6,292.6c0.2,5.3,0.5,10.6,0.6,15.9c0.1,11.1,0,22.3-0.1,33.4c0,0,0.1-0.1,0.1-0.2
	c-1.4,0.2-2.9,0.7-4.3,0.7c-30,0-60,0-90,0c-1.3,0-2.6-0.2-4.2-0.3c0-16.3,0-32.4,0-49c2,0,3.8,0,5.6,0c29,0,58,0,87,0
	c1.8,0,3.6-0.2,5.4-0.3C440.7,292.7,440.6,292.6,440.6,292.6z"/>
</svg>
